SplineFontDB: 3.2
FontName: x8y12pxDenkiChip
FullName: x8y12pxDenkiChip
FamilyName: x8y12pxDenkiChip
Weight: Book
Copyright: Copyright 2026 The x8y12pxDenkiChip Project Authors (https://github.com/hicchicc/x8y12pxDenkiChip)
Version: 1.000
ItalicAngle: 0
UnderlinePosition: -200
UnderlineWidth: 100
Ascent: 1100
Descent: 100
InvalidEm: 0
sfntRevision: 0x00010000
LayerCount: 2
Layer: 0 1 "+gMyXYgAA" 1
Layer: 1 1 "+Uk2XYgAA" 0
HasVMetrics: 1
XUID: [1021 106 1762770990 10710]
StyleMap: 0x0040
FSType: 8
OS2Version: 4
OS2_WeightWidthSlopeOnly: 0
OS2_UseTypoMetrics: 1
CreationTime: 1771398765
ModificationTime: 1771399179
PfmFamily: 81
TTFWeight: 400
TTFWidth: 5
LineGap: 0
VLineGap: 0
Panose: 0 0 0 0 0 0 0 0 0 0
OS2TypoAscent: 1100
OS2TypoAOffset: 0
OS2TypoDescent: -100
OS2TypoDOffset: 0
OS2TypoLinegap: 0
OS2WinAscent: 1100
OS2WinAOffset: 0
OS2WinDescent: 100
OS2WinDOffset: 0
HheadAscent: 1100
HheadAOffset: 0
HheadDescent: -100
HheadDOffset: 0
OS2SubXSize: 780
OS2SubYSize: 720
OS2SubXOff: 0
OS2SubYOff: 90
OS2SupXSize: 780
OS2SupYSize: 720
OS2SupXOff: 0
OS2SupYOff: 420
OS2StrikeYSize: 60
OS2StrikeYPos: 400
OS2CapHeight: 1000
OS2XHeight: 800
OS2Vendor: '00FF'
OS2CodePages: 00020001.00000000
OS2UnicodeRanges: 80000003.0807606a.00000012.00000000
Lookup: 1 0 0 "'aalt' +MFkweTBmMG51cE9TW1cweDBuMKIwrzC7MLkA lookup 0" { "'aalt' +MFkweTBmMG51cE9TW1cweDBuMKIwrzC7MLkA lookup 0 +MLUw1jDGMPww1jDr"  } ['aalt' ('DFLT' <'dflt' > ) ]
Lookup: 3 0 0 "'aalt' +MFkweTBmMG51cE9TW1cweDBuMKIwrzC7MLkA lookup 1" { "'aalt' +MFkweTBmMG51cE9TW1cweDBuMKIwrzC7MLkA lookup 1 +MLUw1jDGMPww1jDr"  } ['aalt' ('DFLT' <'dflt' > ) ]
Lookup: 1 0 0 "'fwid' +UWiJ0gAA lookup 2" { "'fwid' +UWiJ0gAA lookup 2 +MLUw1jDGMPww1jDr" ("full") } ['fwid' ('DFLT' <'dflt' > ) ]
Lookup: 1 0 0 "'vert' Vertical Alternates lookup 3" { "'vert' Vertical Alternates lookup 3 +MLUw1jDGMPww1jDr"  } ['vert' ('DFLT' <'dflt' > ) ]

StartChar: .notdef
Encoding: 65536 -1 0
Width: 1000
GlyphClass: 1
Flags: W
LayerCount: 2
Fore
SplineSet
900 1000 m 1,0,-1
 900 0 l 1,1,-1
 0 0 l 1,2,-1
 0 1000 l 1,3,-1
 900 1000 l 1,0,-1
700 100 m 1,4,-1
 700 200 l 1,5,-1
 600 200 l 1,6,-1
 600 300 l 1,7,-1
 500 300 l 1,8,-1
 500 400 l 1,9,-1
 400 400 l 1,10,-1
 400 300 l 1,11,-1
 300 300 l 1,12,-1
 300 200 l 1,13,-1
 200 200 l 1,14,-1
 200 100 l 1,15,-1
 700 100 l 1,4,-1
800 700 m 1,16,-1
 700 700 l 1,17,-1
 700 600 l 1,18,-1
 600 600 l 1,19,-1
 600 400 l 1,20,-1
 700 400 l 1,21,-1
 700 300 l 1,22,-1
 800 300 l 1,23,-1
 800 700 l 1,16,-1
300 600 m 1,24,-1
 200 600 l 1,25,-1
 200 700 l 1,26,-1
 100 700 l 1,27,-1
 100 300 l 1,28,-1
 200 300 l 1,29,-1
 200 400 l 1,30,-1
 300 400 l 1,31,-1
 300 600 l 1,24,-1
300 800 m 1,32,-1
 300 700 l 1,33,-1
 400 700 l 1,34,-1
 400 600 l 1,35,-1
 500 600 l 1,36,-1
 500 700 l 1,37,-1
 600 700 l 1,38,-1
 600 800 l 1,39,-1
 700 800 l 1,40,-1
 700 900 l 1,41,-1
 200 900 l 1,42,-1
 200 800 l 1,43,-1
 300 800 l 1,32,-1
EndSplineSet
EndChar

StartChar: A
Encoding: 65 65 2
Width: 700
GlyphClass: 1
Flags: W
LayerCount: 2
Fore
SplineSet
100 900 m 1,0,-1
 100 1000 l 1,1,-1
 500 1000 l 1,2,-1
 500 900 l 1,3,-1
 600 900 l 1,4,-1
 600 0 l 1,5,-1
 400 0 l 1,6,-1
 400 300 l 1,7,-1
 200 300 l 1,8,-1
 200 0 l 1,9,-1
 0 0 l 1,10,-1
 0 900 l 1,11,-1
 100 900 l 1,0,-1
200 800 m 1,12,-1
 200 500 l 1,13,-1
 400 500 l 1,14,-1
 400 800 l 1,15,-1
 200 800 l 1,12,-1
EndSplineSet
Substitution2: "'fwid' +UWiJ0gAA lookup 2 +MLUw1jDGMPww1jDr" uniFF21
Substitution2: "'aalt' +MFkweTBmMG51cE9TW1cweDBuMKIwrzC7MLkA lookup 0 +MLUw1jDGMPww1jDr" uniFF21
EndChar

StartChar: B
Encoding: 66 66 3
Width: 700
GlyphClass: 1
Flags: W
LayerCount: 2
Fore
SplineSet
500 1000 m 1,0,-1
 500 900 l 1,1,-1
 600 900 l 1,2,-1
 600 600 l 1,3,-1
 500 600 l 1,4,-1
 500 400 l 1,5,-1
 600 400 l 1,6,-1
 600 100 l 1,7,-1
 500 100 l 1,8,-1
 500 0 l 1,9,-1
 0 0 l 1,10,-1
 0 1000 l 1,11,-1
 500 1000 l 1,0,-1
400 400 m 1,12,-1
 200 400 l 1,13,-1
 200 200 l 1,14,-1
 400 200 l 1,15,-1
 400 400 l 1,12,-1
400 800 m 1,16,-1
 200 800 l 1,17,-1
 200 600 l 1,18,-1
 400 600 l 1,19,-1
 400 800 l 1,16,-1
EndSplineSet
Substitution2: "'fwid' +UWiJ0gAA lookup 2 +MLUw1jDGMPww1jDr" uniFF22
Substitution2: "'aalt' +MFkweTBmMG51cE9TW1cweDBuMKIwrzC7MLkA lookup 0 +MLUw1jDGMPww1jDr" uniFF22
EndChar

StartChar: C
Encoding: 67 67 4
Width: 600
GlyphClass: 1
Flags: W
LayerCount: 2
Fore
SplineSet
500 0 m 1,0,-1
 100 0 l 1,1,-1
 100 100 l 1,2,-1
 0 100 l 1,3,-1
 0 900 l 1,4,-1
 100 900 l 1,5,-1
 100 1000 l 1,6,-1
 500 1000 l 1,7,-1
 500 800 l 1,8,-1
 200 800 l 1,9,-1
 200 200 l 1,10,-1
 500 200 l 1,11,-1
 500 0 l 1,0,-1
EndSplineSet
Substitution2: "'fwid' +UWiJ0gAA lookup 2 +MLUw1jDGMPww1jDr" uniFF23
Substitution2: "'aalt' +MFkweTBmMG51cE9TW1cweDBuMKIwrzC7MLkA lookup 0 +MLUw1jDGMPww1jDr" uniFF23
EndChar

StartChar: D
Encoding: 68 68 5
Width: 700
GlyphClass: 1
Flags: W
LayerCount: 2
Fore
SplineSet
500 1000 m 1,0,-1
 500 900 l 1,1,-1
 600 900 l 1,2,-1
 600 100 l 1,3,-1
 500 100 l 1,4,-1
 500 0 l 1,5,-1
 0 0 l 1,6,-1
 0 1000 l 1,7,-1
 500 1000 l 1,0,-1
400 800 m 1,8,-1
 200 800 l 1,9,-1
 200 200 l 1,10,-1
 400 200 l 1,11,-1
 400 800 l 1,8,-1
EndSplineSet
Substitution2: "'fwid' +UWiJ0gAA lookup 2 +MLUw1jDGMPww1jDr" uniFF24
Substitution2: "'aalt' +MFkweTBmMG51cE9TW1cweDBuMKIwrzC7MLkA lookup 0 +MLUw1jDGMPww1jDr" uniFF24
EndChar

StartChar: E
Encoding: 69 69 6
Width: 600
GlyphClass: 1
Flags: W
LayerCount: 2
Fore
SplineSet
500 800 m 1,0,-1
 200 800 l 1,1,-1
 200 600 l 1,2,-1
 500 600 l 1,3,-1
 500 400 l 1,4,-1
 200 400 l 1,5,-1
 200 200 l 1,6,-1
 500 200 l 1,7,-1
 500 0 l 1,8,-1
 0 0 l 1,9,-1
 0 1000 l 1,10,-1
 500 1000 l 1,11,-1
 500 800 l 1,0,-1
EndSplineSet
Substitution2: "'fwid' +UWiJ0gAA lookup 2 +MLUw1jDGMPww1jDr" uniFF25
Substitution2: "'aalt' +MFkweTBmMG51cE9TW1cweDBuMKIwrzC7MLkA lookup 0 +MLUw1jDGMPww1jDr" uniFF25
EndChar

StartChar: F
Encoding: 70 70 7
Width: 600
GlyphClass: 1
Flags: W
LayerCount: 2
Fore
SplineSet
500 800 m 1,0,-1
 200 800 l 1,1,-1
 200 600 l 1,2,-1
 500 600 l 1,3,-1
 500 400 l 1,4,-1
 200 400 l 1,5,-1
 200 0 l 1,6,-1
 0 0 l 1,7,-1
 0 1000 l 1,8,-1
 500 1000 l 1,9,-1
 500 800 l 1,0,-1
EndSplineSet
Substitution2: "'fwid' +UWiJ0gAA lookup 2 +MLUw1jDGMPww1jDr" uniFF26
Substitution2: "'aalt' +MFkweTBmMG51cE9TW1cweDBuMKIwrzC7MLkA lookup 0 +MLUw1jDGMPww1jDr" uniFF26
EndChar

StartChar: G
Encoding: 71 71 8
Width: 700
GlyphClass: 1
Flags: W
LayerCount: 2
Fore
SplineSet
100 900 m 1,0,-1
 100 1000 l 1,1,-1
 600 1000 l 1,2,-1
 600 800 l 1,3,-1
 200 800 l 1,4,-1
 200 200 l 1,5,-1
 400 200 l 1,6,-1
 400 600 l 1,7,-1
 600 600 l 1,8,-1
 600 0 l 1,9,-1
 100 0 l 1,10,-1
 100 100 l 1,11,-1
 0 100 l 1,12,-1
 0 900 l 1,13,-1
 100 900 l 1,0,-1
EndSplineSet
Substitution2: "'fwid' +UWiJ0gAA lookup 2 +MLUw1jDGMPww1jDr" uniFF27
Substitution2: "'aalt' +MFkweTBmMG51cE9TW1cweDBuMKIwrzC7MLkA lookup 0 +MLUw1jDGMPww1jDr" uniFF27
EndChar

StartChar: H
Encoding: 72 72 9
Width: 700
GlyphClass: 1
Flags: W
LayerCount: 2
Fore
SplineSet
200 1000 m 1,0,-1
 200 600 l 1,1,-1
 400 600 l 1,2,-1
 400 1000 l 1,3,-1
 600 1000 l 1,4,-1
 600 0 l 1,5,-1
 400 0 l 1,6,-1
 400 400 l 1,7,-1
 200 400 l 1,8,-1
 200 0 l 1,9,-1
 0 0 l 1,10,-1
 0 1000 l 1,11,-1
 200 1000 l 1,0,-1
EndSplineSet
Substitution2: "'fwid' +UWiJ0gAA lookup 2 +MLUw1jDGMPww1jDr" uniFF28
Substitution2: "'aalt' +MFkweTBmMG51cE9TW1cweDBuMKIwrzC7MLkA lookup 0 +MLUw1jDGMPww1jDr" uniFF28
EndChar

StartChar: I
Encoding: 73 73 10
Width: 300
GlyphClass: 1
Flags: W
LayerCount: 2
Fore
SplineSet
200 1000 m 1,0,-1
 200 0 l 1,1,-1
 0 0 l 1,2,-1
 0 1000 l 1,3,-1
 200 1000 l 1,0,-1
EndSplineSet
Substitution2: "'fwid' +UWiJ0gAA lookup 2 +MLUw1jDGMPww1jDr" uniFF29
Substitution2: "'aalt' +MFkweTBmMG51cE9TW1cweDBuMKIwrzC7MLkA lookup 0 +MLUw1jDGMPww1jDr" uniFF29
EndChar

StartChar: J
Encoding: 74 74 11
Width: 500
GlyphClass: 1
Flags: W
LayerCount: 2
Fore
SplineSet
200 200 m 1,0,-1
 200 1000 l 1,1,-1
 400 1000 l 1,2,-1
 400 100 l 1,3,-1
 300 100 l 1,4,-1
 300 0 l 1,5,-1
 0 0 l 1,6,-1
 0 200 l 1,7,-1
 200 200 l 1,0,-1
EndSplineSet
Substitution2: "'fwid' +UWiJ0gAA lookup 2 +MLUw1jDGMPww1jDr" uniFF2A
Substitution2: "'aalt' +MFkweTBmMG51cE9TW1cweDBuMKIwrzC7MLkA lookup 0 +MLUw1jDGMPww1jDr" uniFF2A
EndChar

StartChar: K
Encoding: 75 75 12
Width: 700
GlyphClass: 1
Flags: W
LayerCount: 2
Fore
SplineSet
200 1000 m 1,0,-1
 200 700 l 1,1,-1
 300 700 l 1,2,-1
 300 800 l 1,3,-1
 400 800 l 1,4,-1
 400 1000 l 1,5,-1
 600 1000 l 1,6,-1
 600 700 l 1,7,-1
 500 700 l 1,8,-1
 500 600 l 1,9,-1
 400 600 l 1,10,-1
 400 400 l 1,11,-1
 500 400 l 1,12,-1
 500 300 l 1,13,-1
 600 300 l 1,14,-1
 600 0 l 1,15,-1
 400 0 l 1,16,-1
 400 200 l 1,17,-1
 300 200 l 1,18,-1
 300 300 l 1,19,-1
 200 300 l 1,20,-1
 200 0 l 1,21,-1
 0 0 l 1,22,-1
 0 1000 l 1,23,-1
 200 1000 l 1,0,-1
EndSplineSet
Substitution2: "'fwid' +UWiJ0gAA lookup 2 +MLUw1jDGMPww1jDr" uniFF2B
Substitution2: "'aalt' +MFkweTBmMG51cE9TW1cweDBuMKIwrzC7MLkA lookup 0 +MLUw1jDGMPww1jDr" uniFF2B
EndChar

StartChar: L
Encoding: 76 76 13
Width: 600
GlyphClass: 1
Flags: W
LayerCount: 2
Fore
SplineSet
200 1000 m 1,0,-1
 200 200 l 1,1,-1
 500 200 l 1,2,-1
 500 0 l 1,3,-1
 0 0 l 1,4,-1
 0 1000 l 1,5,-1
 200 1000 l 1,0,-1
EndSplineSet
Substitution2: "+U1h9FH9uY9sA lookup 7 +MLUw1jDGMPww1jDr" L.alt
Substitution2: "'fwid' +UWiJ0gAA lookup 2 +MLUw1jDGMPww1jDr" uniFF2C
AlternateSubs2: "'aalt' +MFkweTBmMG51cE9TW1cweDBuMKIwrzC7MLkA lookup 1 +MLUw1jDGMPww1jDr" uniFF2C L.alt
EndChar

StartChar: M
Encoding: 77 77 14
Width: 800
GlyphClass: 1
Flags: W
LayerCount: 2
Fore
SplineSet
200 1000 m 1,0,-1
 200 900 l 1,1,-1
 300 900 l 1,2,-1
 300 800 l 1,3,-1
 400 800 l 1,4,-1
 400 900 l 1,5,-1
 500 900 l 1,6,-1
 500 1000 l 1,7,-1
 700 1000 l 1,8,-1
 700 0 l 1,9,-1
 500 0 l 1,10,-1
 500 600 l 1,11,-1
 400 600 l 1,12,-1
 400 500 l 1,13,-1
 300 500 l 1,14,-1
 300 600 l 1,15,-1
 200 600 l 1,16,-1
 200 0 l 1,17,-1
 0 0 l 1,18,-1
 0 1000 l 1,19,-1
 200 1000 l 1,0,-1
EndSplineSet
Substitution2: "'fwid' +UWiJ0gAA lookup 2 +MLUw1jDGMPww1jDr" uniFF2D
Substitution2: "'aalt' +MFkweTBmMG51cE9TW1cweDBuMKIwrzC7MLkA lookup 0 +MLUw1jDGMPww1jDr" uniFF2D
EndChar

StartChar: N
Encoding: 78 78 15
Width: 700
GlyphClass: 1
Flags: W
LayerCount: 2
Fore
SplineSet
500 1000 m 1,0,-1
 500 900 l 1,1,-1
 600 900 l 1,2,-1
 600 0 l 1,3,-1
 400 0 l 1,4,-1
 400 800 l 1,5,-1
 200 800 l 1,6,-1
 200 0 l 1,7,-1
 0 0 l 1,8,-1
 0 1000 l 1,9,-1
 500 1000 l 1,0,-1
EndSplineSet
Substitution2: "'fwid' +UWiJ0gAA lookup 2 +MLUw1jDGMPww1jDr" uniFF2E
Substitution2: "'aalt' +MFkweTBmMG51cE9TW1cweDBuMKIwrzC7MLkA lookup 0 +MLUw1jDGMPww1jDr" uniFF2E
EndChar

StartChar: O
Encoding: 79 79 16
Width: 700
GlyphClass: 1
Flags: W
LayerCount: 2
Fore
SplineSet
100 900 m 1,0,-1
 100 1000 l 1,1,-1
 500 1000 l 1,2,-1
 500 900 l 1,3,-1
 600 900 l 1,4,-1
 600 100 l 1,5,-1
 500 100 l 1,6,-1
 500 0 l 1,7,-1
 100 0 l 1,8,-1
 100 100 l 1,9,-1
 0 100 l 1,10,-1
 0 900 l 1,11,-1
 100 900 l 1,0,-1
400 800 m 1,12,-1
 200 800 l 1,13,-1
 200 200 l 1,14,-1
 400 200 l 1,15,-1
 400 800 l 1,12,-1
EndSplineSet
Substitution2: "'fwid' +UWiJ0gAA lookup 2 +MLUw1jDGMPww1jDr" uniFF2F
Substitution2: "'aalt' +MFkweTBmMG51cE9TW1cweDBuMKIwrzC7MLkA lookup 0 +MLUw1jDGMPww1jDr" uniFF2F
EndChar

StartChar: P
Encoding: 80 80 17
Width: 700
GlyphClass: 1
Flags: W
LayerCount: 2
Fore
SplineSet
500 1000 m 1,0,-1
 500 900 l 1,1,-1
 600 900 l 1,2,-1
 600 400 l 1,3,-1
 500 400 l 1,4,-1
 500 300 l 1,5,-1
 200 300 l 1,6,-1
 200 0 l 1,7,-1
 0 0 l 1,8,-1
 0 1000 l 1,9,-1
 500 1000 l 1,0,-1
400 800 m 1,10,-1
 200 800 l 1,11,-1
 200 500 l 1,12,-1
 400 500 l 1,13,-1
 400 800 l 1,10,-1
EndSplineSet
Substitution2: "'fwid' +UWiJ0gAA lookup 2 +MLUw1jDGMPww1jDr" uniFF30
Substitution2: "'aalt' +MFkweTBmMG51cE9TW1cweDBuMKIwrzC7MLkA lookup 0 +MLUw1jDGMPww1jDr" uniFF30
EndChar

StartChar: Q
Encoding: 81 81 18
Width: 700
GlyphClass: 1
Flags: W
LayerCount: 2
Fore
SplineSet
100 900 m 1,0,-1
 100 1000 l 1,1,-1
 500 1000 l 1,2,-1
 500 900 l 1,3,-1
 600 900 l 1,4,-1
 600 300 l 1,5,-1
 500 300 l 1,6,-1
 500 200 l 1,7,-1
 600 200 l 1,8,-1
 600 0 l 1,9,-1
 400 0 l 1,10,-1
 400 100 l 1,11,-1
 300 100 l 1,12,-1
 300 0 l 1,13,-1
 100 0 l 1,14,-1
 100 100 l 1,15,-1
 0 100 l 1,16,-1
 0 900 l 1,17,-1
 100 900 l 1,0,-1
200 800 m 1,18,-1
 200 200 l 1,19,-1
 300 200 l 1,20,-1
 300 300 l 1,21,-1
 400 300 l 1,22,-1
 400 800 l 1,23,-1
 200 800 l 1,18,-1
EndSplineSet
Substitution2: "'fwid' +UWiJ0gAA lookup 2 +MLUw1jDGMPww1jDr" uniFF31
Substitution2: "'aalt' +MFkweTBmMG51cE9TW1cweDBuMKIwrzC7MLkA lookup 0 +MLUw1jDGMPww1jDr" uniFF31
EndChar

StartChar: R
Encoding: 82 82 19
Width: 700
GlyphClass: 1
Flags: W
LayerCount: 2
Fore
SplineSet
500 1000 m 1,0,-1
 500 900 l 1,1,-1
 600 900 l 1,2,-1
 600 500 l 1,3,-1
 500 500 l 1,4,-1
 500 300 l 1,5,-1
 600 300 l 1,6,-1
 600 0 l 1,7,-1
 400 0 l 1,8,-1
 400 300 l 1,9,-1
 200 300 l 1,10,-1
 200 0 l 1,11,-1
 0 0 l 1,12,-1
 0 1000 l 1,13,-1
 500 1000 l 1,0,-1
400 800 m 1,14,-1
 200 800 l 1,15,-1
 200 500 l 1,16,-1
 400 500 l 1,17,-1
 400 800 l 1,14,-1
EndSplineSet
Substitution2: "'fwid' +UWiJ0gAA lookup 2 +MLUw1jDGMPww1jDr" uniFF32
Substitution2: "'aalt' +MFkweTBmMG51cE9TW1cweDBuMKIwrzC7MLkA lookup 0 +MLUw1jDGMPww1jDr" uniFF32
EndChar

StartChar: S
Encoding: 83 83 20
Width: 600
GlyphClass: 1
Flags: W
LayerCount: 2
Fore
SplineSet
100 900 m 1,0,-1
 100 1000 l 1,1,-1
 500 1000 l 1,2,-1
 500 800 l 1,3,-1
 200 800 l 1,4,-1
 200 600 l 1,5,-1
 400 600 l 1,6,-1
 400 500 l 1,7,-1
 500 500 l 1,8,-1
 500 100 l 1,9,-1
 400 100 l 1,10,-1
 400 0 l 1,11,-1
 0 0 l 1,12,-1
 0 200 l 1,13,-1
 300 200 l 1,14,-1
 300 400 l 1,15,-1
 100 400 l 1,16,-1
 100 500 l 1,17,-1
 0 500 l 1,18,-1
 0 900 l 1,19,-1
 100 900 l 1,0,-1
EndSplineSet
Substitution2: "'fwid' +UWiJ0gAA lookup 2 +MLUw1jDGMPww1jDr" uniFF33
Substitution2: "'aalt' +MFkweTBmMG51cE9TW1cweDBuMKIwrzC7MLkA lookup 0 +MLUw1jDGMPww1jDr" uniFF33
EndChar

StartChar: T
Encoding: 84 84 21
Width: 700
GlyphClass: 1
Flags: W
LayerCount: 2
Fore
SplineSet
600 1000 m 1,0,-1
 600 800 l 1,1,-1
 400 800 l 1,2,-1
 400 0 l 1,3,-1
 200 0 l 1,4,-1
 200 800 l 1,5,-1
 0 800 l 1,6,-1
 0 1000 l 1,7,-1
 600 1000 l 1,0,-1
EndSplineSet
Substitution2: "+U1h9FH9uY9sA lookup 7 +MLUw1jDGMPww1jDr" T.alt
Substitution2: "'fwid' +UWiJ0gAA lookup 2 +MLUw1jDGMPww1jDr" uniFF34
AlternateSubs2: "'aalt' +MFkweTBmMG51cE9TW1cweDBuMKIwrzC7MLkA lookup 1 +MLUw1jDGMPww1jDr" uniFF34 T.alt
EndChar

StartChar: U
Encoding: 85 85 22
Width: 700
GlyphClass: 1
Flags: W
LayerCount: 2
Fore
SplineSet
200 1000 m 1,0,-1
 200 200 l 1,1,-1
 400 200 l 1,2,-1
 400 1000 l 1,3,-1
 600 1000 l 1,4,-1
 600 100 l 1,5,-1
 500 100 l 1,6,-1
 500 0 l 1,7,-1
 100 0 l 1,8,-1
 100 100 l 1,9,-1
 0 100 l 1,10,-1
 0 1000 l 1,11,-1
 200 1000 l 1,0,-1
EndSplineSet
Substitution2: "'fwid' +UWiJ0gAA lookup 2 +MLUw1jDGMPww1jDr" uniFF35
Substitution2: "'aalt' +MFkweTBmMG51cE9TW1cweDBuMKIwrzC7MLkA lookup 0 +MLUw1jDGMPww1jDr" uniFF35
EndChar

StartChar: V
Encoding: 86 86 23
Width: 700
GlyphClass: 1
Flags: W
LayerCount: 2
Fore
SplineSet
200 1000 m 1,0,-1
 200 400 l 1,1,-1
 400 400 l 1,2,-1
 400 1000 l 1,3,-1
 600 1000 l 1,4,-1
 600 400 l 1,5,-1
 500 400 l 1,6,-1
 500 200 l 1,7,-1
 400 200 l 1,8,-1
 400 0 l 1,9,-1
 200 0 l 1,10,-1
 200 200 l 1,11,-1
 100 200 l 1,12,-1
 100 400 l 1,13,-1
 0 400 l 1,14,-1
 0 1000 l 1,15,-1
 200 1000 l 1,0,-1
EndSplineSet
Substitution2: "'fwid' +UWiJ0gAA lookup 2 +MLUw1jDGMPww1jDr" uniFF36
Substitution2: "'aalt' +MFkweTBmMG51cE9TW1cweDBuMKIwrzC7MLkA lookup 0 +MLUw1jDGMPww1jDr" uniFF36
EndChar

StartChar: W
Encoding: 87 87 24
Width: 800
GlyphClass: 1
Flags: W
LayerCount: 2
Fore
SplineSet
200 1000 m 1,0,-1
 200 400 l 1,1,-1
 300 400 l 1,2,-1
 300 500 l 1,3,-1
 400 500 l 1,4,-1
 400 400 l 1,5,-1
 500 400 l 1,6,-1
 500 1000 l 1,7,-1
 700 1000 l 1,8,-1
 700 0 l 1,9,-1
 500 0 l 1,10,-1
 500 100 l 1,11,-1
 400 100 l 1,12,-1
 400 200 l 1,13,-1
 300 200 l 1,14,-1
 300 100 l 1,15,-1
 200 100 l 1,16,-1
 200 0 l 1,17,-1
 0 0 l 1,18,-1
 0 1000 l 1,19,-1
 200 1000 l 1,0,-1
EndSplineSet
Substitution2: "'fwid' +UWiJ0gAA lookup 2 +MLUw1jDGMPww1jDr" uniFF37
Substitution2: "'aalt' +MFkweTBmMG51cE9TW1cweDBuMKIwrzC7MLkA lookup 0 +MLUw1jDGMPww1jDr" uniFF37
EndChar

StartChar: X
Encoding: 88 88 25
Width: 700
GlyphClass: 1
Flags: W
LayerCount: 2
Fore
SplineSet
100 400 m 1,0,-1
 100 600 l 1,1,-1
 0 600 l 1,2,-1
 0 1000 l 1,3,-1
 200 1000 l 1,4,-1
 200 700 l 1,5,-1
 400 700 l 1,6,-1
 400 1000 l 1,7,-1
 600 1000 l 1,8,-1
 600 600 l 1,9,-1
 500 600 l 1,10,-1
 500 400 l 1,11,-1
 600 400 l 1,12,-1
 600 0 l 1,13,-1
 400 0 l 1,14,-1
 400 300 l 1,15,-1
 200 300 l 1,16,-1
 200 0 l 1,17,-1
 0 0 l 1,18,-1
 0 400 l 1,19,-1
 100 400 l 1,0,-1
EndSplineSet
Substitution2: "'fwid' +UWiJ0gAA lookup 2 +MLUw1jDGMPww1jDr" uniFF38
Substitution2: "'aalt' +MFkweTBmMG51cE9TW1cweDBuMKIwrzC7MLkA lookup 0 +MLUw1jDGMPww1jDr" uniFF38
EndChar

StartChar: Y
Encoding: 89 89 26
Width: 700
GlyphClass: 1
Flags: W
LayerCount: 2
Fore
SplineSet
200 1000 m 1,0,-1
 200 600 l 1,1,-1
 400 600 l 1,2,-1
 400 1000 l 1,3,-1
 600 1000 l 1,4,-1
 600 500 l 1,5,-1
 500 500 l 1,6,-1
 500 400 l 1,7,-1
 400 400 l 1,8,-1
 400 0 l 1,9,-1
 200 0 l 1,10,-1
 200 400 l 1,11,-1
 100 400 l 1,12,-1
 100 500 l 1,13,-1
 0 500 l 1,14,-1
 0 1000 l 1,15,-1
 200 1000 l 1,0,-1
EndSplineSet
Substitution2: "'fwid' +UWiJ0gAA lookup 2 +MLUw1jDGMPww1jDr" uniFF39
Substitution2: "'aalt' +MFkweTBmMG51cE9TW1cweDBuMKIwrzC7MLkA lookup 0 +MLUw1jDGMPww1jDr" uniFF39
EndChar

StartChar: Z
Encoding: 90 90 27
Width: 700
GlyphClass: 1
Flags: W
LayerCount: 2
Fore
SplineSet
600 1000 m 1,0,-1
 600 600 l 1,1,-1
 500 600 l 1,2,-1
 500 500 l 1,3,-1
 400 500 l 1,4,-1
 400 400 l 1,5,-1
 300 400 l 1,6,-1
 300 300 l 1,7,-1
 200 300 l 1,8,-1
 200 200 l 1,9,-1
 600 200 l 1,10,-1
 600 0 l 1,11,-1
 0 0 l 1,12,-1
 0 400 l 1,13,-1
 100 400 l 1,14,-1
 100 500 l 1,15,-1
 200 500 l 1,16,-1
 200 600 l 1,17,-1
 300 600 l 1,18,-1
 300 700 l 1,19,-1
 400 700 l 1,20,-1
 400 800 l 1,21,-1
 0 800 l 1,22,-1
 0 1000 l 1,23,-1
 600 1000 l 1,0,-1
EndSplineSet
Substitution2: "'fwid' +UWiJ0gAA lookup 2 +MLUw1jDGMPww1jDr" uniFF3A
Substitution2: "'aalt' +MFkweTBmMG51cE9TW1cweDBuMKIwrzC7MLkA lookup 0 +MLUw1jDGMPww1jDr" uniFF3A
EndChar

StartChar: uniFF21
Encoding: 65313 65313 28
Width: 800
GlyphClass: 1
Flags: W
LayerCount: 2
Fore
SplineSet
500 500 m 1,0,-1
 500 800 l 1,1,-1
 200 800 l 1,2,-1
 200 500 l 1,3,-1
 500 500 l 1,0,-1
600 900 m 1,4,-1
 700 900 l 1,5,-1
 700 0 l 1,6,-1
 500 0 l 1,7,-1
 500 300 l 1,8,-1
 200 300 l 1,9,-1
 200 0 l 1,10,-1
 0 0 l 1,11,-1
 0 900 l 1,12,-1
 100 900 l 1,13,-1
 100 1000 l 1,14,-1
 600 1000 l 1,15,-1
 600 900 l 1,4,-1
EndSplineSet
Substitution2: "'vrt2' +fiZm+DBNW1dfYjBoVt6O4m4IMH9lh1tX lookup 5 +MLUw1jDGMPww1jDr" uniFF21.vert
Substitution2: "'vert' Vertical Alternates lookup 3 +MLUw1jDGMPww1jDr" uniFF21.vert
Substitution2: "'aalt' +MFkweTBmMG51cE9TW1cweDBuMKIwrzC7MLkA lookup 0 +MLUw1jDGMPww1jDr" uniFF21.vert
EndChar

StartChar: uniFF22
Encoding: 65314 65314 29
Width: 800
GlyphClass: 1
Flags: W
LayerCount: 2
Fore
SplineSet
600 900 m 1,0,-1
 700 900 l 1,1,-1
 700 600 l 1,2,-1
 600 600 l 1,3,-1
 600 400 l 1,4,-1
 700 400 l 1,5,-1
 700 100 l 1,6,-1
 600 100 l 1,7,-1
 600 0 l 1,8,-1
 0 0 l 1,9,-1
 0 1000 l 1,10,-1
 600 1000 l 1,11,-1
 600 900 l 1,0,-1
500 200 m 1,12,-1
 500 400 l 1,13,-1
 200 400 l 1,14,-1
 200 200 l 1,15,-1
 500 200 l 1,12,-1
500 600 m 1,16,-1
 500 800 l 1,17,-1
 200 800 l 1,18,-1
 200 600 l 1,19,-1
 500 600 l 1,16,-1
EndSplineSet
Substitution2: "'vrt2' +fiZm+DBNW1dfYjBoVt6O4m4IMH9lh1tX lookup 5 +MLUw1jDGMPww1jDr" uniFF22.vert
Substitution2: "'vert' Vertical Alternates lookup 3 +MLUw1jDGMPww1jDr" uniFF22.vert
Substitution2: "'aalt' +MFkweTBmMG51cE9TW1cweDBuMKIwrzC7MLkA lookup 0 +MLUw1jDGMPww1jDr" uniFF22.vert
EndChar

StartChar: uniFF23
Encoding: 65315 65315 30
Width: 800
GlyphClass: 1
Flags: W
LayerCount: 2
Fore
SplineSet
100 1000 m 1,0,-1
 600 1000 l 1,1,-1
 600 900 l 1,2,-1
 700 900 l 1,3,-1
 700 700 l 1,4,-1
 500 700 l 1,5,-1
 500 800 l 1,6,-1
 200 800 l 1,7,-1
 200 200 l 1,8,-1
 500 200 l 1,9,-1
 500 300 l 1,10,-1
 700 300 l 1,11,-1
 700 100 l 1,12,-1
 600 100 l 1,13,-1
 600 0 l 1,14,-1
 100 0 l 1,15,-1
 100 100 l 1,16,-1
 0 100 l 1,17,-1
 0 900 l 1,18,-1
 100 900 l 1,19,-1
 100 1000 l 1,0,-1
EndSplineSet
Substitution2: "'vrt2' +fiZm+DBNW1dfYjBoVt6O4m4IMH9lh1tX lookup 5 +MLUw1jDGMPww1jDr" uniFF23.vert
Substitution2: "'vert' Vertical Alternates lookup 3 +MLUw1jDGMPww1jDr" uniFF23.vert
Substitution2: "'aalt' +MFkweTBmMG51cE9TW1cweDBuMKIwrzC7MLkA lookup 0 +MLUw1jDGMPww1jDr" uniFF23.vert
EndChar

StartChar: uniFF24
Encoding: 65316 65316 31
Width: 800
GlyphClass: 1
Flags: W
LayerCount: 2
Fore
SplineSet
600 900 m 1,0,-1
 700 900 l 1,1,-1
 700 100 l 1,2,-1
 600 100 l 1,3,-1
 600 0 l 1,4,-1
 0 0 l 1,5,-1
 0 1000 l 1,6,-1
 600 1000 l 1,7,-1
 600 900 l 1,0,-1
500 200 m 1,8,-1
 500 800 l 1,9,-1
 200 800 l 1,10,-1
 200 200 l 1,11,-1
 500 200 l 1,8,-1
EndSplineSet
Substitution2: "'vrt2' +fiZm+DBNW1dfYjBoVt6O4m4IMH9lh1tX lookup 5 +MLUw1jDGMPww1jDr" uniFF24.vert
Substitution2: "'vert' Vertical Alternates lookup 3 +MLUw1jDGMPww1jDr" uniFF24.vert
Substitution2: "'aalt' +MFkweTBmMG51cE9TW1cweDBuMKIwrzC7MLkA lookup 0 +MLUw1jDGMPww1jDr" uniFF24.vert
EndChar

StartChar: uniFF25
Encoding: 65317 65317 32
Width: 800
GlyphClass: 1
Flags: W
LayerCount: 2
Fore
SplineSet
700 800 m 1,0,-1
 200 800 l 1,1,-1
 200 600 l 1,2,-1
 600 600 l 1,3,-1
 600 400 l 1,4,-1
 200 400 l 1,5,-1
 200 200 l 1,6,-1
 700 200 l 1,7,-1
 700 0 l 1,8,-1
 0 0 l 1,9,-1
 0 1000 l 1,10,-1
 700 1000 l 1,11,-1
 700 800 l 1,0,-1
EndSplineSet
Substitution2: "'vrt2' +fiZm+DBNW1dfYjBoVt6O4m4IMH9lh1tX lookup 5 +MLUw1jDGMPww1jDr" uniFF25.vert
Substitution2: "'vert' Vertical Alternates lookup 3 +MLUw1jDGMPww1jDr" uniFF25.vert
Substitution2: "'aalt' +MFkweTBmMG51cE9TW1cweDBuMKIwrzC7MLkA lookup 0 +MLUw1jDGMPww1jDr" uniFF25.vert
EndChar

StartChar: uniFF26
Encoding: 65318 65318 33
Width: 800
GlyphClass: 1
Flags: W
LayerCount: 2
Fore
SplineSet
700 800 m 1,0,-1
 200 800 l 1,1,-1
 200 600 l 1,2,-1
 700 600 l 1,3,-1
 700 400 l 1,4,-1
 200 400 l 1,5,-1
 200 0 l 1,6,-1
 0 0 l 1,7,-1
 0 1000 l 1,8,-1
 700 1000 l 1,9,-1
 700 800 l 1,0,-1
EndSplineSet
Substitution2: "'vrt2' +fiZm+DBNW1dfYjBoVt6O4m4IMH9lh1tX lookup 5 +MLUw1jDGMPww1jDr" uniFF26.vert
Substitution2: "'vert' Vertical Alternates lookup 3 +MLUw1jDGMPww1jDr" uniFF26.vert
Substitution2: "'aalt' +MFkweTBmMG51cE9TW1cweDBuMKIwrzC7MLkA lookup 0 +MLUw1jDGMPww1jDr" uniFF26.vert
EndChar

StartChar: uniFF27
Encoding: 65319 65319 34
Width: 800
GlyphClass: 1
Flags: W
LayerCount: 2
Fore
SplineSet
100 1000 m 1,0,-1
 700 1000 l 1,1,-1
 700 800 l 1,2,-1
 200 800 l 1,3,-1
 200 200 l 1,4,-1
 500 200 l 1,5,-1
 500 600 l 1,6,-1
 700 600 l 1,7,-1
 700 0 l 1,8,-1
 100 0 l 1,9,-1
 100 100 l 1,10,-1
 0 100 l 1,11,-1
 0 900 l 1,12,-1
 100 900 l 1,13,-1
 100 1000 l 1,0,-1
EndSplineSet
Substitution2: "'vrt2' +fiZm+DBNW1dfYjBoVt6O4m4IMH9lh1tX lookup 5 +MLUw1jDGMPww1jDr" uniFF27.vert
Substitution2: "'vert' Vertical Alternates lookup 3 +MLUw1jDGMPww1jDr" uniFF27.vert
Substitution2: "'aalt' +MFkweTBmMG51cE9TW1cweDBuMKIwrzC7MLkA lookup 0 +MLUw1jDGMPww1jDr" uniFF27.vert
EndChar

StartChar: uniFF28
Encoding: 65320 65320 35
Width: 800
GlyphClass: 1
Flags: W
LayerCount: 2
Fore
SplineSet
200 600 m 1,0,-1
 500 600 l 1,1,-1
 500 1000 l 1,2,-1
 700 1000 l 1,3,-1
 700 0 l 1,4,-1
 500 0 l 1,5,-1
 500 400 l 1,6,-1
 200 400 l 1,7,-1
 200 0 l 1,8,-1
 0 0 l 1,9,-1
 0 1000 l 1,10,-1
 200 1000 l 1,11,-1
 200 600 l 1,0,-1
EndSplineSet
Substitution2: "'vrt2' +fiZm+DBNW1dfYjBoVt6O4m4IMH9lh1tX lookup 5 +MLUw1jDGMPww1jDr" uniFF28.vert
Substitution2: "'vert' Vertical Alternates lookup 3 +MLUw1jDGMPww1jDr" uniFF28.vert
Substitution2: "'aalt' +MFkweTBmMG51cE9TW1cweDBuMKIwrzC7MLkA lookup 0 +MLUw1jDGMPww1jDr" uniFF28.vert
EndChar

StartChar: uniFF29
Encoding: 65321 65321 36
Width: 800
GlyphClass: 1
Flags: W
LayerCount: 2
Fore
SplineSet
300 800 m 1,0,-1
 100 800 l 1,1,-1
 100 1000 l 1,2,-1
 700 1000 l 1,3,-1
 700 800 l 1,4,-1
 500 800 l 1,5,-1
 500 200 l 1,6,-1
 700 200 l 1,7,-1
 700 0 l 1,8,-1
 100 0 l 1,9,-1
 100 200 l 1,10,-1
 300 200 l 1,11,-1
 300 800 l 1,0,-1
EndSplineSet
Substitution2: "'vrt2' +fiZm+DBNW1dfYjBoVt6O4m4IMH9lh1tX lookup 5 +MLUw1jDGMPww1jDr" uniFF29.vert
Substitution2: "'vert' Vertical Alternates lookup 3 +MLUw1jDGMPww1jDr" uniFF29.vert
Substitution2: "'aalt' +MFkweTBmMG51cE9TW1cweDBuMKIwrzC7MLkA lookup 0 +MLUw1jDGMPww1jDr" uniFF29.vert
EndChar

StartChar: uniFF2A
Encoding: 65322 65322 37
Width: 800
GlyphClass: 1
Flags: W
LayerCount: 2
Fore
SplineSet
500 200 m 1,0,-1
 500 1000 l 1,1,-1
 700 1000 l 1,2,-1
 700 100 l 1,3,-1
 600 100 l 1,4,-1
 600 0 l 1,5,-1
 100 0 l 1,6,-1
 100 100 l 1,7,-1
 0 100 l 1,8,-1
 0 400 l 1,9,-1
 200 400 l 1,10,-1
 200 200 l 1,11,-1
 500 200 l 1,0,-1
EndSplineSet
Substitution2: "'vrt2' +fiZm+DBNW1dfYjBoVt6O4m4IMH9lh1tX lookup 5 +MLUw1jDGMPww1jDr" uniFF2A.vert
Substitution2: "'vert' Vertical Alternates lookup 3 +MLUw1jDGMPww1jDr" uniFF2A.vert
Substitution2: "'aalt' +MFkweTBmMG51cE9TW1cweDBuMKIwrzC7MLkA lookup 0 +MLUw1jDGMPww1jDr" uniFF2A.vert
EndChar

StartChar: uniFF2B
Encoding: 65323 65323 38
Width: 800
GlyphClass: 1
Flags: W
LayerCount: 2
Fore
SplineSet
200 700 m 1,0,-1
 300 700 l 1,1,-1
 300 800 l 1,2,-1
 400 800 l 1,3,-1
 400 900 l 1,4,-1
 500 900 l 1,5,-1
 500 1000 l 1,6,-1
 700 1000 l 1,7,-1
 700 800 l 1,8,-1
 600 800 l 1,9,-1
 600 700 l 1,10,-1
 500 700 l 1,11,-1
 500 600 l 1,12,-1
 400 600 l 1,13,-1
 400 400 l 1,14,-1
 500 400 l 1,15,-1
 500 300 l 1,16,-1
 600 300 l 1,17,-1
 600 200 l 1,18,-1
 700 200 l 1,19,-1
 700 0 l 1,20,-1
 500 0 l 1,21,-1
 500 100 l 1,22,-1
 400 100 l 1,23,-1
 400 200 l 1,24,-1
 300 200 l 1,25,-1
 300 300 l 1,26,-1
 200 300 l 1,27,-1
 200 0 l 1,28,-1
 0 0 l 1,29,-1
 0 1000 l 1,30,-1
 200 1000 l 1,31,-1
 200 700 l 1,0,-1
EndSplineSet
Substitution2: "'vrt2' +fiZm+DBNW1dfYjBoVt6O4m4IMH9lh1tX lookup 5 +MLUw1jDGMPww1jDr" uniFF2B.vert
Substitution2: "'vert' Vertical Alternates lookup 3 +MLUw1jDGMPww1jDr" uniFF2B.vert
Substitution2: "'aalt' +MFkweTBmMG51cE9TW1cweDBuMKIwrzC7MLkA lookup 0 +MLUw1jDGMPww1jDr" uniFF2B.vert
EndChar

StartChar: uniFF2C
Encoding: 65324 65324 39
Width: 800
GlyphClass: 1
Flags: W
LayerCount: 2
Fore
SplineSet
200 200 m 1,0,-1
 700 200 l 1,1,-1
 700 0 l 1,2,-1
 0 0 l 1,3,-1
 0 1000 l 1,4,-1
 200 1000 l 1,5,-1
 200 200 l 1,0,-1
EndSplineSet
Substitution2: "'vrt2' +fiZm+DBNW1dfYjBoVt6O4m4IMH9lh1tX lookup 5 +MLUw1jDGMPww1jDr" uniFF2C.vert
Substitution2: "'vert' Vertical Alternates lookup 3 +MLUw1jDGMPww1jDr" uniFF2C.vert
Substitution2: "'aalt' +MFkweTBmMG51cE9TW1cweDBuMKIwrzC7MLkA lookup 0 +MLUw1jDGMPww1jDr" uniFF2C.vert
EndChar

StartChar: uniFF2D
Encoding: 65325 65325 40
Width: 800
GlyphClass: 1
Flags: W
LayerCount: 2
Fore
SplineSet
200 1000 m 1,0,-1
 200 900 l 1,1,-1
 300 900 l 1,2,-1
 300 800 l 1,3,-1
 400 800 l 1,4,-1
 400 900 l 1,5,-1
 500 900 l 1,6,-1
 500 1000 l 1,7,-1
 700 1000 l 1,8,-1
 700 0 l 1,9,-1
 500 0 l 1,10,-1
 500 600 l 1,11,-1
 400 600 l 1,12,-1
 400 500 l 1,13,-1
 300 500 l 1,14,-1
 300 600 l 1,15,-1
 200 600 l 1,16,-1
 200 0 l 1,17,-1
 0 0 l 1,18,-1
 0 1000 l 1,19,-1
 200 1000 l 1,0,-1
EndSplineSet
Substitution2: "'vrt2' +fiZm+DBNW1dfYjBoVt6O4m4IMH9lh1tX lookup 5 +MLUw1jDGMPww1jDr" uniFF2D.vert
Substitution2: "'vert' Vertical Alternates lookup 3 +MLUw1jDGMPww1jDr" uniFF2D.vert
Substitution2: "'aalt' +MFkweTBmMG51cE9TW1cweDBuMKIwrzC7MLkA lookup 0 +MLUw1jDGMPww1jDr" uniFF2D.vert
EndChar

StartChar: uniFF2E
Encoding: 65326 65326 41
Width: 800
GlyphClass: 1
Flags: W
LayerCount: 2
Fore
SplineSet
600 900 m 1,0,-1
 700 900 l 1,1,-1
 700 0 l 1,2,-1
 500 0 l 1,3,-1
 500 800 l 1,4,-1
 200 800 l 1,5,-1
 200 0 l 1,6,-1
 0 0 l 1,7,-1
 0 1000 l 1,8,-1
 600 1000 l 1,9,-1
 600 900 l 1,0,-1
EndSplineSet
Substitution2: "'vrt2' +fiZm+DBNW1dfYjBoVt6O4m4IMH9lh1tX lookup 5 +MLUw1jDGMPww1jDr" uniFF2E.vert
Substitution2: "'vert' Vertical Alternates lookup 3 +MLUw1jDGMPww1jDr" uniFF2E.vert
Substitution2: "'aalt' +MFkweTBmMG51cE9TW1cweDBuMKIwrzC7MLkA lookup 0 +MLUw1jDGMPww1jDr" uniFF2E.vert
EndChar

StartChar: uniFF2F
Encoding: 65327 65327 42
Width: 800
GlyphClass: 1
Flags: W
LayerCount: 2
Fore
SplineSet
100 1000 m 1,0,-1
 600 1000 l 1,1,-1
 600 900 l 1,2,-1
 700 900 l 1,3,-1
 700 100 l 1,4,-1
 600 100 l 1,5,-1
 600 0 l 1,6,-1
 100 0 l 1,7,-1
 100 100 l 1,8,-1
 0 100 l 1,9,-1
 0 900 l 1,10,-1
 100 900 l 1,11,-1
 100 1000 l 1,0,-1
500 200 m 1,12,-1
 500 800 l 1,13,-1
 200 800 l 1,14,-1
 200 200 l 1,15,-1
 500 200 l 1,12,-1
EndSplineSet
Substitution2: "'vrt2' +fiZm+DBNW1dfYjBoVt6O4m4IMH9lh1tX lookup 5 +MLUw1jDGMPww1jDr" uniFF2F.vert
Substitution2: "'vert' Vertical Alternates lookup 3 +MLUw1jDGMPww1jDr" uniFF2F.vert
Substitution2: "'aalt' +MFkweTBmMG51cE9TW1cweDBuMKIwrzC7MLkA lookup 0 +MLUw1jDGMPww1jDr" uniFF2F.vert
EndChar

StartChar: uniFF30
Encoding: 65328 65328 43
Width: 800
GlyphClass: 1
Flags: W
LayerCount: 2
Fore
SplineSet
600 900 m 1,0,-1
 700 900 l 1,1,-1
 700 400 l 1,2,-1
 600 400 l 1,3,-1
 600 300 l 1,4,-1
 200 300 l 1,5,-1
 200 0 l 1,6,-1
 0 0 l 1,7,-1
 0 1000 l 1,8,-1
 600 1000 l 1,9,-1
 600 900 l 1,0,-1
500 500 m 1,10,-1
 500 800 l 1,11,-1
 200 800 l 1,12,-1
 200 500 l 1,13,-1
 500 500 l 1,10,-1
EndSplineSet
Substitution2: "'vrt2' +fiZm+DBNW1dfYjBoVt6O4m4IMH9lh1tX lookup 5 +MLUw1jDGMPww1jDr" uniFF30.vert
Substitution2: "'vert' Vertical Alternates lookup 3 +MLUw1jDGMPww1jDr" uniFF30.vert
Substitution2: "'aalt' +MFkweTBmMG51cE9TW1cweDBuMKIwrzC7MLkA lookup 0 +MLUw1jDGMPww1jDr" uniFF30.vert
EndChar

StartChar: uniFF31
Encoding: 65329 65329 44
Width: 800
GlyphClass: 1
Flags: W
LayerCount: 2
Fore
SplineSet
100 1000 m 1,0,-1
 600 1000 l 1,1,-1
 600 900 l 1,2,-1
 700 900 l 1,3,-1
 700 300 l 1,4,-1
 600 300 l 1,5,-1
 600 200 l 1,6,-1
 700 200 l 1,7,-1
 700 0 l 1,8,-1
 500 0 l 1,9,-1
 500 100 l 1,10,-1
 400 100 l 1,11,-1
 400 0 l 1,12,-1
 100 0 l 1,13,-1
 100 100 l 1,14,-1
 0 100 l 1,15,-1
 0 900 l 1,16,-1
 100 900 l 1,17,-1
 100 1000 l 1,0,-1
400 200 m 1,18,-1
 400 300 l 1,19,-1
 500 300 l 1,20,-1
 500 800 l 1,21,-1
 200 800 l 1,22,-1
 200 200 l 1,23,-1
 400 200 l 1,18,-1
EndSplineSet
Substitution2: "'vrt2' +fiZm+DBNW1dfYjBoVt6O4m4IMH9lh1tX lookup 5 +MLUw1jDGMPww1jDr" uniFF31.vert
Substitution2: "'vert' Vertical Alternates lookup 3 +MLUw1jDGMPww1jDr" uniFF31.vert
Substitution2: "'aalt' +MFkweTBmMG51cE9TW1cweDBuMKIwrzC7MLkA lookup 0 +MLUw1jDGMPww1jDr" uniFF31.vert
EndChar

StartChar: uniFF32
Encoding: 65330 65330 45
Width: 800
GlyphClass: 1
Flags: W
LayerCount: 2
Fore
SplineSet
600 900 m 1,0,-1
 700 900 l 1,1,-1
 700 500 l 1,2,-1
 600 500 l 1,3,-1
 600 400 l 1,4,-1
 500 400 l 1,5,-1
 500 300 l 1,6,-1
 600 300 l 1,7,-1
 600 200 l 1,8,-1
 700 200 l 1,9,-1
 700 0 l 1,10,-1
 500 0 l 1,11,-1
 500 100 l 1,12,-1
 400 100 l 1,13,-1
 400 200 l 1,14,-1
 300 200 l 1,15,-1
 300 300 l 1,16,-1
 200 300 l 1,17,-1
 200 0 l 1,18,-1
 0 0 l 1,19,-1
 0 1000 l 1,20,-1
 600 1000 l 1,21,-1
 600 900 l 1,0,-1
400 500 m 1,22,-1
 400 600 l 1,23,-1
 500 600 l 1,24,-1
 500 800 l 1,25,-1
 200 800 l 1,26,-1
 200 500 l 1,27,-1
 400 500 l 1,22,-1
EndSplineSet
Substitution2: "'vrt2' +fiZm+DBNW1dfYjBoVt6O4m4IMH9lh1tX lookup 5 +MLUw1jDGMPww1jDr" uniFF32.vert
Substitution2: "'vert' Vertical Alternates lookup 3 +MLUw1jDGMPww1jDr" uniFF32.vert
Substitution2: "'aalt' +MFkweTBmMG51cE9TW1cweDBuMKIwrzC7MLkA lookup 0 +MLUw1jDGMPww1jDr" uniFF32.vert
EndChar

StartChar: uniFF33
Encoding: 65331 65331 46
Width: 800
GlyphClass: 1
Flags: W
LayerCount: 2
Fore
SplineSet
500 400 m 1,0,-1
 100 400 l 1,1,-1
 100 500 l 1,2,-1
 0 500 l 1,3,-1
 0 900 l 1,4,-1
 100 900 l 1,5,-1
 100 1000 l 1,6,-1
 700 1000 l 1,7,-1
 700 800 l 1,8,-1
 200 800 l 1,9,-1
 200 600 l 1,10,-1
 600 600 l 1,11,-1
 600 500 l 1,12,-1
 700 500 l 1,13,-1
 700 100 l 1,14,-1
 600 100 l 1,15,-1
 600 0 l 1,16,-1
 0 0 l 1,17,-1
 0 200 l 1,18,-1
 500 200 l 1,19,-1
 500 400 l 1,0,-1
EndSplineSet
Substitution2: "'vrt2' +fiZm+DBNW1dfYjBoVt6O4m4IMH9lh1tX lookup 5 +MLUw1jDGMPww1jDr" uniFF33.vert
Substitution2: "'vert' Vertical Alternates lookup 3 +MLUw1jDGMPww1jDr" uniFF33.vert
Substitution2: "'aalt' +MFkweTBmMG51cE9TW1cweDBuMKIwrzC7MLkA lookup 0 +MLUw1jDGMPww1jDr" uniFF33.vert
EndChar

StartChar: uniFF34
Encoding: 65332 65332 47
Width: 800
GlyphClass: 1
Flags: W
LayerCount: 2
Fore
SplineSet
700 800 m 1,0,-1
 500 800 l 1,1,-1
 500 0 l 1,2,-1
 300 0 l 1,3,-1
 300 800 l 1,4,-1
 0 800 l 1,5,-1
 0 1000 l 1,6,-1
 700 1000 l 1,7,-1
 700 800 l 1,0,-1
EndSplineSet
Substitution2: "'vrt2' +fiZm+DBNW1dfYjBoVt6O4m4IMH9lh1tX lookup 5 +MLUw1jDGMPww1jDr" uniFF34.vert
Substitution2: "'vert' Vertical Alternates lookup 3 +MLUw1jDGMPww1jDr" uniFF34.vert
Substitution2: "'aalt' +MFkweTBmMG51cE9TW1cweDBuMKIwrzC7MLkA lookup 0 +MLUw1jDGMPww1jDr" uniFF34.vert
EndChar

StartChar: uniFF35
Encoding: 65333 65333 48
Width: 800
GlyphClass: 1
Flags: W
LayerCount: 2
Fore
SplineSet
200 200 m 1,0,-1
 500 200 l 1,1,-1
 500 1000 l 1,2,-1
 700 1000 l 1,3,-1
 700 100 l 1,4,-1
 600 100 l 1,5,-1
 600 0 l 1,6,-1
 100 0 l 1,7,-1
 100 100 l 1,8,-1
 0 100 l 1,9,-1
 0 1000 l 1,10,-1
 200 1000 l 1,11,-1
 200 200 l 1,0,-1
EndSplineSet
Substitution2: "'vrt2' +fiZm+DBNW1dfYjBoVt6O4m4IMH9lh1tX lookup 5 +MLUw1jDGMPww1jDr" uniFF35.vert
Substitution2: "'vert' Vertical Alternates lookup 3 +MLUw1jDGMPww1jDr" uniFF35.vert
Substitution2: "'aalt' +MFkweTBmMG51cE9TW1cweDBuMKIwrzC7MLkA lookup 0 +MLUw1jDGMPww1jDr" uniFF35.vert
EndChar

StartChar: uniFF36
Encoding: 65334 65334 49
Width: 800
GlyphClass: 1
Flags: W
LayerCount: 2
Fore
SplineSet
200 500 m 1,0,-1
 300 500 l 1,1,-1
 300 300 l 1,2,-1
 400 300 l 1,3,-1
 400 500 l 1,4,-1
 500 500 l 1,5,-1
 500 1000 l 1,6,-1
 700 1000 l 1,7,-1
 700 400 l 1,8,-1
 600 400 l 1,9,-1
 600 200 l 1,10,-1
 500 200 l 1,11,-1
 500 0 l 1,12,-1
 200 0 l 1,13,-1
 200 200 l 1,14,-1
 100 200 l 1,15,-1
 100 400 l 1,16,-1
 0 400 l 1,17,-1
 0 1000 l 1,18,-1
 200 1000 l 1,19,-1
 200 500 l 1,0,-1
EndSplineSet
Substitution2: "'vrt2' +fiZm+DBNW1dfYjBoVt6O4m4IMH9lh1tX lookup 5 +MLUw1jDGMPww1jDr" uniFF36.vert
Substitution2: "'vert' Vertical Alternates lookup 3 +MLUw1jDGMPww1jDr" uniFF36.vert
Substitution2: "'aalt' +MFkweTBmMG51cE9TW1cweDBuMKIwrzC7MLkA lookup 0 +MLUw1jDGMPww1jDr" uniFF36.vert
EndChar

StartChar: uniFF37
Encoding: 65335 65335 50
Width: 800
GlyphClass: 1
Flags: W
LayerCount: 2
Fore
SplineSet
200 1000 m 1,0,-1
 200 400 l 1,1,-1
 300 400 l 1,2,-1
 300 500 l 1,3,-1
 400 500 l 1,4,-1
 400 400 l 1,5,-1
 500 400 l 1,6,-1
 500 1000 l 1,7,-1
 700 1000 l 1,8,-1
 700 0 l 1,9,-1
 500 0 l 1,10,-1
 500 100 l 1,11,-1
 400 100 l 1,12,-1
 400 200 l 1,13,-1
 300 200 l 1,14,-1
 300 100 l 1,15,-1
 200 100 l 1,16,-1
 200 0 l 1,17,-1
 0 0 l 1,18,-1
 0 1000 l 1,19,-1
 200 1000 l 1,0,-1
EndSplineSet
Substitution2: "'vrt2' +fiZm+DBNW1dfYjBoVt6O4m4IMH9lh1tX lookup 5 +MLUw1jDGMPww1jDr" uniFF37.vert
Substitution2: "'vert' Vertical Alternates lookup 3 +MLUw1jDGMPww1jDr" uniFF37.vert
Substitution2: "'aalt' +MFkweTBmMG51cE9TW1cweDBuMKIwrzC7MLkA lookup 0 +MLUw1jDGMPww1jDr" uniFF37.vert
EndChar

StartChar: uniFF38
Encoding: 65336 65336 51
Width: 800
GlyphClass: 1
Flags: W
LayerCount: 2
Fore
SplineSet
200 400 m 1,0,-1
 200 600 l 1,1,-1
 100 600 l 1,2,-1
 100 700 l 1,3,-1
 0 700 l 1,4,-1
 0 1000 l 1,5,-1
 200 1000 l 1,6,-1
 200 800 l 1,7,-1
 300 800 l 1,8,-1
 300 700 l 1,9,-1
 400 700 l 1,10,-1
 400 800 l 1,11,-1
 500 800 l 1,12,-1
 500 1000 l 1,13,-1
 700 1000 l 1,14,-1
 700 700 l 1,15,-1
 600 700 l 1,16,-1
 600 600 l 1,17,-1
 500 600 l 1,18,-1
 500 400 l 1,19,-1
 600 400 l 1,20,-1
 600 300 l 1,21,-1
 700 300 l 1,22,-1
 700 0 l 1,23,-1
 500 0 l 1,24,-1
 500 200 l 1,25,-1
 400 200 l 1,26,-1
 400 300 l 1,27,-1
 300 300 l 1,28,-1
 300 200 l 1,29,-1
 200 200 l 1,30,-1
 200 0 l 1,31,-1
 0 0 l 1,32,-1
 0 300 l 1,33,-1
 100 300 l 1,34,-1
 100 400 l 1,35,-1
 200 400 l 1,0,-1
EndSplineSet
Substitution2: "'vrt2' +fiZm+DBNW1dfYjBoVt6O4m4IMH9lh1tX lookup 5 +MLUw1jDGMPww1jDr" uniFF38.vert
Substitution2: "'vert' Vertical Alternates lookup 3 +MLUw1jDGMPww1jDr" uniFF38.vert
Substitution2: "'aalt' +MFkweTBmMG51cE9TW1cweDBuMKIwrzC7MLkA lookup 0 +MLUw1jDGMPww1jDr" uniFF38.vert
EndChar

StartChar: uniFF39
Encoding: 65337 65337 52
Width: 800
GlyphClass: 1
Flags: W
LayerCount: 2
Fore
SplineSet
200 600 m 1,0,-1
 300 600 l 1,1,-1
 300 500 l 1,2,-1
 400 500 l 1,3,-1
 400 600 l 1,4,-1
 500 600 l 1,5,-1
 500 1000 l 1,6,-1
 700 1000 l 1,7,-1
 700 500 l 1,8,-1
 600 500 l 1,9,-1
 600 400 l 1,10,-1
 500 400 l 1,11,-1
 500 0 l 1,12,-1
 200 0 l 1,13,-1
 200 400 l 1,14,-1
 100 400 l 1,15,-1
 100 500 l 1,16,-1
 0 500 l 1,17,-1
 0 1000 l 1,18,-1
 200 1000 l 1,19,-1
 200 600 l 1,0,-1
EndSplineSet
Substitution2: "'vrt2' +fiZm+DBNW1dfYjBoVt6O4m4IMH9lh1tX lookup 5 +MLUw1jDGMPww1jDr" uniFF39.vert
Substitution2: "'vert' Vertical Alternates lookup 3 +MLUw1jDGMPww1jDr" uniFF39.vert
Substitution2: "'aalt' +MFkweTBmMG51cE9TW1cweDBuMKIwrzC7MLkA lookup 0 +MLUw1jDGMPww1jDr" uniFF39.vert
EndChar

StartChar: uniFF3A
Encoding: 65338 65338 53
Width: 800
GlyphClass: 1
Flags: W
LayerCount: 2
Fore
SplineSet
100 500 m 1,0,-1
 200 500 l 1,1,-1
 200 600 l 1,2,-1
 300 600 l 1,3,-1
 300 700 l 1,4,-1
 400 700 l 1,5,-1
 400 800 l 1,6,-1
 0 800 l 1,7,-1
 0 1000 l 1,8,-1
 700 1000 l 1,9,-1
 700 700 l 1,10,-1
 600 700 l 1,11,-1
 600 600 l 1,12,-1
 500 600 l 1,13,-1
 500 500 l 1,14,-1
 400 500 l 1,15,-1
 400 400 l 1,16,-1
 300 400 l 1,17,-1
 300 300 l 1,18,-1
 200 300 l 1,19,-1
 200 200 l 1,20,-1
 700 200 l 1,21,-1
 700 0 l 1,22,-1
 0 0 l 1,23,-1
 0 400 l 1,24,-1
 100 400 l 1,25,-1
 100 500 l 1,0,-1
EndSplineSet
Substitution2: "'vrt2' +fiZm+DBNW1dfYjBoVt6O4m4IMH9lh1tX lookup 5 +MLUw1jDGMPww1jDr" uniFF3A.vert
Substitution2: "'vert' Vertical Alternates lookup 3 +MLUw1jDGMPww1jDr" uniFF3A.vert
Substitution2: "'aalt' +MFkweTBmMG51cE9TW1cweDBuMKIwrzC7MLkA lookup 0 +MLUw1jDGMPww1jDr" uniFF3A.vert
EndChar

StartChar: uniFF21.vert
Encoding: 65539 -1 56
Width: 1000
GlyphClass: 1
Flags: W
LayerCount: 2
Fore
SplineSet
600 600 m 1,0,-1
 600 900 l 1,1,-1
 300 900 l 1,2,-1
 300 600 l 1,3,-1
 600 600 l 1,0,-1
700 1000 m 1,4,-1
 800 1000 l 1,5,-1
 800 100 l 1,6,-1
 600 100 l 1,7,-1
 600 400 l 1,8,-1
 300 400 l 1,9,-1
 300 100 l 1,10,-1
 100 100 l 1,11,-1
 100 1000 l 1,12,-1
 200 1000 l 1,13,-1
 200 1100 l 1,14,-1
 700 1100 l 1,15,-1
 700 1000 l 1,4,-1
EndSplineSet
EndChar

StartChar: uniFF22.vert
Encoding: 65540 -1 57
Width: 1000
GlyphClass: 1
Flags: W
LayerCount: 2
Fore
SplineSet
700 1000 m 1,0,-1
 800 1000 l 1,1,-1
 800 700 l 1,2,-1
 700 700 l 1,3,-1
 700 500 l 1,4,-1
 800 500 l 1,5,-1
 800 200 l 1,6,-1
 700 200 l 1,7,-1
 700 100 l 1,8,-1
 100 100 l 1,9,-1
 100 1100 l 1,10,-1
 700 1100 l 1,11,-1
 700 1000 l 1,0,-1
600 300 m 1,12,-1
 600 500 l 1,13,-1
 300 500 l 1,14,-1
 300 300 l 1,15,-1
 600 300 l 1,12,-1
600 700 m 1,16,-1
 600 900 l 1,17,-1
 300 900 l 1,18,-1
 300 700 l 1,19,-1
 600 700 l 1,16,-1
EndSplineSet
EndChar

StartChar: uniFF23.vert
Encoding: 65541 -1 58
Width: 1000
GlyphClass: 1
Flags: W
LayerCount: 2
Fore
SplineSet
200 1100 m 1,0,-1
 700 1100 l 1,1,-1
 700 1000 l 1,2,-1
 800 1000 l 1,3,-1
 800 800 l 1,4,-1
 600 800 l 1,5,-1
 600 900 l 1,6,-1
 300 900 l 1,7,-1
 300 300 l 1,8,-1
 600 300 l 1,9,-1
 600 400 l 1,10,-1
 800 400 l 1,11,-1
 800 200 l 1,12,-1
 700 200 l 1,13,-1
 700 100 l 1,14,-1
 200 100 l 1,15,-1
 200 200 l 1,16,-1
 100 200 l 1,17,-1
 100 1000 l 1,18,-1
 200 1000 l 1,19,-1
 200 1100 l 1,0,-1
EndSplineSet
EndChar

StartChar: uniFF24.vert
Encoding: 65542 -1 59
Width: 1000
GlyphClass: 1
Flags: W
LayerCount: 2
Fore
SplineSet
700 1000 m 1,0,-1
 800 1000 l 1,1,-1
 800 200 l 1,2,-1
 700 200 l 1,3,-1
 700 100 l 1,4,-1
 100 100 l 1,5,-1
 100 1100 l 1,6,-1
 700 1100 l 1,7,-1
 700 1000 l 1,0,-1
600 300 m 1,8,-1
 600 900 l 1,9,-1
 300 900 l 1,10,-1
 300 300 l 1,11,-1
 600 300 l 1,8,-1
EndSplineSet
EndChar

StartChar: uniFF25.vert
Encoding: 65543 -1 60
Width: 1000
GlyphClass: 1
Flags: W
LayerCount: 2
Fore
SplineSet
800 900 m 1,0,-1
 300 900 l 1,1,-1
 300 700 l 1,2,-1
 700 700 l 1,3,-1
 700 500 l 1,4,-1
 300 500 l 1,5,-1
 300 300 l 1,6,-1
 800 300 l 1,7,-1
 800 100 l 1,8,-1
 100 100 l 1,9,-1
 100 1100 l 1,10,-1
 800 1100 l 1,11,-1
 800 900 l 1,0,-1
EndSplineSet
EndChar

StartChar: uniFF26.vert
Encoding: 65544 -1 61
Width: 1000
GlyphClass: 1
Flags: W
LayerCount: 2
Fore
SplineSet
800 900 m 1,0,-1
 300 900 l 1,1,-1
 300 700 l 1,2,-1
 800 700 l 1,3,-1
 800 500 l 1,4,-1
 300 500 l 1,5,-1
 300 100 l 1,6,-1
 100 100 l 1,7,-1
 100 1100 l 1,8,-1
 800 1100 l 1,9,-1
 800 900 l 1,0,-1
EndSplineSet
EndChar

StartChar: uniFF27.vert
Encoding: 65545 -1 62
Width: 1000
GlyphClass: 1
Flags: W
LayerCount: 2
Fore
SplineSet
200 1100 m 1,0,-1
 800 1100 l 1,1,-1
 800 900 l 1,2,-1
 300 900 l 1,3,-1
 300 300 l 1,4,-1
 600 300 l 1,5,-1
 600 700 l 1,6,-1
 800 700 l 1,7,-1
 800 100 l 1,8,-1
 200 100 l 1,9,-1
 200 200 l 1,10,-1
 100 200 l 1,11,-1
 100 1000 l 1,12,-1
 200 1000 l 1,13,-1
 200 1100 l 1,0,-1
EndSplineSet
EndChar

StartChar: uniFF28.vert
Encoding: 65546 -1 63
Width: 1000
GlyphClass: 1
Flags: W
LayerCount: 2
Fore
SplineSet
300 700 m 1,0,-1
 600 700 l 1,1,-1
 600 1100 l 1,2,-1
 800 1100 l 1,3,-1
 800 100 l 1,4,-1
 600 100 l 1,5,-1
 600 500 l 1,6,-1
 300 500 l 1,7,-1
 300 100 l 1,8,-1
 100 100 l 1,9,-1
 100 1100 l 1,10,-1
 300 1100 l 1,11,-1
 300 700 l 1,0,-1
EndSplineSet
EndChar

StartChar: uniFF29.vert
Encoding: 65547 -1 64
Width: 1000
GlyphClass: 1
Flags: W
LayerCount: 2
Fore
SplineSet
400 900 m 1,0,-1
 200 900 l 1,1,-1
 200 1100 l 1,2,-1
 800 1100 l 1,3,-1
 800 900 l 1,4,-1
 600 900 l 1,5,-1
 600 300 l 1,6,-1
 800 300 l 1,7,-1
 800 100 l 1,8,-1
 200 100 l 1,9,-1
 200 300 l 1,10,-1
 400 300 l 1,11,-1
 400 900 l 1,0,-1
EndSplineSet
EndChar

StartChar: uniFF2A.vert
Encoding: 65548 -1 65
Width: 1000
GlyphClass: 1
Flags: W
LayerCount: 2
Fore
SplineSet
600 300 m 1,0,-1
 600 1100 l 1,1,-1
 800 1100 l 1,2,-1
 800 200 l 1,3,-1
 700 200 l 1,4,-1
 700 100 l 1,5,-1
 200 100 l 1,6,-1
 200 200 l 1,7,-1
 100 200 l 1,8,-1
 100 500 l 1,9,-1
 300 500 l 1,10,-1
 300 300 l 1,11,-1
 600 300 l 1,0,-1
EndSplineSet
EndChar

StartChar: uniFF2B.vert
Encoding: 65549 -1 66
Width: 1000
GlyphClass: 1
Flags: W
LayerCount: 2
Fore
SplineSet
300 800 m 1,0,-1
 400 800 l 1,1,-1
 400 900 l 1,2,-1
 500 900 l 1,3,-1
 500 1000 l 1,4,-1
 600 1000 l 1,5,-1
 600 1100 l 1,6,-1
 800 1100 l 1,7,-1
 800 900 l 1,8,-1
 700 900 l 1,9,-1
 700 800 l 1,10,-1
 600 800 l 1,11,-1
 600 700 l 1,12,-1
 500 700 l 1,13,-1
 500 500 l 1,14,-1
 600 500 l 1,15,-1
 600 400 l 1,16,-1
 700 400 l 1,17,-1
 700 300 l 1,18,-1
 800 300 l 1,19,-1
 800 100 l 1,20,-1
 600 100 l 1,21,-1
 600 200 l 1,22,-1
 500 200 l 1,23,-1
 500 300 l 1,24,-1
 400 300 l 1,25,-1
 400 400 l 1,26,-1
 300 400 l 1,27,-1
 300 100 l 1,28,-1
 100 100 l 1,29,-1
 100 1100 l 1,30,-1
 300 1100 l 1,31,-1
 300 800 l 1,0,-1
EndSplineSet
EndChar

StartChar: uniFF2C.vert
Encoding: 65550 -1 67
Width: 1000
GlyphClass: 1
Flags: W
LayerCount: 2
Fore
SplineSet
300 300 m 1,0,-1
 800 300 l 1,1,-1
 800 100 l 1,2,-1
 100 100 l 1,3,-1
 100 1100 l 1,4,-1
 300 1100 l 1,5,-1
 300 300 l 1,0,-1
EndSplineSet
EndChar

StartChar: uniFF2D.vert
Encoding: 65551 -1 68
Width: 1000
GlyphClass: 1
Flags: W
LayerCount: 2
Fore
SplineSet
300 1100 m 1,0,-1
 300 1000 l 1,1,-1
 400 1000 l 1,2,-1
 400 900 l 1,3,-1
 500 900 l 1,4,-1
 500 1000 l 1,5,-1
 600 1000 l 1,6,-1
 600 1100 l 1,7,-1
 800 1100 l 1,8,-1
 800 100 l 1,9,-1
 600 100 l 1,10,-1
 600 700 l 1,11,-1
 500 700 l 1,12,-1
 500 600 l 1,13,-1
 400 600 l 1,14,-1
 400 700 l 1,15,-1
 300 700 l 1,16,-1
 300 100 l 1,17,-1
 100 100 l 1,18,-1
 100 1100 l 1,19,-1
 300 1100 l 1,0,-1
EndSplineSet
EndChar

StartChar: uniFF2E.vert
Encoding: 65552 -1 69
Width: 1000
GlyphClass: 1
Flags: W
LayerCount: 2
Fore
SplineSet
700 1000 m 1,0,-1
 800 1000 l 1,1,-1
 800 100 l 1,2,-1
 600 100 l 1,3,-1
 600 900 l 1,4,-1
 300 900 l 1,5,-1
 300 100 l 1,6,-1
 100 100 l 1,7,-1
 100 1100 l 1,8,-1
 700 1100 l 1,9,-1
 700 1000 l 1,0,-1
EndSplineSet
EndChar

StartChar: uniFF2F.vert
Encoding: 65553 -1 70
Width: 1000
GlyphClass: 1
Flags: W
LayerCount: 2
Fore
SplineSet
200 1100 m 1,0,-1
 700 1100 l 1,1,-1
 700 1000 l 1,2,-1
 800 1000 l 1,3,-1
 800 200 l 1,4,-1
 700 200 l 1,5,-1
 700 100 l 1,6,-1
 200 100 l 1,7,-1
 200 200 l 1,8,-1
 100 200 l 1,9,-1
 100 1000 l 1,10,-1
 200 1000 l 1,11,-1
 200 1100 l 1,0,-1
600 300 m 1,12,-1
 600 900 l 1,13,-1
 300 900 l 1,14,-1
 300 300 l 1,15,-1
 600 300 l 1,12,-1
EndSplineSet
EndChar

StartChar: uniFF30.vert
Encoding: 65554 -1 71
Width: 1000
GlyphClass: 1
Flags: W
LayerCount: 2
Fore
SplineSet
700 1000 m 1,0,-1
 800 1000 l 1,1,-1
 800 500 l 1,2,-1
 700 500 l 1,3,-1
 700 400 l 1,4,-1
 300 400 l 1,5,-1
 300 100 l 1,6,-1
 100 100 l 1,7,-1
 100 1100 l 1,8,-1
 700 1100 l 1,9,-1
 700 1000 l 1,0,-1
600 600 m 1,10,-1
 600 900 l 1,11,-1
 300 900 l 1,12,-1
 300 600 l 1,13,-1
 600 600 l 1,10,-1
EndSplineSet
EndChar

StartChar: uniFF31.vert
Encoding: 65555 -1 72
Width: 1000
GlyphClass: 1
Flags: W
LayerCount: 2
Fore
SplineSet
200 1100 m 1,0,-1
 700 1100 l 1,1,-1
 700 1000 l 1,2,-1
 800 1000 l 1,3,-1
 800 400 l 1,4,-1
 700 400 l 1,5,-1
 700 300 l 1,6,-1
 800 300 l 1,7,-1
 800 100 l 1,8,-1
 600 100 l 1,9,-1
 600 200 l 1,10,-1
 500 200 l 1,11,-1
 500 100 l 1,12,-1
 200 100 l 1,13,-1
 200 200 l 1,14,-1
 100 200 l 1,15,-1
 100 1000 l 1,16,-1
 200 1000 l 1,17,-1
 200 1100 l 1,0,-1
500 300 m 1,18,-1
 500 400 l 1,19,-1
 600 400 l 1,20,-1
 600 900 l 1,21,-1
 300 900 l 1,22,-1
 300 300 l 1,23,-1
 500 300 l 1,18,-1
EndSplineSet
EndChar

StartChar: uniFF32.vert
Encoding: 65556 -1 73
Width: 1000
GlyphClass: 1
Flags: W
LayerCount: 2
Fore
SplineSet
700 1000 m 1,0,-1
 800 1000 l 1,1,-1
 800 600 l 1,2,-1
 700 600 l 1,3,-1
 700 500 l 1,4,-1
 600 500 l 1,5,-1
 600 400 l 1,6,-1
 700 400 l 1,7,-1
 700 300 l 1,8,-1
 800 300 l 1,9,-1
 800 100 l 1,10,-1
 600 100 l 1,11,-1
 600 200 l 1,12,-1
 500 200 l 1,13,-1
 500 300 l 1,14,-1
 400 300 l 1,15,-1
 400 400 l 1,16,-1
 300 400 l 1,17,-1
 300 100 l 1,18,-1
 100 100 l 1,19,-1
 100 1100 l 1,20,-1
 700 1100 l 1,21,-1
 700 1000 l 1,0,-1
500 600 m 1,22,-1
 500 700 l 1,23,-1
 600 700 l 1,24,-1
 600 900 l 1,25,-1
 300 900 l 1,26,-1
 300 600 l 1,27,-1
 500 600 l 1,22,-1
EndSplineSet
EndChar

StartChar: uniFF33.vert
Encoding: 65557 -1 74
Width: 1000
GlyphClass: 1
Flags: W
LayerCount: 2
Fore
SplineSet
600 500 m 1,0,-1
 200 500 l 1,1,-1
 200 600 l 1,2,-1
 100 600 l 1,3,-1
 100 1000 l 1,4,-1
 200 1000 l 1,5,-1
 200 1100 l 1,6,-1
 800 1100 l 1,7,-1
 800 900 l 1,8,-1
 300 900 l 1,9,-1
 300 700 l 1,10,-1
 700 700 l 1,11,-1
 700 600 l 1,12,-1
 800 600 l 1,13,-1
 800 200 l 1,14,-1
 700 200 l 1,15,-1
 700 100 l 1,16,-1
 100 100 l 1,17,-1
 100 300 l 1,18,-1
 600 300 l 1,19,-1
 600 500 l 1,0,-1
EndSplineSet
EndChar

StartChar: uniFF34.vert
Encoding: 65558 -1 75
Width: 1000
GlyphClass: 1
Flags: W
LayerCount: 2
Fore
SplineSet
900 900 m 1,0,-1
 600 900 l 1,1,-1
 600 100 l 1,2,-1
 400 100 l 1,3,-1
 400 900 l 1,4,-1
 100 900 l 1,5,-1
 100 1100 l 1,6,-1
 900 1100 l 1,7,-1
 900 900 l 1,0,-1
EndSplineSet
EndChar

StartChar: uniFF35.vert
Encoding: 65559 -1 76
Width: 1000
GlyphClass: 1
Flags: W
LayerCount: 2
Fore
SplineSet
300 300 m 1,0,-1
 600 300 l 1,1,-1
 600 1100 l 1,2,-1
 800 1100 l 1,3,-1
 800 200 l 1,4,-1
 700 200 l 1,5,-1
 700 100 l 1,6,-1
 200 100 l 1,7,-1
 200 200 l 1,8,-1
 100 200 l 1,9,-1
 100 1100 l 1,10,-1
 300 1100 l 1,11,-1
 300 300 l 1,0,-1
EndSplineSet
EndChar

StartChar: uniFF36.vert
Encoding: 65560 -1 77
Width: 1000
GlyphClass: 1
Flags: W
LayerCount: 2
Fore
SplineSet
300 600 m 1,0,-1
 400 600 l 1,1,-1
 400 400 l 1,2,-1
 500 400 l 1,3,-1
 500 600 l 1,4,-1
 600 600 l 1,5,-1
 600 1100 l 1,6,-1
 800 1100 l 1,7,-1
 800 500 l 1,8,-1
 700 500 l 1,9,-1
 700 300 l 1,10,-1
 600 300 l 1,11,-1
 600 100 l 1,12,-1
 300 100 l 1,13,-1
 300 300 l 1,14,-1
 200 300 l 1,15,-1
 200 500 l 1,16,-1
 100 500 l 1,17,-1
 100 1100 l 1,18,-1
 300 1100 l 1,19,-1
 300 600 l 1,0,-1
EndSplineSet
EndChar

StartChar: uniFF37.vert
Encoding: 65561 -1 78
Width: 1000
GlyphClass: 1
Flags: W
LayerCount: 2
Fore
SplineSet
300 1100 m 1,0,-1
 300 500 l 1,1,-1
 400 500 l 1,2,-1
 400 600 l 1,3,-1
 500 600 l 1,4,-1
 500 500 l 1,5,-1
 600 500 l 1,6,-1
 600 1100 l 1,7,-1
 800 1100 l 1,8,-1
 800 100 l 1,9,-1
 600 100 l 1,10,-1
 600 200 l 1,11,-1
 500 200 l 1,12,-1
 500 300 l 1,13,-1
 400 300 l 1,14,-1
 400 200 l 1,15,-1
 300 200 l 1,16,-1
 300 100 l 1,17,-1
 100 100 l 1,18,-1
 100 1100 l 1,19,-1
 300 1100 l 1,0,-1
EndSplineSet
EndChar

StartChar: uniFF38.vert
Encoding: 65562 -1 79
Width: 1000
GlyphClass: 1
Flags: W
LayerCount: 2
Fore
SplineSet
300 500 m 1,0,-1
 300 700 l 1,1,-1
 200 700 l 1,2,-1
 200 800 l 1,3,-1
 100 800 l 1,4,-1
 100 1100 l 1,5,-1
 300 1100 l 1,6,-1
 300 900 l 1,7,-1
 400 900 l 1,8,-1
 400 800 l 1,9,-1
 500 800 l 1,10,-1
 500 900 l 1,11,-1
 600 900 l 1,12,-1
 600 1100 l 1,13,-1
 800 1100 l 1,14,-1
 800 800 l 1,15,-1
 700 800 l 1,16,-1
 700 700 l 1,17,-1
 600 700 l 1,18,-1
 600 500 l 1,19,-1
 700 500 l 1,20,-1
 700 400 l 1,21,-1
 800 400 l 1,22,-1
 800 100 l 1,23,-1
 600 100 l 1,24,-1
 600 300 l 1,25,-1
 500 300 l 1,26,-1
 500 400 l 1,27,-1
 400 400 l 1,28,-1
 400 300 l 1,29,-1
 300 300 l 1,30,-1
 300 100 l 1,31,-1
 100 100 l 1,32,-1
 100 400 l 1,33,-1
 200 400 l 1,34,-1
 200 500 l 1,35,-1
 300 500 l 1,0,-1
EndSplineSet
EndChar

StartChar: uniFF39.vert
Encoding: 65563 -1 80
Width: 1000
GlyphClass: 1
Flags: W
LayerCount: 2
Fore
SplineSet
300 700 m 1,0,-1
 400 700 l 1,1,-1
 400 600 l 1,2,-1
 500 600 l 1,3,-1
 500 700 l 1,4,-1
 600 700 l 1,5,-1
 600 1100 l 1,6,-1
 800 1100 l 1,7,-1
 800 600 l 1,8,-1
 700 600 l 1,9,-1
 700 500 l 1,10,-1
 600 500 l 1,11,-1
 600 100 l 1,12,-1
 300 100 l 1,13,-1
 300 500 l 1,14,-1
 200 500 l 1,15,-1
 200 600 l 1,16,-1
 100 600 l 1,17,-1
 100 1100 l 1,18,-1
 300 1100 l 1,19,-1
 300 700 l 1,0,-1
EndSplineSet
EndChar

StartChar: uniFF3A.vert
Encoding: 65564 -1 81
Width: 1000
GlyphClass: 1
Flags: W
LayerCount: 2
Fore
SplineSet
200 600 m 1,0,-1
 300 600 l 1,1,-1
 300 700 l 1,2,-1
 400 700 l 1,3,-1
 400 800 l 1,4,-1
 500 800 l 1,5,-1
 500 900 l 1,6,-1
 100 900 l 1,7,-1
 100 1100 l 1,8,-1
 800 1100 l 1,9,-1
 800 800 l 1,10,-1
 700 800 l 1,11,-1
 700 700 l 1,12,-1
 600 700 l 1,13,-1
 600 600 l 1,14,-1
 500 600 l 1,15,-1
 500 500 l 1,16,-1
 400 500 l 1,17,-1
 400 400 l 1,18,-1
 300 400 l 1,19,-1
 300 300 l 1,20,-1
 800 300 l 1,21,-1
 800 100 l 1,22,-1
 100 100 l 1,23,-1
 100 500 l 1,24,-1
 200 500 l 1,25,-1
 200 600 l 1,0,-1
EndSplineSet
EndChar

StartChar: a
Encoding: 97 97 82
Width: 700
GlyphClass: 1
Flags: W
LayerCount: 2
Fore
SplineSet
600 700 m 1,0,-1
 600 0 l 1,1,-1
 100 0 l 1,2,-1
 100 100 l 1,3,-1
 0 100 l 1,4,-1
 0 400 l 1,5,-1
 100 400 l 1,6,-1
 100 500 l 1,7,-1
 400 500 l 1,8,-1
 400 600 l 1,9,-1
 0 600 l 1,10,-1
 0 800 l 1,11,-1
 500 800 l 1,12,-1
 500 700 l 1,13,-1
 600 700 l 1,0,-1
200 300 m 1,14,-1
 200 200 l 1,15,-1
 400 200 l 1,16,-1
 400 300 l 1,17,-1
 200 300 l 1,14,-1
EndSplineSet
Substitution2: "'fwid' +UWiJ0gAA lookup 2 +MLUw1jDGMPww1jDr" uniFF41
Substitution2: "'aalt' +MFkweTBmMG51cE9TW1cweDBuMKIwrzC7MLkA lookup 0 +MLUw1jDGMPww1jDr" uniFF41
EndChar

StartChar: b
Encoding: 98 98 83
Width: 700
GlyphClass: 1
Flags: W
LayerCount: 2
Fore
SplineSet
200 1000 m 1,0,-1
 200 800 l 1,1,-1
 500 800 l 1,2,-1
 500 700 l 1,3,-1
 600 700 l 1,4,-1
 600 100 l 1,5,-1
 500 100 l 1,6,-1
 500 0 l 1,7,-1
 0 0 l 1,8,-1
 0 1000 l 1,9,-1
 200 1000 l 1,0,-1
400 200 m 1,10,-1
 400 600 l 1,11,-1
 200 600 l 1,12,-1
 200 200 l 1,13,-1
 400 200 l 1,10,-1
EndSplineSet
Substitution2: "'fwid' +UWiJ0gAA lookup 2 +MLUw1jDGMPww1jDr" uniFF42
Substitution2: "'aalt' +MFkweTBmMG51cE9TW1cweDBuMKIwrzC7MLkA lookup 0 +MLUw1jDGMPww1jDr" uniFF42
EndChar

StartChar: c
Encoding: 99 99 84
Width: 600
GlyphClass: 1
Flags: W
LayerCount: 2
Fore
SplineSet
0 100 m 1,0,-1
 0 700 l 1,1,-1
 100 700 l 1,2,-1
 100 800 l 1,3,-1
 500 800 l 1,4,-1
 500 600 l 1,5,-1
 200 600 l 1,6,-1
 200 200 l 1,7,-1
 500 200 l 1,8,-1
 500 0 l 1,9,-1
 100 0 l 1,10,-1
 100 100 l 1,11,-1
 0 100 l 1,0,-1
EndSplineSet
Substitution2: "'fwid' +UWiJ0gAA lookup 2 +MLUw1jDGMPww1jDr" uniFF43
Substitution2: "'aalt' +MFkweTBmMG51cE9TW1cweDBuMKIwrzC7MLkA lookup 0 +MLUw1jDGMPww1jDr" uniFF43
EndChar

StartChar: d
Encoding: 100 100 85
Width: 700
GlyphClass: 1
Flags: W
LayerCount: 2
Fore
SplineSet
100 0 m 1,0,-1
 100 100 l 1,1,-1
 0 100 l 1,2,-1
 0 700 l 1,3,-1
 100 700 l 1,4,-1
 100 800 l 1,5,-1
 400 800 l 1,6,-1
 400 1000 l 1,7,-1
 600 1000 l 1,8,-1
 600 0 l 1,9,-1
 100 0 l 1,0,-1
400 600 m 1,10,-1
 200 600 l 1,11,-1
 200 200 l 1,12,-1
 400 200 l 1,13,-1
 400 600 l 1,10,-1
EndSplineSet
Substitution2: "'fwid' +UWiJ0gAA lookup 2 +MLUw1jDGMPww1jDr" uniFF44
Substitution2: "'aalt' +MFkweTBmMG51cE9TW1cweDBuMKIwrzC7MLkA lookup 0 +MLUw1jDGMPww1jDr" uniFF44
EndChar

StartChar: e
Encoding: 101 101 86
Width: 700
GlyphClass: 1
Flags: W
LayerCount: 2
Fore
SplineSet
0 100 m 1,0,-1
 0 700 l 1,1,-1
 100 700 l 1,2,-1
 100 800 l 1,3,-1
 500 800 l 1,4,-1
 500 700 l 1,5,-1
 600 700 l 1,6,-1
 600 300 l 1,7,-1
 200 300 l 1,8,-1
 200 200 l 1,9,-1
 600 200 l 1,10,-1
 600 0 l 1,11,-1
 100 0 l 1,12,-1
 100 100 l 1,13,-1
 0 100 l 1,0,-1
400 500 m 1,14,-1
 400 600 l 1,15,-1
 200 600 l 1,16,-1
 200 500 l 1,17,-1
 400 500 l 1,14,-1
EndSplineSet
Substitution2: "'fwid' +UWiJ0gAA lookup 2 +MLUw1jDGMPww1jDr" uniFF45
Substitution2: "'aalt' +MFkweTBmMG51cE9TW1cweDBuMKIwrzC7MLkA lookup 0 +MLUw1jDGMPww1jDr" uniFF45
EndChar

StartChar: f
Encoding: 102 102 87
Width: 500
GlyphClass: 1
Flags: W
LayerCount: 2
Fore
SplineSet
100 700 m 1,0,-1
 100 900 l 1,1,-1
 200 900 l 1,2,-1
 200 1000 l 1,3,-1
 400 1000 l 1,4,-1
 400 800 l 1,5,-1
 300 800 l 1,6,-1
 300 700 l 1,7,-1
 400 700 l 1,8,-1
 400 500 l 1,9,-1
 300 500 l 1,10,-1
 300 0 l 1,11,-1
 100 0 l 1,12,-1
 100 500 l 1,13,-1
 0 500 l 1,14,-1
 0 700 l 1,15,-1
 100 700 l 1,0,-1
EndSplineSet
Substitution2: "'fwid' +UWiJ0gAA lookup 2 +MLUw1jDGMPww1jDr" uniFF46
Substitution2: "'aalt' +MFkweTBmMG51cE9TW1cweDBuMKIwrzC7MLkA lookup 0 +MLUw1jDGMPww1jDr" uniFF46
EndChar

StartChar: g
Encoding: 103 103 88
Width: 700
GlyphClass: 1
Flags: W
LayerCount: 2
Fore
SplineSet
500 0 m 1,0,-1
 500 -100 l 1,1,-1
 100 -100 l 1,2,-1
 100 100 l 1,3,-1
 400 100 l 1,4,-1
 400 200 l 1,5,-1
 100 200 l 1,6,-1
 100 300 l 1,7,-1
 0 300 l 1,8,-1
 0 700 l 1,9,-1
 100 700 l 1,10,-1
 100 800 l 1,11,-1
 600 800 l 1,12,-1
 600 0 l 1,13,-1
 500 0 l 1,0,-1
200 600 m 1,14,-1
 200 400 l 1,15,-1
 400 400 l 1,16,-1
 400 600 l 1,17,-1
 200 600 l 1,14,-1
EndSplineSet
Substitution2: "'fwid' +UWiJ0gAA lookup 2 +MLUw1jDGMPww1jDr" uniFF47
Substitution2: "'aalt' +MFkweTBmMG51cE9TW1cweDBuMKIwrzC7MLkA lookup 0 +MLUw1jDGMPww1jDr" uniFF47
EndChar

StartChar: h
Encoding: 104 104 89
Width: 700
GlyphClass: 1
Flags: W
LayerCount: 2
Fore
SplineSet
200 1000 m 1,0,-1
 200 800 l 1,1,-1
 500 800 l 1,2,-1
 500 700 l 1,3,-1
 600 700 l 1,4,-1
 600 0 l 1,5,-1
 400 0 l 1,6,-1
 400 600 l 1,7,-1
 200 600 l 1,8,-1
 200 0 l 1,9,-1
 0 0 l 1,10,-1
 0 1000 l 1,11,-1
 200 1000 l 1,0,-1
EndSplineSet
Substitution2: "'fwid' +UWiJ0gAA lookup 2 +MLUw1jDGMPww1jDr" uniFF48
Substitution2: "'aalt' +MFkweTBmMG51cE9TW1cweDBuMKIwrzC7MLkA lookup 0 +MLUw1jDGMPww1jDr" uniFF48
EndChar

StartChar: i
Encoding: 105 105 90
Width: 300
GlyphClass: 1
Flags: W
LayerCount: 2
Fore
SplineSet
200 1000 m 1,0,-1
 200 800 l 1,1,-1
 0 800 l 1,2,-1
 0 1000 l 1,3,-1
 200 1000 l 1,0,-1
200 700 m 1,4,-1
 200 0 l 1,5,-1
 0 0 l 1,6,-1
 0 700 l 1,7,-1
 200 700 l 1,4,-1
EndSplineSet
Substitution2: "'fwid' +UWiJ0gAA lookup 2 +MLUw1jDGMPww1jDr" uniFF49
Substitution2: "'aalt' +MFkweTBmMG51cE9TW1cweDBuMKIwrzC7MLkA lookup 0 +MLUw1jDGMPww1jDr" uniFF49
EndChar

StartChar: j
Encoding: 106 106 91
Width: 400
GlyphClass: 1
Flags: W
LayerCount: 2
Fore
SplineSet
300 1000 m 1,0,-1
 300 800 l 1,1,-1
 100 800 l 1,2,-1
 100 1000 l 1,3,-1
 300 1000 l 1,0,-1
300 700 m 1,4,-1
 300 0 l 1,5,-1
 200 0 l 1,6,-1
 200 -100 l 1,7,-1
 0 -100 l 1,8,-1
 0 100 l 1,9,-1
 100 100 l 1,10,-1
 100 700 l 1,11,-1
 300 700 l 1,4,-1
EndSplineSet
Substitution2: "'fwid' +UWiJ0gAA lookup 2 +MLUw1jDGMPww1jDr" uniFF4A
Substitution2: "'aalt' +MFkweTBmMG51cE9TW1cweDBuMKIwrzC7MLkA lookup 0 +MLUw1jDGMPww1jDr" uniFF4A
EndChar

StartChar: k
Encoding: 107 107 92
Width: 700
GlyphClass: 1
Flags: W
LayerCount: 2
Fore
SplineSet
200 1000 m 1,0,-1
 200 600 l 1,1,-1
 300 600 l 1,2,-1
 300 700 l 1,3,-1
 400 700 l 1,4,-1
 400 800 l 1,5,-1
 600 800 l 1,6,-1
 600 600 l 1,7,-1
 500 600 l 1,8,-1
 500 500 l 1,9,-1
 400 500 l 1,10,-1
 400 300 l 1,11,-1
 500 300 l 1,12,-1
 500 200 l 1,13,-1
 600 200 l 1,14,-1
 600 0 l 1,15,-1
 400 0 l 1,16,-1
 400 100 l 1,17,-1
 300 100 l 1,18,-1
 300 200 l 1,19,-1
 200 200 l 1,20,-1
 200 0 l 1,21,-1
 0 0 l 1,22,-1
 0 1000 l 1,23,-1
 200 1000 l 1,0,-1
EndSplineSet
Substitution2: "'fwid' +UWiJ0gAA lookup 2 +MLUw1jDGMPww1jDr" uniFF4B
Substitution2: "'aalt' +MFkweTBmMG51cE9TW1cweDBuMKIwrzC7MLkA lookup 0 +MLUw1jDGMPww1jDr" uniFF4B
EndChar

StartChar: l
Encoding: 108 108 93
Width: 300
GlyphClass: 1
Flags: W
LayerCount: 2
Fore
SplineSet
200 1000 m 1,0,-1
 200 0 l 1,1,-1
 0 0 l 1,2,-1
 0 1000 l 1,3,-1
 200 1000 l 1,0,-1
EndSplineSet
Substitution2: "'fwid' +UWiJ0gAA lookup 2 +MLUw1jDGMPww1jDr" uniFF4C
Substitution2: "'aalt' +MFkweTBmMG51cE9TW1cweDBuMKIwrzC7MLkA lookup 0 +MLUw1jDGMPww1jDr" uniFF4C
EndChar

StartChar: m
Encoding: 109 109 94
Width: 900
GlyphClass: 1
Flags: W
LayerCount: 2
Fore
SplineSet
700 800 m 1,0,-1
 700 700 l 1,1,-1
 800 700 l 1,2,-1
 800 0 l 1,3,-1
 600 0 l 1,4,-1
 600 600 l 1,5,-1
 500 600 l 1,6,-1
 500 0 l 1,7,-1
 300 0 l 1,8,-1
 300 600 l 1,9,-1
 200 600 l 1,10,-1
 200 0 l 1,11,-1
 0 0 l 1,12,-1
 0 800 l 1,13,-1
 700 800 l 1,0,-1
EndSplineSet
Substitution2: "'fwid' +UWiJ0gAA lookup 2 +MLUw1jDGMPww1jDr" uniFF4D
Substitution2: "'aalt' +MFkweTBmMG51cE9TW1cweDBuMKIwrzC7MLkA lookup 0 +MLUw1jDGMPww1jDr" uniFF4D
EndChar

StartChar: n
Encoding: 110 110 95
Width: 700
GlyphClass: 1
Flags: W
LayerCount: 2
Fore
SplineSet
500 800 m 1,0,-1
 500 700 l 1,1,-1
 600 700 l 1,2,-1
 600 0 l 1,3,-1
 400 0 l 1,4,-1
 400 600 l 1,5,-1
 200 600 l 1,6,-1
 200 0 l 1,7,-1
 0 0 l 1,8,-1
 0 800 l 1,9,-1
 500 800 l 1,0,-1
EndSplineSet
Substitution2: "'fwid' +UWiJ0gAA lookup 2 +MLUw1jDGMPww1jDr" uniFF4E
Substitution2: "'aalt' +MFkweTBmMG51cE9TW1cweDBuMKIwrzC7MLkA lookup 0 +MLUw1jDGMPww1jDr" uniFF4E
EndChar

StartChar: o
Encoding: 111 111 96
Width: 700
GlyphClass: 1
Flags: W
LayerCount: 2
Fore
SplineSet
0 100 m 1,0,-1
 0 700 l 1,1,-1
 100 700 l 1,2,-1
 100 800 l 1,3,-1
 500 800 l 1,4,-1
 500 700 l 1,5,-1
 600 700 l 1,6,-1
 600 100 l 1,7,-1
 500 100 l 1,8,-1
 500 0 l 1,9,-1
 100 0 l 1,10,-1
 100 100 l 1,11,-1
 0 100 l 1,0,-1
400 200 m 1,12,-1
 400 600 l 1,13,-1
 200 600 l 1,14,-1
 200 200 l 1,15,-1
 400 200 l 1,12,-1
EndSplineSet
Substitution2: "'fwid' +UWiJ0gAA lookup 2 +MLUw1jDGMPww1jDr" uniFF4F
Substitution2: "'aalt' +MFkweTBmMG51cE9TW1cweDBuMKIwrzC7MLkA lookup 0 +MLUw1jDGMPww1jDr" uniFF4F
EndChar

StartChar: p
Encoding: 112 112 97
Width: 700
GlyphClass: 1
Flags: W
LayerCount: 2
Fore
SplineSet
500 800 m 1,0,-1
 500 700 l 1,1,-1
 600 700 l 1,2,-1
 600 200 l 1,3,-1
 500 200 l 1,4,-1
 500 100 l 1,5,-1
 300 100 l 1,6,-1
 300 300 l 1,7,-1
 400 300 l 1,8,-1
 400 600 l 1,9,-1
 200 600 l 1,10,-1
 200 -100 l 1,11,-1
 0 -100 l 1,12,-1
 0 800 l 1,13,-1
 500 800 l 1,0,-1
EndSplineSet
Substitution2: "'fwid' +UWiJ0gAA lookup 2 +MLUw1jDGMPww1jDr" uniFF50
Substitution2: "'aalt' +MFkweTBmMG51cE9TW1cweDBuMKIwrzC7MLkA lookup 0 +MLUw1jDGMPww1jDr" uniFF50
EndChar

StartChar: q
Encoding: 113 113 98
Width: 700
GlyphClass: 1
Flags: W
LayerCount: 2
Fore
SplineSet
400 -100 m 1,0,-1
 400 600 l 1,1,-1
 200 600 l 1,2,-1
 200 300 l 1,3,-1
 300 300 l 1,4,-1
 300 100 l 1,5,-1
 100 100 l 1,6,-1
 100 200 l 1,7,-1
 0 200 l 1,8,-1
 0 700 l 1,9,-1
 100 700 l 1,10,-1
 100 800 l 1,11,-1
 600 800 l 1,12,-1
 600 -100 l 1,13,-1
 400 -100 l 1,0,-1
EndSplineSet
Substitution2: "'fwid' +UWiJ0gAA lookup 2 +MLUw1jDGMPww1jDr" uniFF51
Substitution2: "'aalt' +MFkweTBmMG51cE9TW1cweDBuMKIwrzC7MLkA lookup 0 +MLUw1jDGMPww1jDr" uniFF51
EndChar

StartChar: r
Encoding: 114 114 99
Width: 600
GlyphClass: 1
Flags: W
LayerCount: 2
Fore
SplineSet
200 800 m 1,0,-1
 200 700 l 1,1,-1
 300 700 l 1,2,-1
 300 800 l 1,3,-1
 500 800 l 1,4,-1
 500 600 l 1,5,-1
 300 600 l 1,6,-1
 300 500 l 1,7,-1
 200 500 l 1,8,-1
 200 0 l 1,9,-1
 0 0 l 1,10,-1
 0 800 l 1,11,-1
 200 800 l 1,0,-1
EndSplineSet
Substitution2: "+U1h9FH9uY9sA lookup 7 +MLUw1jDGMPww1jDr" r.alt
Substitution2: "'fwid' +UWiJ0gAA lookup 2 +MLUw1jDGMPww1jDr" uniFF52
AlternateSubs2: "'aalt' +MFkweTBmMG51cE9TW1cweDBuMKIwrzC7MLkA lookup 1 +MLUw1jDGMPww1jDr" r.alt uniFF52
EndChar

StartChar: s
Encoding: 115 115 100
Width: 600
GlyphClass: 1
Flags: W
LayerCount: 2
Fore
SplineSet
100 800 m 1,0,-1
 500 800 l 1,1,-1
 500 600 l 1,2,-1
 200 600 l 1,3,-1
 200 500 l 1,4,-1
 300 500 l 1,5,-1
 300 400 l 1,6,-1
 400 400 l 1,7,-1
 400 300 l 1,8,-1
 500 300 l 1,9,-1
 500 100 l 1,10,-1
 400 100 l 1,11,-1
 400 0 l 1,12,-1
 0 0 l 1,13,-1
 0 200 l 1,14,-1
 200 200 l 1,15,-1
 200 300 l 1,16,-1
 100 300 l 1,17,-1
 100 400 l 1,18,-1
 0 400 l 1,19,-1
 0 700 l 1,20,-1
 100 700 l 1,21,-1
 100 800 l 1,0,-1
EndSplineSet
Substitution2: "'fwid' +UWiJ0gAA lookup 2 +MLUw1jDGMPww1jDr" uniFF53
Substitution2: "'aalt' +MFkweTBmMG51cE9TW1cweDBuMKIwrzC7MLkA lookup 0 +MLUw1jDGMPww1jDr" uniFF53
EndChar

StartChar: t
Encoding: 116 116 101
Width: 500
GlyphClass: 1
Flags: W
LayerCount: 2
Fore
SplineSet
200 1000 m 1,0,-1
 200 800 l 1,1,-1
 400 800 l 1,2,-1
 400 600 l 1,3,-1
 200 600 l 1,4,-1
 200 200 l 1,5,-1
 400 200 l 1,6,-1
 400 0 l 1,7,-1
 100 0 l 1,8,-1
 100 100 l 1,9,-1
 0 100 l 1,10,-1
 0 1000 l 1,11,-1
 200 1000 l 1,0,-1
EndSplineSet
Substitution2: "'fwid' +UWiJ0gAA lookup 2 +MLUw1jDGMPww1jDr" uniFF54
Substitution2: "'aalt' +MFkweTBmMG51cE9TW1cweDBuMKIwrzC7MLkA lookup 0 +MLUw1jDGMPww1jDr" uniFF54
EndChar

StartChar: u
Encoding: 117 117 102
Width: 700
GlyphClass: 1
Flags: W
LayerCount: 2
Fore
SplineSet
600 0 m 1,0,-1
 100 0 l 1,1,-1
 100 100 l 1,2,-1
 0 100 l 1,3,-1
 0 800 l 1,4,-1
 200 800 l 1,5,-1
 200 200 l 1,6,-1
 400 200 l 1,7,-1
 400 800 l 1,8,-1
 600 800 l 1,9,-1
 600 0 l 1,0,-1
EndSplineSet
Substitution2: "'fwid' +UWiJ0gAA lookup 2 +MLUw1jDGMPww1jDr" uniFF55
Substitution2: "'aalt' +MFkweTBmMG51cE9TW1cweDBuMKIwrzC7MLkA lookup 0 +MLUw1jDGMPww1jDr" uniFF55
EndChar

StartChar: v
Encoding: 118 118 103
Width: 700
GlyphClass: 1
Flags: W
LayerCount: 2
Fore
SplineSet
600 400 m 1,0,-1
 500 400 l 1,1,-1
 500 200 l 1,2,-1
 400 200 l 1,3,-1
 400 0 l 1,4,-1
 200 0 l 1,5,-1
 200 200 l 1,6,-1
 100 200 l 1,7,-1
 100 400 l 1,8,-1
 0 400 l 1,9,-1
 0 800 l 1,10,-1
 200 800 l 1,11,-1
 200 400 l 1,12,-1
 400 400 l 1,13,-1
 400 800 l 1,14,-1
 600 800 l 1,15,-1
 600 400 l 1,0,-1
EndSplineSet
Substitution2: "'fwid' +UWiJ0gAA lookup 2 +MLUw1jDGMPww1jDr" uniFF56
Substitution2: "'aalt' +MFkweTBmMG51cE9TW1cweDBuMKIwrzC7MLkA lookup 0 +MLUw1jDGMPww1jDr" uniFF56
EndChar

StartChar: w
Encoding: 119 119 104
Width: 900
GlyphClass: 1
Flags: W
LayerCount: 2
Fore
SplineSet
200 800 m 1,0,-1
 200 200 l 1,1,-1
 300 200 l 1,2,-1
 300 700 l 1,3,-1
 500 700 l 1,4,-1
 500 200 l 1,5,-1
 600 200 l 1,6,-1
 600 800 l 1,7,-1
 800 800 l 1,8,-1
 800 100 l 1,9,-1
 700 100 l 1,10,-1
 700 0 l 1,11,-1
 500 0 l 1,12,-1
 500 100 l 1,13,-1
 300 100 l 1,14,-1
 300 0 l 1,15,-1
 100 0 l 1,16,-1
 100 100 l 1,17,-1
 0 100 l 1,18,-1
 0 800 l 1,19,-1
 200 800 l 1,0,-1
EndSplineSet
Substitution2: "'fwid' +UWiJ0gAA lookup 2 +MLUw1jDGMPww1jDr" uniFF57
Substitution2: "'aalt' +MFkweTBmMG51cE9TW1cweDBuMKIwrzC7MLkA lookup 0 +MLUw1jDGMPww1jDr" uniFF57
EndChar

StartChar: x
Encoding: 120 120 105
Width: 700
GlyphClass: 1
Flags: W
LayerCount: 2
Fore
SplineSet
200 800 m 1,0,-1
 200 500 l 1,1,-1
 0 500 l 1,2,-1
 0 800 l 1,3,-1
 200 800 l 1,0,-1
100 400 m 1,4,-1
 200 400 l 1,5,-1
 200 500 l 1,6,-1
 300 500 l 1,7,-1
 300 600 l 1,8,-1
 400 600 l 1,9,-1
 400 800 l 1,10,-1
 600 800 l 1,11,-1
 600 500 l 1,12,-1
 500 500 l 1,13,-1
 500 400 l 1,14,-1
 400 400 l 1,15,-1
 400 300 l 1,16,-1
 300 300 l 1,17,-1
 300 200 l 1,18,-1
 200 200 l 1,19,-1
 200 0 l 1,20,-1
 0 0 l 1,21,-1
 0 300 l 1,22,-1
 100 300 l 1,23,-1
 100 400 l 1,4,-1
600 0 m 1,24,-1
 400 0 l 1,25,-1
 400 300 l 1,26,-1
 600 300 l 1,27,-1
 600 0 l 1,24,-1
EndSplineSet
Substitution2: "'fwid' +UWiJ0gAA lookup 2 +MLUw1jDGMPww1jDr" uniFF58
Substitution2: "'aalt' +MFkweTBmMG51cE9TW1cweDBuMKIwrzC7MLkA lookup 0 +MLUw1jDGMPww1jDr" uniFF58
EndChar

StartChar: y
Encoding: 121 121 106
Width: 700
GlyphClass: 1
Flags: W
LayerCount: 2
Fore
SplineSet
400 100 m 1,0,-1
 400 200 l 1,1,-1
 100 200 l 1,2,-1
 100 300 l 1,3,-1
 0 300 l 1,4,-1
 0 800 l 1,5,-1
 200 800 l 1,6,-1
 200 400 l 1,7,-1
 400 400 l 1,8,-1
 400 800 l 1,9,-1
 600 800 l 1,10,-1
 600 0 l 1,11,-1
 500 0 l 1,12,-1
 500 -100 l 1,13,-1
 100 -100 l 1,14,-1
 100 100 l 1,15,-1
 400 100 l 1,0,-1
EndSplineSet
Substitution2: "'fwid' +UWiJ0gAA lookup 2 +MLUw1jDGMPww1jDr" uniFF59
Substitution2: "'aalt' +MFkweTBmMG51cE9TW1cweDBuMKIwrzC7MLkA lookup 0 +MLUw1jDGMPww1jDr" uniFF59
EndChar

StartChar: z
Encoding: 122 122 107
Width: 600
GlyphClass: 1
Flags: W
LayerCount: 2
Fore
SplineSet
100 400 m 1,0,-1
 100 500 l 1,1,-1
 200 500 l 1,2,-1
 200 600 l 1,3,-1
 0 600 l 1,4,-1
 0 800 l 1,5,-1
 500 800 l 1,6,-1
 500 500 l 1,7,-1
 400 500 l 1,8,-1
 400 400 l 1,9,-1
 300 400 l 1,10,-1
 300 300 l 1,11,-1
 200 300 l 1,12,-1
 200 200 l 1,13,-1
 500 200 l 1,14,-1
 500 0 l 1,15,-1
 0 0 l 1,16,-1
 0 400 l 1,17,-1
 100 400 l 1,0,-1
EndSplineSet
Substitution2: "'fwid' +UWiJ0gAA lookup 2 +MLUw1jDGMPww1jDr" uniFF5A
Substitution2: "'aalt' +MFkweTBmMG51cE9TW1cweDBuMKIwrzC7MLkA lookup 0 +MLUw1jDGMPww1jDr" uniFF5A
EndChar

StartChar: uniFF41
Encoding: 65345 65345 108
Width: 800
GlyphClass: 1
Flags: W
LayerCount: 2
Fore
SplineSet
100 500 m 1,0,-1
 500 500 l 1,1,-1
 500 600 l 1,2,-1
 0 600 l 1,3,-1
 0 800 l 1,4,-1
 600 800 l 1,5,-1
 600 700 l 1,6,-1
 700 700 l 1,7,-1
 700 0 l 1,8,-1
 100 0 l 1,9,-1
 100 100 l 1,10,-1
 0 100 l 1,11,-1
 0 400 l 1,12,-1
 100 400 l 1,13,-1
 100 500 l 1,0,-1
500 200 m 1,14,-1
 500 300 l 1,15,-1
 200 300 l 1,16,-1
 200 200 l 1,17,-1
 500 200 l 1,14,-1
EndSplineSet
Substitution2: "'vrt2' +fiZm+DBNW1dfYjBoVt6O4m4IMH9lh1tX lookup 5 +MLUw1jDGMPww1jDr" uniFF41.vert
Substitution2: "'vert' Vertical Alternates lookup 3 +MLUw1jDGMPww1jDr" uniFF41.vert
Substitution2: "'aalt' +MFkweTBmMG51cE9TW1cweDBuMKIwrzC7MLkA lookup 0 +MLUw1jDGMPww1jDr" uniFF41.vert
EndChar

StartChar: uniFF42
Encoding: 65346 65346 110
Width: 800
GlyphClass: 1
Flags: W
LayerCount: 2
Fore
SplineSet
200 800 m 1,0,-1
 600 800 l 1,1,-1
 600 700 l 1,2,-1
 700 700 l 1,3,-1
 700 100 l 1,4,-1
 600 100 l 1,5,-1
 600 0 l 1,6,-1
 0 0 l 1,7,-1
 0 1000 l 1,8,-1
 200 1000 l 1,9,-1
 200 800 l 1,0,-1
500 200 m 1,10,-1
 500 600 l 1,11,-1
 200 600 l 1,12,-1
 200 200 l 1,13,-1
 500 200 l 1,10,-1
EndSplineSet
Substitution2: "'vrt2' +fiZm+DBNW1dfYjBoVt6O4m4IMH9lh1tX lookup 5 +MLUw1jDGMPww1jDr" uniFF42.vert
Substitution2: "'vert' Vertical Alternates lookup 3 +MLUw1jDGMPww1jDr" uniFF42.vert
Substitution2: "'aalt' +MFkweTBmMG51cE9TW1cweDBuMKIwrzC7MLkA lookup 0 +MLUw1jDGMPww1jDr" uniFF42.vert
EndChar

StartChar: uniFF43
Encoding: 65347 65347 111
Width: 800
GlyphClass: 1
Flags: W
LayerCount: 2
Fore
SplineSet
100 800 m 1,0,-1
 600 800 l 1,1,-1
 600 700 l 1,2,-1
 700 700 l 1,3,-1
 700 500 l 1,4,-1
 500 500 l 1,5,-1
 500 600 l 1,6,-1
 200 600 l 1,7,-1
 200 200 l 1,8,-1
 500 200 l 1,9,-1
 500 300 l 1,10,-1
 700 300 l 1,11,-1
 700 100 l 1,12,-1
 600 100 l 1,13,-1
 600 0 l 1,14,-1
 100 0 l 1,15,-1
 100 100 l 1,16,-1
 0 100 l 1,17,-1
 0 700 l 1,18,-1
 100 700 l 1,19,-1
 100 800 l 1,0,-1
EndSplineSet
Substitution2: "'vrt2' +fiZm+DBNW1dfYjBoVt6O4m4IMH9lh1tX lookup 5 +MLUw1jDGMPww1jDr" uniFF43.vert
Substitution2: "'vert' Vertical Alternates lookup 3 +MLUw1jDGMPww1jDr" uniFF43.vert
Substitution2: "'aalt' +MFkweTBmMG51cE9TW1cweDBuMKIwrzC7MLkA lookup 0 +MLUw1jDGMPww1jDr" uniFF43.vert
EndChar

StartChar: uniFF44
Encoding: 65348 65348 112
Width: 800
GlyphClass: 1
Flags: W
LayerCount: 2
Fore
SplineSet
100 800 m 1,0,-1
 500 800 l 1,1,-1
 500 1000 l 1,2,-1
 700 1000 l 1,3,-1
 700 0 l 1,4,-1
 100 0 l 1,5,-1
 100 100 l 1,6,-1
 0 100 l 1,7,-1
 0 700 l 1,8,-1
 100 700 l 1,9,-1
 100 800 l 1,0,-1
500 200 m 1,10,-1
 500 600 l 1,11,-1
 200 600 l 1,12,-1
 200 200 l 1,13,-1
 500 200 l 1,10,-1
EndSplineSet
Substitution2: "'vrt2' +fiZm+DBNW1dfYjBoVt6O4m4IMH9lh1tX lookup 5 +MLUw1jDGMPww1jDr" uniFF44.vert
Substitution2: "'vert' Vertical Alternates lookup 3 +MLUw1jDGMPww1jDr" uniFF44.vert
Substitution2: "'aalt' +MFkweTBmMG51cE9TW1cweDBuMKIwrzC7MLkA lookup 0 +MLUw1jDGMPww1jDr" uniFF44.vert
EndChar

StartChar: uniFF45
Encoding: 65349 65349 113
Width: 800
GlyphClass: 1
Flags: W
LayerCount: 2
Fore
SplineSet
100 800 m 1,0,-1
 600 800 l 1,1,-1
 600 700 l 1,2,-1
 700 700 l 1,3,-1
 700 300 l 1,4,-1
 200 300 l 1,5,-1
 200 200 l 1,6,-1
 700 200 l 1,7,-1
 700 0 l 1,8,-1
 100 0 l 1,9,-1
 100 100 l 1,10,-1
 0 100 l 1,11,-1
 0 700 l 1,12,-1
 100 700 l 1,13,-1
 100 800 l 1,0,-1
500 500 m 1,14,-1
 500 600 l 1,15,-1
 200 600 l 1,16,-1
 200 500 l 1,17,-1
 500 500 l 1,14,-1
EndSplineSet
Substitution2: "'vrt2' +fiZm+DBNW1dfYjBoVt6O4m4IMH9lh1tX lookup 5 +MLUw1jDGMPww1jDr" uniFF45.vert
Substitution2: "'vert' Vertical Alternates lookup 3 +MLUw1jDGMPww1jDr" uniFF45.vert
Substitution2: "'aalt' +MFkweTBmMG51cE9TW1cweDBuMKIwrzC7MLkA lookup 0 +MLUw1jDGMPww1jDr" uniFF45.vert
EndChar

StartChar: uniFF46
Encoding: 65350 65350 114
Width: 800
GlyphClass: 1
Flags: W
LayerCount: 2
Fore
SplineSet
200 900 m 1,0,-1
 300 900 l 1,1,-1
 300 1000 l 1,2,-1
 600 1000 l 1,3,-1
 600 800 l 1,4,-1
 400 800 l 1,5,-1
 400 700 l 1,6,-1
 700 700 l 1,7,-1
 700 500 l 1,8,-1
 400 500 l 1,9,-1
 400 0 l 1,10,-1
 200 0 l 1,11,-1
 200 500 l 1,12,-1
 0 500 l 1,13,-1
 0 700 l 1,14,-1
 200 700 l 1,15,-1
 200 900 l 1,0,-1
EndSplineSet
Substitution2: "'vrt2' +fiZm+DBNW1dfYjBoVt6O4m4IMH9lh1tX lookup 5 +MLUw1jDGMPww1jDr" uniFF46.vert
Substitution2: "'vert' Vertical Alternates lookup 3 +MLUw1jDGMPww1jDr" uniFF46.vert
Substitution2: "'aalt' +MFkweTBmMG51cE9TW1cweDBuMKIwrzC7MLkA lookup 0 +MLUw1jDGMPww1jDr" uniFF46.vert
EndChar

StartChar: uniFF47
Encoding: 65351 65351 115
Width: 800
GlyphClass: 1
Flags: W
LayerCount: 2
Fore
SplineSet
100 800 m 1,0,-1
 700 800 l 1,1,-1
 700 0 l 1,2,-1
 600 0 l 1,3,-1
 600 -100 l 1,4,-1
 100 -100 l 1,5,-1
 100 100 l 1,6,-1
 500 100 l 1,7,-1
 500 200 l 1,8,-1
 100 200 l 1,9,-1
 100 300 l 1,10,-1
 0 300 l 1,11,-1
 0 700 l 1,12,-1
 100 700 l 1,13,-1
 100 800 l 1,0,-1
500 400 m 1,14,-1
 500 600 l 1,15,-1
 200 600 l 1,16,-1
 200 400 l 1,17,-1
 500 400 l 1,14,-1
EndSplineSet
Substitution2: "'vrt2' +fiZm+DBNW1dfYjBoVt6O4m4IMH9lh1tX lookup 5 +MLUw1jDGMPww1jDr" uniFF47.vert
Substitution2: "'vert' Vertical Alternates lookup 3 +MLUw1jDGMPww1jDr" uniFF47.vert
Substitution2: "'aalt' +MFkweTBmMG51cE9TW1cweDBuMKIwrzC7MLkA lookup 0 +MLUw1jDGMPww1jDr" uniFF47.vert
EndChar

StartChar: uniFF48
Encoding: 65352 65352 116
Width: 800
GlyphClass: 1
Flags: W
LayerCount: 2
Fore
SplineSet
200 800 m 1,0,-1
 600 800 l 1,1,-1
 600 700 l 1,2,-1
 700 700 l 1,3,-1
 700 0 l 1,4,-1
 500 0 l 1,5,-1
 500 600 l 1,6,-1
 200 600 l 1,7,-1
 200 0 l 1,8,-1
 0 0 l 1,9,-1
 0 1000 l 1,10,-1
 200 1000 l 1,11,-1
 200 800 l 1,0,-1
EndSplineSet
Substitution2: "'vrt2' +fiZm+DBNW1dfYjBoVt6O4m4IMH9lh1tX lookup 5 +MLUw1jDGMPww1jDr" uniFF48.vert
Substitution2: "'vert' Vertical Alternates lookup 3 +MLUw1jDGMPww1jDr" uniFF48.vert
Substitution2: "'aalt' +MFkweTBmMG51cE9TW1cweDBuMKIwrzC7MLkA lookup 0 +MLUw1jDGMPww1jDr" uniFF48.vert
EndChar

StartChar: uniFF49
Encoding: 65353 65353 117
Width: 800
GlyphClass: 1
Flags: W
LayerCount: 2
Fore
SplineSet
300 500 m 1,0,-1
 100 500 l 1,1,-1
 100 700 l 1,2,-1
 500 700 l 1,3,-1
 500 200 l 1,4,-1
 700 200 l 1,5,-1
 700 0 l 1,6,-1
 0 0 l 1,7,-1
 0 200 l 1,8,-1
 300 200 l 1,9,-1
 300 500 l 1,0,-1
500 1000 m 1,10,-1
 500 800 l 1,11,-1
 300 800 l 1,12,-1
 300 1000 l 1,13,-1
 500 1000 l 1,10,-1
EndSplineSet
Substitution2: "'vrt2' +fiZm+DBNW1dfYjBoVt6O4m4IMH9lh1tX lookup 5 +MLUw1jDGMPww1jDr" uniFF49.vert
Substitution2: "'vert' Vertical Alternates lookup 3 +MLUw1jDGMPww1jDr" uniFF49.vert
Substitution2: "'aalt' +MFkweTBmMG51cE9TW1cweDBuMKIwrzC7MLkA lookup 0 +MLUw1jDGMPww1jDr" uniFF49.vert
EndChar

StartChar: uniFF4A
Encoding: 65354 65354 118
Width: 800
GlyphClass: 1
Flags: W
LayerCount: 2
Fore
SplineSet
500 100 m 1,0,-1
 500 500 l 1,1,-1
 200 500 l 1,2,-1
 200 700 l 1,3,-1
 700 700 l 1,4,-1
 700 0 l 1,5,-1
 600 0 l 1,6,-1
 600 -100 l 1,7,-1
 100 -100 l 1,8,-1
 100 0 l 1,9,-1
 0 0 l 1,10,-1
 0 200 l 1,11,-1
 200 200 l 1,12,-1
 200 100 l 1,13,-1
 500 100 l 1,0,-1
700 1000 m 1,14,-1
 700 800 l 1,15,-1
 500 800 l 1,16,-1
 500 1000 l 1,17,-1
 700 1000 l 1,14,-1
EndSplineSet
Substitution2: "'vrt2' +fiZm+DBNW1dfYjBoVt6O4m4IMH9lh1tX lookup 5 +MLUw1jDGMPww1jDr" uniFF4A.vert
Substitution2: "'vert' Vertical Alternates lookup 3 +MLUw1jDGMPww1jDr" uniFF4A.vert
Substitution2: "'aalt' +MFkweTBmMG51cE9TW1cweDBuMKIwrzC7MLkA lookup 0 +MLUw1jDGMPww1jDr" uniFF4A.vert
EndChar

StartChar: uniFF4B
Encoding: 65355 65355 119
Width: 800
GlyphClass: 1
Flags: W
LayerCount: 2
Fore
SplineSet
200 500 m 1,0,-1
 300 500 l 1,1,-1
 300 600 l 1,2,-1
 400 600 l 1,3,-1
 400 700 l 1,4,-1
 500 700 l 1,5,-1
 500 800 l 1,6,-1
 700 800 l 1,7,-1
 700 600 l 1,8,-1
 600 600 l 1,9,-1
 600 500 l 1,10,-1
 500 500 l 1,11,-1
 500 300 l 1,12,-1
 600 300 l 1,13,-1
 600 200 l 1,14,-1
 700 200 l 1,15,-1
 700 0 l 1,16,-1
 500 0 l 1,17,-1
 500 100 l 1,18,-1
 400 100 l 1,19,-1
 400 200 l 1,20,-1
 300 200 l 1,21,-1
 300 300 l 1,22,-1
 200 300 l 1,23,-1
 200 0 l 1,24,-1
 0 0 l 1,25,-1
 0 1000 l 1,26,-1
 200 1000 l 1,27,-1
 200 500 l 1,0,-1
EndSplineSet
Substitution2: "'vrt2' +fiZm+DBNW1dfYjBoVt6O4m4IMH9lh1tX lookup 5 +MLUw1jDGMPww1jDr" uniFF4B.vert
Substitution2: "'vert' Vertical Alternates lookup 3 +MLUw1jDGMPww1jDr" uniFF4B.vert
Substitution2: "'aalt' +MFkweTBmMG51cE9TW1cweDBuMKIwrzC7MLkA lookup 0 +MLUw1jDGMPww1jDr" uniFF4B.vert
EndChar

StartChar: uniFF4C
Encoding: 65356 65356 120
Width: 800
GlyphClass: 1
Flags: W
LayerCount: 2
Fore
SplineSet
100 800 m 1,0,-1
 100 1000 l 1,1,-1
 500 1000 l 1,2,-1
 500 200 l 1,3,-1
 700 200 l 1,4,-1
 700 0 l 1,5,-1
 0 0 l 1,6,-1
 0 200 l 1,7,-1
 300 200 l 1,8,-1
 300 800 l 1,9,-1
 100 800 l 1,0,-1
EndSplineSet
Substitution2: "'vrt2' +fiZm+DBNW1dfYjBoVt6O4m4IMH9lh1tX lookup 5 +MLUw1jDGMPww1jDr" uniFF4C.vert
Substitution2: "'vert' Vertical Alternates lookup 3 +MLUw1jDGMPww1jDr" uniFF4C.vert
Substitution2: "'aalt' +MFkweTBmMG51cE9TW1cweDBuMKIwrzC7MLkA lookup 0 +MLUw1jDGMPww1jDr" uniFF4C.vert
EndChar

StartChar: uniFF4D
Encoding: 65357 65357 121
Width: 800
GlyphClass: 1
Flags: W
LayerCount: 2
Fore
SplineSet
600 800 m 1,0,-1
 600 700 l 1,1,-1
 700 700 l 1,2,-1
 700 0 l 1,3,-1
 500 0 l 1,4,-1
 500 600 l 1,5,-1
 400 600 l 1,6,-1
 400 0 l 1,7,-1
 300 0 l 1,8,-1
 300 600 l 1,9,-1
 200 600 l 1,10,-1
 200 0 l 1,11,-1
 0 0 l 1,12,-1
 0 800 l 1,13,-1
 600 800 l 1,0,-1
EndSplineSet
Substitution2: "'vrt2' +fiZm+DBNW1dfYjBoVt6O4m4IMH9lh1tX lookup 5 +MLUw1jDGMPww1jDr" uniFF4D.vert
Substitution2: "'vert' Vertical Alternates lookup 3 +MLUw1jDGMPww1jDr" uniFF4D.vert
Substitution2: "'aalt' +MFkweTBmMG51cE9TW1cweDBuMKIwrzC7MLkA lookup 0 +MLUw1jDGMPww1jDr" uniFF4D.vert
EndChar

StartChar: uniFF4E
Encoding: 65358 65358 122
Width: 800
GlyphClass: 1
Flags: W
LayerCount: 2
Fore
SplineSet
600 700 m 1,0,-1
 700 700 l 1,1,-1
 700 0 l 1,2,-1
 500 0 l 1,3,-1
 500 600 l 1,4,-1
 200 600 l 1,5,-1
 200 0 l 1,6,-1
 0 0 l 1,7,-1
 0 800 l 1,8,-1
 600 800 l 1,9,-1
 600 700 l 1,0,-1
EndSplineSet
Substitution2: "'vrt2' +fiZm+DBNW1dfYjBoVt6O4m4IMH9lh1tX lookup 5 +MLUw1jDGMPww1jDr" uniFF4E.vert
Substitution2: "'vert' Vertical Alternates lookup 3 +MLUw1jDGMPww1jDr" uniFF4E.vert
Substitution2: "'aalt' +MFkweTBmMG51cE9TW1cweDBuMKIwrzC7MLkA lookup 0 +MLUw1jDGMPww1jDr" uniFF4E.vert
EndChar

StartChar: uniFF4F
Encoding: 65359 65359 123
Width: 800
GlyphClass: 1
Flags: W
LayerCount: 2
Fore
SplineSet
100 800 m 1,0,-1
 600 800 l 1,1,-1
 600 700 l 1,2,-1
 700 700 l 1,3,-1
 700 100 l 1,4,-1
 600 100 l 1,5,-1
 600 0 l 1,6,-1
 100 0 l 1,7,-1
 100 100 l 1,8,-1
 0 100 l 1,9,-1
 0 700 l 1,10,-1
 100 700 l 1,11,-1
 100 800 l 1,0,-1
500 200 m 1,12,-1
 500 600 l 1,13,-1
 200 600 l 1,14,-1
 200 200 l 1,15,-1
 500 200 l 1,12,-1
EndSplineSet
Substitution2: "'vrt2' +fiZm+DBNW1dfYjBoVt6O4m4IMH9lh1tX lookup 5 +MLUw1jDGMPww1jDr" uniFF4F.vert
Substitution2: "'vert' Vertical Alternates lookup 3 +MLUw1jDGMPww1jDr" uniFF4F.vert
Substitution2: "'aalt' +MFkweTBmMG51cE9TW1cweDBuMKIwrzC7MLkA lookup 0 +MLUw1jDGMPww1jDr" uniFF4F.vert
EndChar

StartChar: uniFF50
Encoding: 65360 65360 124
Width: 800
GlyphClass: 1
Flags: W
LayerCount: 2
Fore
SplineSet
600 700 m 1,0,-1
 700 700 l 1,1,-1
 700 200 l 1,2,-1
 600 200 l 1,3,-1
 600 100 l 1,4,-1
 300 100 l 1,5,-1
 300 300 l 1,6,-1
 500 300 l 1,7,-1
 500 600 l 1,8,-1
 200 600 l 1,9,-1
 200 -100 l 1,10,-1
 0 -100 l 1,11,-1
 0 800 l 1,12,-1
 600 800 l 1,13,-1
 600 700 l 1,0,-1
EndSplineSet
Substitution2: "'vrt2' +fiZm+DBNW1dfYjBoVt6O4m4IMH9lh1tX lookup 5 +MLUw1jDGMPww1jDr" uniFF50.vert
Substitution2: "'vert' Vertical Alternates lookup 3 +MLUw1jDGMPww1jDr" uniFF50.vert
Substitution2: "'aalt' +MFkweTBmMG51cE9TW1cweDBuMKIwrzC7MLkA lookup 0 +MLUw1jDGMPww1jDr" uniFF50.vert
EndChar

StartChar: uniFF51
Encoding: 65361 65361 125
Width: 800
GlyphClass: 1
Flags: W
LayerCount: 2
Fore
SplineSet
100 800 m 1,0,-1
 700 800 l 1,1,-1
 700 -100 l 1,2,-1
 500 -100 l 1,3,-1
 500 600 l 1,4,-1
 200 600 l 1,5,-1
 200 300 l 1,6,-1
 400 300 l 1,7,-1
 400 100 l 1,8,-1
 100 100 l 1,9,-1
 100 200 l 1,10,-1
 0 200 l 1,11,-1
 0 700 l 1,12,-1
 100 700 l 1,13,-1
 100 800 l 1,0,-1
EndSplineSet
Substitution2: "'vrt2' +fiZm+DBNW1dfYjBoVt6O4m4IMH9lh1tX lookup 5 +MLUw1jDGMPww1jDr" uniFF51.vert
Substitution2: "'vert' Vertical Alternates lookup 3 +MLUw1jDGMPww1jDr" uniFF51.vert
Substitution2: "'aalt' +MFkweTBmMG51cE9TW1cweDBuMKIwrzC7MLkA lookup 0 +MLUw1jDGMPww1jDr" uniFF51.vert
EndChar

StartChar: uniFF52
Encoding: 65362 65362 126
Width: 800
GlyphClass: 1
Flags: W
LayerCount: 2
Fore
SplineSet
200 700 m 1,0,-1
 300 700 l 1,1,-1
 300 800 l 1,2,-1
 700 800 l 1,3,-1
 700 600 l 1,4,-1
 400 600 l 1,5,-1
 400 500 l 1,6,-1
 300 500 l 1,7,-1
 300 400 l 1,8,-1
 200 400 l 1,9,-1
 200 0 l 1,10,-1
 0 0 l 1,11,-1
 0 800 l 1,12,-1
 200 800 l 1,13,-1
 200 700 l 1,0,-1
EndSplineSet
Substitution2: "'vrt2' +fiZm+DBNW1dfYjBoVt6O4m4IMH9lh1tX lookup 5 +MLUw1jDGMPww1jDr" uniFF52.vert
Substitution2: "'vert' Vertical Alternates lookup 3 +MLUw1jDGMPww1jDr" uniFF52.vert
Substitution2: "'aalt' +MFkweTBmMG51cE9TW1cweDBuMKIwrzC7MLkA lookup 0 +MLUw1jDGMPww1jDr" uniFF52.vert
EndChar

StartChar: uniFF53
Encoding: 65363 65363 127
Width: 800
GlyphClass: 1
Flags: W
LayerCount: 2
Fore
SplineSet
500 300 m 1,0,-1
 100 300 l 1,1,-1
 100 400 l 1,2,-1
 0 400 l 1,3,-1
 0 700 l 1,4,-1
 100 700 l 1,5,-1
 100 800 l 1,6,-1
 700 800 l 1,7,-1
 700 600 l 1,8,-1
 200 600 l 1,9,-1
 200 500 l 1,10,-1
 600 500 l 1,11,-1
 600 400 l 1,12,-1
 700 400 l 1,13,-1
 700 100 l 1,14,-1
 600 100 l 1,15,-1
 600 0 l 1,16,-1
 0 0 l 1,17,-1
 0 200 l 1,18,-1
 500 200 l 1,19,-1
 500 300 l 1,0,-1
EndSplineSet
Substitution2: "'vrt2' +fiZm+DBNW1dfYjBoVt6O4m4IMH9lh1tX lookup 5 +MLUw1jDGMPww1jDr" uniFF53.vert
Substitution2: "'vert' Vertical Alternates lookup 3 +MLUw1jDGMPww1jDr" uniFF53.vert
Substitution2: "'aalt' +MFkweTBmMG51cE9TW1cweDBuMKIwrzC7MLkA lookup 0 +MLUw1jDGMPww1jDr" uniFF53.vert
EndChar

StartChar: uniFF54
Encoding: 65364 65364 128
Width: 800
GlyphClass: 1
Flags: W
LayerCount: 2
Fore
SplineSet
0 600 m 1,0,-1
 0 800 l 1,1,-1
 200 800 l 1,2,-1
 200 1000 l 1,3,-1
 400 1000 l 1,4,-1
 400 800 l 1,5,-1
 700 800 l 1,6,-1
 700 600 l 1,7,-1
 400 600 l 1,8,-1
 400 200 l 1,9,-1
 700 200 l 1,10,-1
 700 0 l 1,11,-1
 300 0 l 1,12,-1
 300 100 l 1,13,-1
 200 100 l 1,14,-1
 200 600 l 1,15,-1
 0 600 l 1,0,-1
EndSplineSet
Substitution2: "'vrt2' +fiZm+DBNW1dfYjBoVt6O4m4IMH9lh1tX lookup 5 +MLUw1jDGMPww1jDr" uniFF54.vert
Substitution2: "'vert' Vertical Alternates lookup 3 +MLUw1jDGMPww1jDr" uniFF54.vert
Substitution2: "'aalt' +MFkweTBmMG51cE9TW1cweDBuMKIwrzC7MLkA lookup 0 +MLUw1jDGMPww1jDr" uniFF54.vert
EndChar

StartChar: uniFF55
Encoding: 65365 65365 129
Width: 800
GlyphClass: 1
Flags: W
LayerCount: 2
Fore
SplineSet
200 200 m 1,0,-1
 500 200 l 1,1,-1
 500 800 l 1,2,-1
 700 800 l 1,3,-1
 700 0 l 1,4,-1
 100 0 l 1,5,-1
 100 100 l 1,6,-1
 0 100 l 1,7,-1
 0 800 l 1,8,-1
 200 800 l 1,9,-1
 200 200 l 1,0,-1
EndSplineSet
Substitution2: "'vrt2' +fiZm+DBNW1dfYjBoVt6O4m4IMH9lh1tX lookup 5 +MLUw1jDGMPww1jDr" uniFF55.vert
Substitution2: "'vert' Vertical Alternates lookup 3 +MLUw1jDGMPww1jDr" uniFF55.vert
Substitution2: "'aalt' +MFkweTBmMG51cE9TW1cweDBuMKIwrzC7MLkA lookup 0 +MLUw1jDGMPww1jDr" uniFF55.vert
EndChar

StartChar: uniFF56
Encoding: 65366 65366 130
Width: 800
GlyphClass: 1
Flags: W
LayerCount: 2
Fore
SplineSet
200 500 m 1,0,-1
 300 500 l 1,1,-1
 300 300 l 1,2,-1
 400 300 l 1,3,-1
 400 500 l 1,4,-1
 500 500 l 1,5,-1
 500 800 l 1,6,-1
 700 800 l 1,7,-1
 700 400 l 1,8,-1
 600 400 l 1,9,-1
 600 200 l 1,10,-1
 500 200 l 1,11,-1
 500 0 l 1,12,-1
 200 0 l 1,13,-1
 200 200 l 1,14,-1
 100 200 l 1,15,-1
 100 400 l 1,16,-1
 0 400 l 1,17,-1
 0 800 l 1,18,-1
 200 800 l 1,19,-1
 200 500 l 1,0,-1
EndSplineSet
Substitution2: "'vrt2' +fiZm+DBNW1dfYjBoVt6O4m4IMH9lh1tX lookup 5 +MLUw1jDGMPww1jDr" uniFF56.vert
Substitution2: "'vert' Vertical Alternates lookup 3 +MLUw1jDGMPww1jDr" uniFF56.vert
Substitution2: "'aalt' +MFkweTBmMG51cE9TW1cweDBuMKIwrzC7MLkA lookup 0 +MLUw1jDGMPww1jDr" uniFF56.vert
EndChar

StartChar: uniFF57
Encoding: 65367 65367 131
Width: 800
GlyphClass: 1
Flags: W
LayerCount: 2
Fore
SplineSet
200 800 m 1,0,-1
 200 200 l 1,1,-1
 300 200 l 1,2,-1
 300 700 l 1,3,-1
 400 700 l 1,4,-1
 400 200 l 1,5,-1
 500 200 l 1,6,-1
 500 800 l 1,7,-1
 700 800 l 1,8,-1
 700 100 l 1,9,-1
 600 100 l 1,10,-1
 600 0 l 1,11,-1
 400 0 l 1,12,-1
 400 100 l 1,13,-1
 300 100 l 1,14,-1
 300 0 l 1,15,-1
 100 0 l 1,16,-1
 100 100 l 1,17,-1
 0 100 l 1,18,-1
 0 800 l 1,19,-1
 200 800 l 1,0,-1
EndSplineSet
Substitution2: "'vrt2' +fiZm+DBNW1dfYjBoVt6O4m4IMH9lh1tX lookup 5 +MLUw1jDGMPww1jDr" uniFF57.vert
Substitution2: "'vert' Vertical Alternates lookup 3 +MLUw1jDGMPww1jDr" uniFF57.vert
Substitution2: "'aalt' +MFkweTBmMG51cE9TW1cweDBuMKIwrzC7MLkA lookup 0 +MLUw1jDGMPww1jDr" uniFF57.vert
EndChar

StartChar: uniFF58
Encoding: 65368 65368 132
Width: 800
GlyphClass: 1
Flags: W
LayerCount: 2
Fore
SplineSet
100 300 m 1,0,-1
 200 300 l 1,1,-1
 200 500 l 1,2,-1
 100 500 l 1,3,-1
 100 600 l 1,4,-1
 0 600 l 1,5,-1
 0 800 l 1,6,-1
 200 800 l 1,7,-1
 200 700 l 1,8,-1
 300 700 l 1,9,-1
 300 600 l 1,10,-1
 400 600 l 1,11,-1
 400 700 l 1,12,-1
 500 700 l 1,13,-1
 500 800 l 1,14,-1
 700 800 l 1,15,-1
 700 600 l 1,16,-1
 600 600 l 1,17,-1
 600 500 l 1,18,-1
 500 500 l 1,19,-1
 500 300 l 1,20,-1
 600 300 l 1,21,-1
 600 200 l 1,22,-1
 700 200 l 1,23,-1
 700 0 l 1,24,-1
 500 0 l 1,25,-1
 500 100 l 1,26,-1
 400 100 l 1,27,-1
 400 200 l 1,28,-1
 300 200 l 1,29,-1
 300 100 l 1,30,-1
 200 100 l 1,31,-1
 200 0 l 1,32,-1
 0 0 l 1,33,-1
 0 200 l 1,34,-1
 100 200 l 1,35,-1
 100 300 l 1,0,-1
EndSplineSet
Substitution2: "'vrt2' +fiZm+DBNW1dfYjBoVt6O4m4IMH9lh1tX lookup 5 +MLUw1jDGMPww1jDr" uniFF58.vert
Substitution2: "'vert' Vertical Alternates lookup 3 +MLUw1jDGMPww1jDr" uniFF58.vert
Substitution2: "'aalt' +MFkweTBmMG51cE9TW1cweDBuMKIwrzC7MLkA lookup 0 +MLUw1jDGMPww1jDr" uniFF58.vert
EndChar

StartChar: uniFF59
Encoding: 65369 65369 133
Width: 800
GlyphClass: 1
Flags: W
LayerCount: 2
Fore
SplineSet
200 400 m 1,0,-1
 500 400 l 1,1,-1
 500 800 l 1,2,-1
 700 800 l 1,3,-1
 700 0 l 1,4,-1
 600 0 l 1,5,-1
 600 -100 l 1,6,-1
 100 -100 l 1,7,-1
 100 100 l 1,8,-1
 500 100 l 1,9,-1
 500 200 l 1,10,-1
 100 200 l 1,11,-1
 100 300 l 1,12,-1
 0 300 l 1,13,-1
 0 800 l 1,14,-1
 200 800 l 1,15,-1
 200 400 l 1,0,-1
EndSplineSet
Substitution2: "'vrt2' +fiZm+DBNW1dfYjBoVt6O4m4IMH9lh1tX lookup 5 +MLUw1jDGMPww1jDr" uniFF59.vert
Substitution2: "'vert' Vertical Alternates lookup 3 +MLUw1jDGMPww1jDr" uniFF59.vert
Substitution2: "'aalt' +MFkweTBmMG51cE9TW1cweDBuMKIwrzC7MLkA lookup 0 +MLUw1jDGMPww1jDr" uniFF59.vert
EndChar

StartChar: uniFF5A
Encoding: 65370 65370 134
Width: 800
GlyphClass: 1
Flags: W
LayerCount: 2
Fore
SplineSet
100 400 m 1,0,-1
 200 400 l 1,1,-1
 200 500 l 1,2,-1
 300 500 l 1,3,-1
 300 600 l 1,4,-1
 0 600 l 1,5,-1
 0 800 l 1,6,-1
 700 800 l 1,7,-1
 700 600 l 1,8,-1
 600 600 l 1,9,-1
 600 500 l 1,10,-1
 500 500 l 1,11,-1
 500 400 l 1,12,-1
 400 400 l 1,13,-1
 400 300 l 1,14,-1
 300 300 l 1,15,-1
 300 200 l 1,16,-1
 700 200 l 1,17,-1
 700 0 l 1,18,-1
 0 0 l 1,19,-1
 0 300 l 1,20,-1
 100 300 l 1,21,-1
 100 400 l 1,0,-1
EndSplineSet
Substitution2: "'vrt2' +fiZm+DBNW1dfYjBoVt6O4m4IMH9lh1tX lookup 5 +MLUw1jDGMPww1jDr" uniFF5A.vert
Substitution2: "'vert' Vertical Alternates lookup 3 +MLUw1jDGMPww1jDr" uniFF5A.vert
Substitution2: "'aalt' +MFkweTBmMG51cE9TW1cweDBuMKIwrzC7MLkA lookup 0 +MLUw1jDGMPww1jDr" uniFF5A.vert
EndChar

StartChar: uniFF41.vert
Encoding: 65566 -1 135
Width: 1000
GlyphClass: 1
Flags: W
LayerCount: 2
Fore
SplineSet
200 600 m 1,0,-1
 600 600 l 1,1,-1
 600 700 l 1,2,-1
 100 700 l 1,3,-1
 100 900 l 1,4,-1
 700 900 l 1,5,-1
 700 800 l 1,6,-1
 800 800 l 1,7,-1
 800 100 l 1,8,-1
 200 100 l 1,9,-1
 200 200 l 1,10,-1
 100 200 l 1,11,-1
 100 500 l 1,12,-1
 200 500 l 1,13,-1
 200 600 l 1,0,-1
600 300 m 1,14,-1
 600 400 l 1,15,-1
 300 400 l 1,16,-1
 300 300 l 1,17,-1
 600 300 l 1,14,-1
EndSplineSet
EndChar

StartChar: uniFF42.vert
Encoding: 65567 -1 136
Width: 1000
GlyphClass: 1
Flags: W
LayerCount: 2
Fore
SplineSet
300 900 m 1,0,-1
 700 900 l 1,1,-1
 700 800 l 1,2,-1
 800 800 l 1,3,-1
 800 200 l 1,4,-1
 700 200 l 1,5,-1
 700 100 l 1,6,-1
 100 100 l 1,7,-1
 100 1100 l 1,8,-1
 300 1100 l 1,9,-1
 300 900 l 1,0,-1
600 300 m 1,10,-1
 600 700 l 1,11,-1
 300 700 l 1,12,-1
 300 300 l 1,13,-1
 600 300 l 1,10,-1
EndSplineSet
EndChar

StartChar: uniFF43.vert
Encoding: 65568 -1 137
Width: 1000
GlyphClass: 1
Flags: W
LayerCount: 2
Fore
SplineSet
200 900 m 1,0,-1
 700 900 l 1,1,-1
 700 800 l 1,2,-1
 800 800 l 1,3,-1
 800 600 l 1,4,-1
 600 600 l 1,5,-1
 600 700 l 1,6,-1
 300 700 l 1,7,-1
 300 300 l 1,8,-1
 600 300 l 1,9,-1
 600 400 l 1,10,-1
 800 400 l 1,11,-1
 800 200 l 1,12,-1
 700 200 l 1,13,-1
 700 100 l 1,14,-1
 200 100 l 1,15,-1
 200 200 l 1,16,-1
 100 200 l 1,17,-1
 100 800 l 1,18,-1
 200 800 l 1,19,-1
 200 900 l 1,0,-1
EndSplineSet
EndChar

StartChar: uniFF44.vert
Encoding: 65569 -1 138
Width: 1000
GlyphClass: 1
Flags: W
LayerCount: 2
Fore
SplineSet
200 900 m 1,0,-1
 600 900 l 1,1,-1
 600 1100 l 1,2,-1
 800 1100 l 1,3,-1
 800 100 l 1,4,-1
 200 100 l 1,5,-1
 200 200 l 1,6,-1
 100 200 l 1,7,-1
 100 800 l 1,8,-1
 200 800 l 1,9,-1
 200 900 l 1,0,-1
600 300 m 1,10,-1
 600 700 l 1,11,-1
 300 700 l 1,12,-1
 300 300 l 1,13,-1
 600 300 l 1,10,-1
EndSplineSet
EndChar

StartChar: uniFF45.vert
Encoding: 65570 -1 139
Width: 1000
GlyphClass: 1
Flags: W
LayerCount: 2
Fore
SplineSet
200 900 m 1,0,-1
 700 900 l 1,1,-1
 700 800 l 1,2,-1
 800 800 l 1,3,-1
 800 400 l 1,4,-1
 300 400 l 1,5,-1
 300 300 l 1,6,-1
 800 300 l 1,7,-1
 800 100 l 1,8,-1
 200 100 l 1,9,-1
 200 200 l 1,10,-1
 100 200 l 1,11,-1
 100 800 l 1,12,-1
 200 800 l 1,13,-1
 200 900 l 1,0,-1
600 600 m 1,14,-1
 600 700 l 1,15,-1
 300 700 l 1,16,-1
 300 600 l 1,17,-1
 600 600 l 1,14,-1
EndSplineSet
EndChar

StartChar: uniFF46.vert
Encoding: 65571 -1 140
Width: 1000
GlyphClass: 1
Flags: W
LayerCount: 2
Fore
SplineSet
300 1000 m 1,0,-1
 400 1000 l 1,1,-1
 400 1100 l 1,2,-1
 700 1100 l 1,3,-1
 700 900 l 1,4,-1
 500 900 l 1,5,-1
 500 800 l 1,6,-1
 800 800 l 1,7,-1
 800 600 l 1,8,-1
 500 600 l 1,9,-1
 500 100 l 1,10,-1
 300 100 l 1,11,-1
 300 600 l 1,12,-1
 100 600 l 1,13,-1
 100 800 l 1,14,-1
 300 800 l 1,15,-1
 300 1000 l 1,0,-1
EndSplineSet
EndChar

StartChar: uniFF47.vert
Encoding: 65572 -1 141
Width: 1000
GlyphClass: 1
Flags: W
LayerCount: 2
Fore
SplineSet
200 900 m 1,0,-1
 800 900 l 1,1,-1
 800 100 l 1,2,-1
 700 100 l 1,3,-1
 700 0 l 1,4,-1
 200 0 l 1,5,-1
 200 200 l 1,6,-1
 600 200 l 1,7,-1
 600 300 l 1,8,-1
 200 300 l 1,9,-1
 200 400 l 1,10,-1
 100 400 l 1,11,-1
 100 800 l 1,12,-1
 200 800 l 1,13,-1
 200 900 l 1,0,-1
600 500 m 1,14,-1
 600 700 l 1,15,-1
 300 700 l 1,16,-1
 300 500 l 1,17,-1
 600 500 l 1,14,-1
EndSplineSet
EndChar

StartChar: uniFF48.vert
Encoding: 65573 -1 142
Width: 1000
GlyphClass: 1
Flags: W
LayerCount: 2
Fore
SplineSet
300 900 m 1,0,-1
 700 900 l 1,1,-1
 700 800 l 1,2,-1
 800 800 l 1,3,-1
 800 100 l 1,4,-1
 600 100 l 1,5,-1
 600 700 l 1,6,-1
 300 700 l 1,7,-1
 300 100 l 1,8,-1
 100 100 l 1,9,-1
 100 1100 l 1,10,-1
 300 1100 l 1,11,-1
 300 900 l 1,0,-1
EndSplineSet
EndChar

StartChar: uniFF49.vert
Encoding: 65574 -1 143
Width: 1000
GlyphClass: 1
Flags: W
LayerCount: 2
Fore
SplineSet
400 600 m 1,0,-1
 200 600 l 1,1,-1
 200 800 l 1,2,-1
 600 800 l 1,3,-1
 600 300 l 1,4,-1
 800 300 l 1,5,-1
 800 100 l 1,6,-1
 100 100 l 1,7,-1
 100 300 l 1,8,-1
 400 300 l 1,9,-1
 400 600 l 1,0,-1
600 1100 m 1,10,-1
 600 900 l 1,11,-1
 400 900 l 1,12,-1
 400 1100 l 1,13,-1
 600 1100 l 1,10,-1
EndSplineSet
EndChar

StartChar: uniFF4A.vert
Encoding: 65575 -1 144
Width: 1000
GlyphClass: 1
Flags: W
LayerCount: 2
Fore
SplineSet
600 200 m 1,0,-1
 600 600 l 1,1,-1
 300 600 l 1,2,-1
 300 800 l 1,3,-1
 800 800 l 1,4,-1
 800 100 l 1,5,-1
 700 100 l 1,6,-1
 700 0 l 1,7,-1
 200 0 l 1,8,-1
 200 100 l 1,9,-1
 100 100 l 1,10,-1
 100 300 l 1,11,-1
 300 300 l 1,12,-1
 300 200 l 1,13,-1
 600 200 l 1,0,-1
800 1100 m 1,14,-1
 800 900 l 1,15,-1
 600 900 l 1,16,-1
 600 1100 l 1,17,-1
 800 1100 l 1,14,-1
EndSplineSet
EndChar

StartChar: uniFF4B.vert
Encoding: 65576 -1 145
Width: 1000
GlyphClass: 1
Flags: W
LayerCount: 2
Fore
SplineSet
300 600 m 1,0,-1
 400 600 l 1,1,-1
 400 700 l 1,2,-1
 500 700 l 1,3,-1
 500 800 l 1,4,-1
 600 800 l 1,5,-1
 600 900 l 1,6,-1
 800 900 l 1,7,-1
 800 700 l 1,8,-1
 700 700 l 1,9,-1
 700 600 l 1,10,-1
 600 600 l 1,11,-1
 600 400 l 1,12,-1
 700 400 l 1,13,-1
 700 300 l 1,14,-1
 800 300 l 1,15,-1
 800 100 l 1,16,-1
 600 100 l 1,17,-1
 600 200 l 1,18,-1
 500 200 l 1,19,-1
 500 300 l 1,20,-1
 400 300 l 1,21,-1
 400 400 l 1,22,-1
 300 400 l 1,23,-1
 300 100 l 1,24,-1
 100 100 l 1,25,-1
 100 1100 l 1,26,-1
 300 1100 l 1,27,-1
 300 600 l 1,0,-1
EndSplineSet
EndChar

StartChar: uniFF4C.vert
Encoding: 65577 -1 146
Width: 1000
GlyphClass: 1
Flags: W
LayerCount: 2
Fore
SplineSet
200 900 m 1,0,-1
 200 1100 l 1,1,-1
 600 1100 l 1,2,-1
 600 300 l 1,3,-1
 800 300 l 1,4,-1
 800 100 l 1,5,-1
 100 100 l 1,6,-1
 100 300 l 1,7,-1
 400 300 l 1,8,-1
 400 900 l 1,9,-1
 200 900 l 1,0,-1
EndSplineSet
EndChar

StartChar: uniFF4D.vert
Encoding: 65578 -1 147
Width: 1000
GlyphClass: 1
Flags: W
LayerCount: 2
Fore
SplineSet
700 900 m 1,0,-1
 700 800 l 1,1,-1
 800 800 l 1,2,-1
 800 100 l 1,3,-1
 600 100 l 1,4,-1
 600 700 l 1,5,-1
 500 700 l 1,6,-1
 500 100 l 1,7,-1
 400 100 l 1,8,-1
 400 700 l 1,9,-1
 300 700 l 1,10,-1
 300 100 l 1,11,-1
 100 100 l 1,12,-1
 100 900 l 1,13,-1
 700 900 l 1,0,-1
EndSplineSet
EndChar

StartChar: uniFF4E.vert
Encoding: 65579 -1 148
Width: 1000
GlyphClass: 1
Flags: W
LayerCount: 2
Fore
SplineSet
700 800 m 1,0,-1
 800 800 l 1,1,-1
 800 100 l 1,2,-1
 600 100 l 1,3,-1
 600 700 l 1,4,-1
 300 700 l 1,5,-1
 300 100 l 1,6,-1
 100 100 l 1,7,-1
 100 900 l 1,8,-1
 700 900 l 1,9,-1
 700 800 l 1,0,-1
EndSplineSet
EndChar

StartChar: uniFF4F.vert
Encoding: 65580 -1 149
Width: 1000
GlyphClass: 1
Flags: W
LayerCount: 2
Fore
SplineSet
200 900 m 1,0,-1
 700 900 l 1,1,-1
 700 800 l 1,2,-1
 800 800 l 1,3,-1
 800 200 l 1,4,-1
 700 200 l 1,5,-1
 700 100 l 1,6,-1
 200 100 l 1,7,-1
 200 200 l 1,8,-1
 100 200 l 1,9,-1
 100 800 l 1,10,-1
 200 800 l 1,11,-1
 200 900 l 1,0,-1
600 300 m 1,12,-1
 600 700 l 1,13,-1
 300 700 l 1,14,-1
 300 300 l 1,15,-1
 600 300 l 1,12,-1
EndSplineSet
EndChar

StartChar: uniFF50.vert
Encoding: 65581 -1 150
Width: 1000
GlyphClass: 1
Flags: W
LayerCount: 2
Fore
SplineSet
700 800 m 1,0,-1
 800 800 l 1,1,-1
 800 300 l 1,2,-1
 700 300 l 1,3,-1
 700 200 l 1,4,-1
 400 200 l 1,5,-1
 400 400 l 1,6,-1
 600 400 l 1,7,-1
 600 700 l 1,8,-1
 300 700 l 1,9,-1
 300 0 l 1,10,-1
 100 0 l 1,11,-1
 100 900 l 1,12,-1
 700 900 l 1,13,-1
 700 800 l 1,0,-1
EndSplineSet
EndChar

StartChar: uniFF51.vert
Encoding: 65582 -1 151
Width: 1000
GlyphClass: 1
Flags: W
LayerCount: 2
Fore
SplineSet
200 900 m 1,0,-1
 800 900 l 1,1,-1
 800 0 l 1,2,-1
 600 0 l 1,3,-1
 600 700 l 1,4,-1
 300 700 l 1,5,-1
 300 400 l 1,6,-1
 500 400 l 1,7,-1
 500 200 l 1,8,-1
 200 200 l 1,9,-1
 200 300 l 1,10,-1
 100 300 l 1,11,-1
 100 800 l 1,12,-1
 200 800 l 1,13,-1
 200 900 l 1,0,-1
EndSplineSet
EndChar

StartChar: uniFF52.vert
Encoding: 65583 -1 152
Width: 1000
GlyphClass: 1
Flags: W
LayerCount: 2
Fore
SplineSet
300 800 m 1,0,-1
 400 800 l 1,1,-1
 400 900 l 1,2,-1
 800 900 l 1,3,-1
 800 700 l 1,4,-1
 500 700 l 1,5,-1
 500 600 l 1,6,-1
 400 600 l 1,7,-1
 400 500 l 1,8,-1
 300 500 l 1,9,-1
 300 100 l 1,10,-1
 100 100 l 1,11,-1
 100 900 l 1,12,-1
 300 900 l 1,13,-1
 300 800 l 1,0,-1
EndSplineSet
EndChar

StartChar: uniFF53.vert
Encoding: 65584 -1 153
Width: 1000
GlyphClass: 1
Flags: W
LayerCount: 2
Fore
SplineSet
600 400 m 1,0,-1
 200 400 l 1,1,-1
 200 500 l 1,2,-1
 100 500 l 1,3,-1
 100 800 l 1,4,-1
 200 800 l 1,5,-1
 200 900 l 1,6,-1
 800 900 l 1,7,-1
 800 700 l 1,8,-1
 300 700 l 1,9,-1
 300 600 l 1,10,-1
 700 600 l 1,11,-1
 700 500 l 1,12,-1
 800 500 l 1,13,-1
 800 200 l 1,14,-1
 700 200 l 1,15,-1
 700 100 l 1,16,-1
 100 100 l 1,17,-1
 100 300 l 1,18,-1
 600 300 l 1,19,-1
 600 400 l 1,0,-1
EndSplineSet
EndChar

StartChar: uniFF54.vert
Encoding: 65585 -1 154
Width: 1000
GlyphClass: 1
Flags: W
LayerCount: 2
Fore
SplineSet
100 700 m 1,0,-1
 100 900 l 1,1,-1
 300 900 l 1,2,-1
 300 1100 l 1,3,-1
 500 1100 l 1,4,-1
 500 900 l 1,5,-1
 800 900 l 1,6,-1
 800 700 l 1,7,-1
 500 700 l 1,8,-1
 500 300 l 1,9,-1
 800 300 l 1,10,-1
 800 100 l 1,11,-1
 400 100 l 1,12,-1
 400 200 l 1,13,-1
 300 200 l 1,14,-1
 300 700 l 1,15,-1
 100 700 l 1,0,-1
EndSplineSet
EndChar

StartChar: uniFF55.vert
Encoding: 65586 -1 155
Width: 1000
GlyphClass: 1
Flags: W
LayerCount: 2
Fore
SplineSet
300 300 m 1,0,-1
 600 300 l 1,1,-1
 600 900 l 1,2,-1
 800 900 l 1,3,-1
 800 100 l 1,4,-1
 200 100 l 1,5,-1
 200 200 l 1,6,-1
 100 200 l 1,7,-1
 100 900 l 1,8,-1
 300 900 l 1,9,-1
 300 300 l 1,0,-1
EndSplineSet
EndChar

StartChar: uniFF56.vert
Encoding: 65587 -1 156
Width: 1000
GlyphClass: 1
Flags: W
LayerCount: 2
Fore
SplineSet
300 600 m 1,0,-1
 400 600 l 1,1,-1
 400 400 l 1,2,-1
 500 400 l 1,3,-1
 500 600 l 1,4,-1
 600 600 l 1,5,-1
 600 900 l 1,6,-1
 800 900 l 1,7,-1
 800 500 l 1,8,-1
 700 500 l 1,9,-1
 700 300 l 1,10,-1
 600 300 l 1,11,-1
 600 100 l 1,12,-1
 300 100 l 1,13,-1
 300 300 l 1,14,-1
 200 300 l 1,15,-1
 200 500 l 1,16,-1
 100 500 l 1,17,-1
 100 900 l 1,18,-1
 300 900 l 1,19,-1
 300 600 l 1,0,-1
EndSplineSet
EndChar

StartChar: uniFF57.vert
Encoding: 65588 -1 157
Width: 1000
GlyphClass: 1
Flags: W
LayerCount: 2
Fore
SplineSet
300 900 m 1,0,-1
 300 300 l 1,1,-1
 400 300 l 1,2,-1
 400 800 l 1,3,-1
 500 800 l 1,4,-1
 500 300 l 1,5,-1
 600 300 l 1,6,-1
 600 900 l 1,7,-1
 800 900 l 1,8,-1
 800 200 l 1,9,-1
 700 200 l 1,10,-1
 700 100 l 1,11,-1
 500 100 l 1,12,-1
 500 200 l 1,13,-1
 400 200 l 1,14,-1
 400 100 l 1,15,-1
 200 100 l 1,16,-1
 200 200 l 1,17,-1
 100 200 l 1,18,-1
 100 900 l 1,19,-1
 300 900 l 1,0,-1
EndSplineSet
EndChar

StartChar: uniFF58.vert
Encoding: 65589 -1 158
Width: 1000
GlyphClass: 1
Flags: W
LayerCount: 2
Fore
SplineSet
200 400 m 1,0,-1
 300 400 l 1,1,-1
 300 600 l 1,2,-1
 200 600 l 1,3,-1
 200 700 l 1,4,-1
 100 700 l 1,5,-1
 100 900 l 1,6,-1
 300 900 l 1,7,-1
 300 800 l 1,8,-1
 400 800 l 1,9,-1
 400 700 l 1,10,-1
 500 700 l 1,11,-1
 500 800 l 1,12,-1
 600 800 l 1,13,-1
 600 900 l 1,14,-1
 800 900 l 1,15,-1
 800 700 l 1,16,-1
 700 700 l 1,17,-1
 700 600 l 1,18,-1
 600 600 l 1,19,-1
 600 400 l 1,20,-1
 700 400 l 1,21,-1
 700 300 l 1,22,-1
 800 300 l 1,23,-1
 800 100 l 1,24,-1
 600 100 l 1,25,-1
 600 200 l 1,26,-1
 500 200 l 1,27,-1
 500 300 l 1,28,-1
 400 300 l 1,29,-1
 400 200 l 1,30,-1
 300 200 l 1,31,-1
 300 100 l 1,32,-1
 100 100 l 1,33,-1
 100 300 l 1,34,-1
 200 300 l 1,35,-1
 200 400 l 1,0,-1
EndSplineSet
EndChar

StartChar: uniFF59.vert
Encoding: 65590 -1 159
Width: 1000
GlyphClass: 1
Flags: W
LayerCount: 2
Fore
SplineSet
300 500 m 1,0,-1
 600 500 l 1,1,-1
 600 900 l 1,2,-1
 800 900 l 1,3,-1
 800 100 l 1,4,-1
 700 100 l 1,5,-1
 700 0 l 1,6,-1
 200 0 l 1,7,-1
 200 200 l 1,8,-1
 600 200 l 1,9,-1
 600 300 l 1,10,-1
 200 300 l 1,11,-1
 200 400 l 1,12,-1
 100 400 l 1,13,-1
 100 900 l 1,14,-1
 300 900 l 1,15,-1
 300 500 l 1,0,-1
EndSplineSet
EndChar

StartChar: uniFF5A.vert
Encoding: 65591 -1 160
Width: 1000
GlyphClass: 1
Flags: W
LayerCount: 2
Fore
SplineSet
200 500 m 1,0,-1
 300 500 l 1,1,-1
 300 600 l 1,2,-1
 400 600 l 1,3,-1
 400 700 l 1,4,-1
 100 700 l 1,5,-1
 100 900 l 1,6,-1
 800 900 l 1,7,-1
 800 700 l 1,8,-1
 700 700 l 1,9,-1
 700 600 l 1,10,-1
 600 600 l 1,11,-1
 600 500 l 1,12,-1
 500 500 l 1,13,-1
 500 400 l 1,14,-1
 400 400 l 1,15,-1
 400 300 l 1,16,-1
 800 300 l 1,17,-1
 800 100 l 1,18,-1
 100 100 l 1,19,-1
 100 400 l 1,20,-1
 200 400 l 1,21,-1
 200 500 l 1,0,-1
EndSplineSet
EndChar

StartChar: uni3006
Encoding: 12294 12294 161
Width: 1000
GlyphClass: 1
Flags: W
LayerCount: 2
Fore
SplineSet
100 600 m 1,0,-1
 100 700 l 1,1,-1
 400 700 l 1,2,-1
 400 600 l 1,3,-1
 500 600 l 1,4,-1
 500 700 l 1,5,-1
 600 700 l 1,6,-1
 600 800 l 1,7,-1
 700 800 l 1,8,-1
 700 900 l 1,9,-1
 900 900 l 1,10,-1
 900 700 l 1,11,-1
 800 700 l 1,12,-1
 800 600 l 1,13,-1
 700 600 l 1,14,-1
 700 500 l 1,15,-1
 600 500 l 1,16,-1
 600 400 l 1,17,-1
 700 400 l 1,18,-1
 700 300 l 1,19,-1
 800 300 l 1,20,-1
 800 100 l 1,21,-1
 600 100 l 1,22,-1
 600 200 l 1,23,-1
 500 200 l 1,24,-1
 500 300 l 1,25,-1
 400 300 l 1,26,-1
 400 200 l 1,27,-1
 300 200 l 1,28,-1
 300 100 l 1,29,-1
 200 100 l 1,30,-1
 200 0 l 1,31,-1
 0 0 l 1,32,-1
 0 600 l 1,33,-1
 100 600 l 1,0,-1
300 400 m 1,34,-1
 300 500 l 1,35,-1
 200 500 l 1,36,-1
 200 400 l 1,37,-1
 300 400 l 1,34,-1
EndSplineSet
EndChar

StartChar: uni4E00
Encoding: 19968 19968 162
Width: 1000
GlyphClass: 1
Flags: W
LayerCount: 2
Fore
SplineSet
900 700 m 1,0,-1
 900 500 l 1,1,-1
 0 500 l 1,2,-1
 0 700 l 1,3,-1
 900 700 l 1,0,-1
EndSplineSet
EndChar

StartChar: uni4E01
Encoding: 19969 19969 163
Width: 1000
GlyphClass: 1
Flags: W
LayerCount: 2
Fore
SplineSet
900 1100 m 1,0,-1
 900 900 l 1,1,-1
 600 900 l 1,2,-1
 600 100 l 1,3,-1
 500 100 l 1,4,-1
 500 0 l 1,5,-1
 200 0 l 1,6,-1
 200 200 l 1,7,-1
 400 200 l 1,8,-1
 400 900 l 1,9,-1
 0 900 l 1,10,-1
 0 1100 l 1,11,-1
 900 1100 l 1,0,-1
EndSplineSet
EndChar

StartChar: uni4E03
Encoding: 19971 19971 164
Width: 1000
GlyphClass: 1
Flags: W
LayerCount: 2
Fore
SplineSet
200 700 m 1,0,-1
 200 1100 l 1,1,-1
 400 1100 l 1,2,-1
 400 800 l 1,3,-1
 600 800 l 1,4,-1
 600 900 l 1,5,-1
 900 900 l 1,6,-1
 900 700 l 1,7,-1
 600 700 l 1,8,-1
 600 600 l 1,9,-1
 400 600 l 1,10,-1
 400 200 l 1,11,-1
 700 200 l 1,12,-1
 700 400 l 1,13,-1
 900 400 l 1,14,-1
 900 0 l 1,15,-1
 300 0 l 1,16,-1
 300 100 l 1,17,-1
 200 100 l 1,18,-1
 200 500 l 1,19,-1
 0 500 l 1,20,-1
 0 700 l 1,21,-1
 200 700 l 1,0,-1
EndSplineSet
EndChar

StartChar: uni4E07
Encoding: 19975 19975 165
Width: 1000
GlyphClass: 1
Flags: W
LayerCount: 2
Fore
SplineSet
900 1100 m 1,0,-1
 900 900 l 1,1,-1
 400 900 l 1,2,-1
 400 700 l 1,3,-1
 900 700 l 1,4,-1
 900 100 l 1,5,-1
 800 100 l 1,6,-1
 800 0 l 1,7,-1
 400 0 l 1,8,-1
 400 200 l 1,9,-1
 700 200 l 1,10,-1
 700 500 l 1,11,-1
 400 500 l 1,12,-1
 400 300 l 1,13,-1
 300 300 l 1,14,-1
 300 100 l 1,15,-1
 200 100 l 1,16,-1
 200 0 l 1,17,-1
 0 0 l 1,18,-1
 0 200 l 1,19,-1
 100 200 l 1,20,-1
 100 400 l 1,21,-1
 200 400 l 1,22,-1
 200 900 l 1,23,-1
 0 900 l 1,24,-1
 0 1100 l 1,25,-1
 900 1100 l 1,0,-1
EndSplineSet
EndChar

StartChar: uni4E09
Encoding: 19977 19977 166
Width: 1000
GlyphClass: 1
Flags: W
LayerCount: 2
Fore
SplineSet
900 0 m 1,0,-1
 0 0 l 1,1,-1
 0 200 l 1,2,-1
 900 200 l 1,3,-1
 900 0 l 1,0,-1
800 1100 m 1,4,-1
 800 900 l 1,5,-1
 100 900 l 1,6,-1
 100 1100 l 1,7,-1
 800 1100 l 1,4,-1
700 700 m 1,8,-1
 700 500 l 1,9,-1
 200 500 l 1,10,-1
 200 700 l 1,11,-1
 700 700 l 1,8,-1
EndSplineSet
EndChar

StartChar: uni4E0A
Encoding: 19978 19978 167
Width: 1000
GlyphClass: 1
Flags: W
LayerCount: 2
Fore
SplineSet
300 200 m 1,0,-1
 300 1100 l 1,1,-1
 500 1100 l 1,2,-1
 500 800 l 1,3,-1
 800 800 l 1,4,-1
 800 600 l 1,5,-1
 500 600 l 1,6,-1
 500 200 l 1,7,-1
 900 200 l 1,8,-1
 900 0 l 1,9,-1
 0 0 l 1,10,-1
 0 200 l 1,11,-1
 300 200 l 1,0,-1
EndSplineSet
EndChar

StartChar: uni4E0B
Encoding: 19979 19979 168
Width: 1000
GlyphClass: 1
Flags: W
LayerCount: 2
Fore
SplineSet
900 1100 m 1,0,-1
 900 900 l 1,1,-1
 500 900 l 1,2,-1
 500 700 l 1,3,-1
 700 700 l 1,4,-1
 700 600 l 1,5,-1
 800 600 l 1,6,-1
 800 400 l 1,7,-1
 600 400 l 1,8,-1
 600 500 l 1,9,-1
 500 500 l 1,10,-1
 500 0 l 1,11,-1
 300 0 l 1,12,-1
 300 900 l 1,13,-1
 0 900 l 1,14,-1
 0 1100 l 1,15,-1
 900 1100 l 1,0,-1
EndSplineSet
EndChar

StartChar: uni4E0D
Encoding: 19981 19981 169
Width: 1000
GlyphClass: 1
Flags: W
LayerCount: 2
Fore
SplineSet
900 1100 m 1,0,-1
 900 900 l 1,1,-1
 500 900 l 1,2,-1
 500 0 l 1,3,-1
 300 0 l 1,4,-1
 300 500 l 1,5,-1
 200 500 l 1,6,-1
 200 400 l 1,7,-1
 0 400 l 1,8,-1
 0 600 l 1,9,-1
 100 600 l 1,10,-1
 100 700 l 1,11,-1
 200 700 l 1,12,-1
 200 800 l 1,13,-1
 300 800 l 1,14,-1
 300 900 l 1,15,-1
 0 900 l 1,16,-1
 0 1100 l 1,17,-1
 900 1100 l 1,0,-1
800 800 m 1,18,-1
 800 700 l 1,19,-1
 900 700 l 1,20,-1
 900 300 l 1,21,-1
 700 300 l 1,22,-1
 700 600 l 1,23,-1
 600 600 l 1,24,-1
 600 800 l 1,25,-1
 800 800 l 1,18,-1
EndSplineSet
EndChar

StartChar: uni4E16
Encoding: 19990 19990 170
Width: 1000
GlyphClass: 1
Flags: W
LayerCount: 2
Fore
SplineSet
200 1100 m 1,0,-1
 200 900 l 1,1,-1
 300 900 l 1,2,-1
 300 1100 l 1,3,-1
 500 1100 l 1,4,-1
 500 900 l 1,5,-1
 600 900 l 1,6,-1
 600 1100 l 1,7,-1
 800 1100 l 1,8,-1
 800 900 l 1,9,-1
 900 900 l 1,10,-1
 900 700 l 1,11,-1
 800 700 l 1,12,-1
 800 300 l 1,13,-1
 300 300 l 1,14,-1
 300 700 l 1,15,-1
 200 700 l 1,16,-1
 200 200 l 1,17,-1
 900 200 l 1,18,-1
 900 0 l 1,19,-1
 0 0 l 1,20,-1
 0 1100 l 1,21,-1
 200 1100 l 1,0,-1
500 700 m 1,22,-1
 500 500 l 1,23,-1
 600 500 l 1,24,-1
 600 700 l 1,25,-1
 500 700 l 1,22,-1
EndSplineSet
EndChar

StartChar: uni4E21
Encoding: 20001 20001 171
Width: 1000
GlyphClass: 1
Flags: W
LayerCount: 2
Fore
SplineSet
900 1100 m 1,0,-1
 900 900 l 1,1,-1
 600 900 l 1,2,-1
 600 800 l 1,3,-1
 900 800 l 1,4,-1
 900 0 l 1,5,-1
 700 0 l 1,6,-1
 700 200 l 1,7,-1
 200 200 l 1,8,-1
 200 0 l 1,9,-1
 0 0 l 1,10,-1
 0 800 l 1,11,-1
 300 800 l 1,12,-1
 300 900 l 1,13,-1
 0 900 l 1,14,-1
 0 1100 l 1,15,-1
 900 1100 l 1,0,-1
700 600 m 1,16,-1
 500 600 l 1,17,-1
 500 300 l 1,18,-1
 600 300 l 1,19,-1
 600 500 l 1,20,-1
 700 500 l 1,21,-1
 700 600 l 1,16,-1
200 600 m 1,22,-1
 200 500 l 1,23,-1
 300 500 l 1,24,-1
 300 300 l 1,25,-1
 400 300 l 1,26,-1
 400 600 l 1,27,-1
 200 600 l 1,22,-1
EndSplineSet
EndChar

StartChar: uni4E2D
Encoding: 20013 20013 172
Width: 1000
GlyphClass: 1
Flags: W
LayerCount: 2
Fore
SplineSet
0 300 m 1,0,-1
 0 1000 l 1,1,-1
 300 1000 l 1,2,-1
 300 1100 l 1,3,-1
 500 1100 l 1,4,-1
 500 1000 l 1,5,-1
 900 1000 l 1,6,-1
 900 300 l 1,7,-1
 500 300 l 1,8,-1
 500 0 l 1,9,-1
 300 0 l 1,10,-1
 300 300 l 1,11,-1
 0 300 l 1,0,-1
300 800 m 1,12,-1
 200 800 l 1,13,-1
 200 500 l 1,14,-1
 300 500 l 1,15,-1
 300 800 l 1,12,-1
500 800 m 1,16,-1
 500 500 l 1,17,-1
 700 500 l 1,18,-1
 700 800 l 1,19,-1
 500 800 l 1,16,-1
EndSplineSet
EndChar

StartChar: uni4E38
Encoding: 20024 20024 173
Width: 1000
GlyphClass: 1
Flags: W
LayerCount: 2
Fore
SplineSet
400 1100 m 1,0,-1
 400 900 l 1,1,-1
 800 900 l 1,2,-1
 800 300 l 1,3,-1
 900 300 l 1,4,-1
 900 100 l 1,5,-1
 800 100 l 1,6,-1
 800 0 l 1,7,-1
 600 0 l 1,8,-1
 600 700 l 1,9,-1
 400 700 l 1,10,-1
 400 500 l 1,11,-1
 500 500 l 1,12,-1
 500 300 l 1,13,-1
 400 300 l 1,14,-1
 400 100 l 1,15,-1
 300 100 l 1,16,-1
 300 0 l 1,17,-1
 0 0 l 1,18,-1
 0 200 l 1,19,-1
 200 200 l 1,20,-1
 200 400 l 1,21,-1
 0 400 l 1,22,-1
 0 600 l 1,23,-1
 200 600 l 1,24,-1
 200 700 l 1,25,-1
 0 700 l 1,26,-1
 0 900 l 1,27,-1
 200 900 l 1,28,-1
 200 1100 l 1,29,-1
 400 1100 l 1,0,-1
EndSplineSet
EndChar

StartChar: uni4E3B
Encoding: 20027 20027 174
Width: 1000
GlyphClass: 1
Flags: W
LayerCount: 2
Fore
SplineSet
600 1100 m 1,0,-1
 600 1000 l 1,1,-1
 900 1000 l 1,2,-1
 900 800 l 1,3,-1
 600 800 l 1,4,-1
 600 600 l 1,5,-1
 800 600 l 1,6,-1
 800 400 l 1,7,-1
 600 400 l 1,8,-1
 600 200 l 1,9,-1
 900 200 l 1,10,-1
 900 0 l 1,11,-1
 0 0 l 1,12,-1
 0 200 l 1,13,-1
 400 200 l 1,14,-1
 400 400 l 1,15,-1
 100 400 l 1,16,-1
 100 600 l 1,17,-1
 400 600 l 1,18,-1
 400 800 l 1,19,-1
 0 800 l 1,20,-1
 0 1000 l 1,21,-1
 300 1000 l 1,22,-1
 300 1100 l 1,23,-1
 600 1100 l 1,0,-1
EndSplineSet
EndChar

StartChar: uni4E57
Encoding: 20055 20055 175
Width: 1000
GlyphClass: 1
Flags: W
LayerCount: 2
Fore
SplineSet
800 1100 m 1,0,-1
 800 1000 l 1,1,-1
 500 1000 l 1,2,-1
 500 900 l 1,3,-1
 900 900 l 1,4,-1
 900 800 l 1,5,-1
 800 800 l 1,6,-1
 800 700 l 1,7,-1
 900 700 l 1,8,-1
 900 600 l 1,9,-1
 800 600 l 1,10,-1
 800 500 l 1,11,-1
 900 500 l 1,12,-1
 900 400 l 1,13,-1
 500 400 l 1,14,-1
 500 300 l 1,15,-1
 700 300 l 1,16,-1
 700 200 l 1,17,-1
 800 200 l 1,18,-1
 800 100 l 1,19,-1
 900 100 l 1,20,-1
 900 0 l 1,21,-1
 600 0 l 1,22,-1
 600 100 l 1,23,-1
 500 100 l 1,24,-1
 500 0 l 1,25,-1
 300 0 l 1,26,-1
 300 100 l 1,27,-1
 200 100 l 1,28,-1
 200 0 l 1,29,-1
 0 0 l 1,30,-1
 0 200 l 1,31,-1
 100 200 l 1,32,-1
 100 300 l 1,33,-1
 300 300 l 1,34,-1
 300 400 l 1,35,-1
 0 400 l 1,36,-1
 0 500 l 1,37,-1
 100 500 l 1,38,-1
 100 600 l 1,39,-1
 0 600 l 1,40,-1
 0 700 l 1,41,-1
 100 700 l 1,42,-1
 100 800 l 1,43,-1
 0 800 l 1,44,-1
 0 900 l 1,45,-1
 300 900 l 1,46,-1
 300 1000 l 1,47,-1
 100 1000 l 1,48,-1
 100 1100 l 1,49,-1
 800 1100 l 1,0,-1
600 800 m 1,50,-1
 500 800 l 1,51,-1
 500 700 l 1,52,-1
 600 700 l 1,53,-1
 600 800 l 1,50,-1
300 800 m 1,54,-1
 200 800 l 1,55,-1
 200 700 l 1,56,-1
 300 700 l 1,57,-1
 300 800 l 1,54,-1
600 500 m 1,58,-1
 600 600 l 1,59,-1
 500 600 l 1,60,-1
 500 500 l 1,61,-1
 600 500 l 1,58,-1
300 600 m 1,62,-1
 200 600 l 1,63,-1
 200 500 l 1,64,-1
 300 500 l 1,65,-1
 300 600 l 1,62,-1
EndSplineSet
EndChar

StartChar: uni4E5D
Encoding: 20061 20061 176
Width: 1000
GlyphClass: 1
Flags: W
LayerCount: 2
Fore
SplineSet
300 900 m 1,0,-1
 600 900 l 1,1,-1
 600 200 l 1,2,-1
 700 200 l 1,3,-1
 700 600 l 1,4,-1
 900 600 l 1,5,-1
 900 0 l 1,6,-1
 500 0 l 1,7,-1
 500 100 l 1,8,-1
 400 100 l 1,9,-1
 400 700 l 1,10,-1
 300 700 l 1,11,-1
 300 100 l 1,12,-1
 200 100 l 1,13,-1
 200 0 l 1,14,-1
 0 0 l 1,15,-1
 0 200 l 1,16,-1
 100 200 l 1,17,-1
 100 700 l 1,18,-1
 0 700 l 1,19,-1
 0 900 l 1,20,-1
 100 900 l 1,21,-1
 100 1100 l 1,22,-1
 300 1100 l 1,23,-1
 300 900 l 1,0,-1
EndSplineSet
EndChar

StartChar: uni4E88
Encoding: 20104 20104 177
Width: 1000
GlyphClass: 1
Flags: W
LayerCount: 2
Fore
SplineSet
800 1100 m 1,0,-1
 800 800 l 1,1,-1
 700 800 l 1,2,-1
 700 700 l 1,3,-1
 900 700 l 1,4,-1
 900 300 l 1,5,-1
 800 300 l 1,6,-1
 800 200 l 1,7,-1
 600 200 l 1,8,-1
 600 400 l 1,9,-1
 700 400 l 1,10,-1
 700 500 l 1,11,-1
 500 500 l 1,12,-1
 500 100 l 1,13,-1
 400 100 l 1,14,-1
 400 0 l 1,15,-1
 100 0 l 1,16,-1
 100 200 l 1,17,-1
 300 200 l 1,18,-1
 300 500 l 1,19,-1
 0 500 l 1,20,-1
 0 700 l 1,21,-1
 200 700 l 1,22,-1
 200 800 l 1,23,-1
 400 800 l 1,24,-1
 400 700 l 1,25,-1
 500 700 l 1,26,-1
 500 800 l 1,27,-1
 600 800 l 1,28,-1
 600 900 l 1,29,-1
 100 900 l 1,30,-1
 100 1100 l 1,31,-1
 800 1100 l 1,0,-1
EndSplineSet
EndChar

StartChar: uni4E89
Encoding: 20105 20105 178
Width: 1000
GlyphClass: 1
Flags: W
LayerCount: 2
Fore
SplineSet
700 1100 m 1,0,-1
 700 800 l 1,1,-1
 800 800 l 1,2,-1
 800 600 l 1,3,-1
 900 600 l 1,4,-1
 900 400 l 1,5,-1
 800 400 l 1,6,-1
 800 200 l 1,7,-1
 500 200 l 1,8,-1
 500 100 l 1,9,-1
 400 100 l 1,10,-1
 400 0 l 1,11,-1
 100 0 l 1,12,-1
 100 200 l 1,13,-1
 300 200 l 1,14,-1
 300 300 l 1,15,-1
 0 300 l 1,16,-1
 0 400 l 1,17,-1
 300 400 l 1,18,-1
 300 500 l 1,19,-1
 0 500 l 1,20,-1
 0 600 l 1,21,-1
 300 600 l 1,22,-1
 300 700 l 1,23,-1
 0 700 l 1,24,-1
 0 900 l 1,25,-1
 100 900 l 1,26,-1
 100 1000 l 1,27,-1
 200 1000 l 1,28,-1
 200 1100 l 1,29,-1
 700 1100 l 1,0,-1
500 900 m 1,30,-1
 300 900 l 1,31,-1
 300 800 l 1,32,-1
 500 800 l 1,33,-1
 500 900 l 1,30,-1
600 700 m 1,34,-1
 500 700 l 1,35,-1
 500 600 l 1,36,-1
 600 600 l 1,37,-1
 600 700 l 1,34,-1
600 500 m 1,38,-1
 500 500 l 1,39,-1
 500 400 l 1,40,-1
 600 400 l 1,41,-1
 600 500 l 1,38,-1
EndSplineSet
EndChar

StartChar: uni4E8B
Encoding: 20107 20107 179
Width: 1000
GlyphClass: 1
Flags: W
LayerCount: 2
Fore
SplineSet
300 1000 m 1,0,-1
 300 1100 l 1,1,-1
 500 1100 l 1,2,-1
 500 1000 l 1,3,-1
 900 1000 l 1,4,-1
 900 800 l 1,5,-1
 800 800 l 1,6,-1
 800 500 l 1,7,-1
 900 500 l 1,8,-1
 900 300 l 1,9,-1
 800 300 l 1,10,-1
 800 100 l 1,11,-1
 500 100 l 1,12,-1
 500 0 l 1,13,-1
 300 0 l 1,14,-1
 300 100 l 1,15,-1
 100 100 l 1,16,-1
 100 300 l 1,17,-1
 300 300 l 1,18,-1
 300 400 l 1,19,-1
 0 400 l 1,20,-1
 0 500 l 1,21,-1
 300 500 l 1,22,-1
 300 600 l 1,23,-1
 0 600 l 1,24,-1
 0 700 l 1,25,-1
 100 700 l 1,26,-1
 100 800 l 1,27,-1
 0 800 l 1,28,-1
 0 1000 l 1,29,-1
 300 1000 l 1,0,-1
200 800 m 1,30,-1
 200 700 l 1,31,-1
 300 700 l 1,32,-1
 300 800 l 1,33,-1
 200 800 l 1,30,-1
600 800 m 1,34,-1
 500 800 l 1,35,-1
 500 700 l 1,36,-1
 600 700 l 1,37,-1
 600 800 l 1,34,-1
500 600 m 1,38,-1
 500 500 l 1,39,-1
 600 500 l 1,40,-1
 600 600 l 1,41,-1
 500 600 l 1,38,-1
500 400 m 1,42,-1
 500 300 l 1,43,-1
 600 300 l 1,44,-1
 600 400 l 1,45,-1
 500 400 l 1,42,-1
EndSplineSet
EndChar

StartChar: uni4E8C
Encoding: 20108 20108 180
Width: 1000
GlyphClass: 1
Flags: W
LayerCount: 2
Fore
SplineSet
900 0 m 1,0,-1
 0 0 l 1,1,-1
 0 200 l 1,2,-1
 900 200 l 1,3,-1
 900 0 l 1,0,-1
800 1000 m 1,4,-1
 800 800 l 1,5,-1
 100 800 l 1,6,-1
 100 1000 l 1,7,-1
 800 1000 l 1,4,-1
EndSplineSet
EndChar

StartChar: uni4E94
Encoding: 20116 20116 181
Width: 1000
GlyphClass: 1
Flags: W
LayerCount: 2
Fore
SplineSet
900 200 m 1,0,-1
 900 0 l 1,1,-1
 0 0 l 1,2,-1
 0 200 l 1,3,-1
 200 200 l 1,4,-1
 200 500 l 1,5,-1
 100 500 l 1,6,-1
 100 700 l 1,7,-1
 300 700 l 1,8,-1
 300 900 l 1,9,-1
 100 900 l 1,10,-1
 100 1100 l 1,11,-1
 800 1100 l 1,12,-1
 800 900 l 1,13,-1
 500 900 l 1,14,-1
 500 700 l 1,15,-1
 800 700 l 1,16,-1
 800 200 l 1,17,-1
 900 200 l 1,0,-1
600 500 m 1,18,-1
 400 500 l 1,19,-1
 400 200 l 1,20,-1
 600 200 l 1,21,-1
 600 500 l 1,18,-1
EndSplineSet
EndChar

StartChar: uni4EA4
Encoding: 20132 20132 182
Width: 1000
GlyphClass: 1
Flags: W
LayerCount: 2
Fore
SplineSet
600 1100 m 1,0,-1
 600 1000 l 1,1,-1
 900 1000 l 1,2,-1
 900 800 l 1,3,-1
 800 800 l 1,4,-1
 800 600 l 1,5,-1
 900 600 l 1,6,-1
 900 400 l 1,7,-1
 700 400 l 1,8,-1
 700 500 l 1,9,-1
 600 500 l 1,10,-1
 600 300 l 1,11,-1
 700 300 l 1,12,-1
 700 200 l 1,13,-1
 900 200 l 1,14,-1
 900 0 l 1,15,-1
 600 0 l 1,16,-1
 600 100 l 1,17,-1
 500 100 l 1,18,-1
 500 200 l 1,19,-1
 400 200 l 1,20,-1
 400 100 l 1,21,-1
 300 100 l 1,22,-1
 300 0 l 1,23,-1
 0 0 l 1,24,-1
 0 200 l 1,25,-1
 200 200 l 1,26,-1
 200 300 l 1,27,-1
 300 300 l 1,28,-1
 300 500 l 1,29,-1
 200 500 l 1,30,-1
 200 400 l 1,31,-1
 0 400 l 1,32,-1
 0 600 l 1,33,-1
 100 600 l 1,34,-1
 100 800 l 1,35,-1
 0 800 l 1,36,-1
 0 1000 l 1,37,-1
 300 1000 l 1,38,-1
 300 1100 l 1,39,-1
 600 1100 l 1,0,-1
300 800 m 1,40,-1
 300 700 l 1,41,-1
 400 700 l 1,42,-1
 400 600 l 1,43,-1
 500 600 l 1,44,-1
 500 700 l 1,45,-1
 600 700 l 1,46,-1
 600 800 l 1,47,-1
 300 800 l 1,40,-1
EndSplineSet
EndChar

StartChar: uni4EAC
Encoding: 20140 20140 183
Width: 1000
GlyphClass: 1
Flags: W
LayerCount: 2
Fore
SplineSet
600 1100 m 1,0,-1
 600 1000 l 1,1,-1
 900 1000 l 1,2,-1
 900 800 l 1,3,-1
 800 800 l 1,4,-1
 800 500 l 1,5,-1
 600 500 l 1,6,-1
 600 100 l 1,7,-1
 500 100 l 1,8,-1
 500 0 l 1,9,-1
 300 0 l 1,10,-1
 300 200 l 1,11,-1
 400 200 l 1,12,-1
 400 500 l 1,13,-1
 100 500 l 1,14,-1
 100 800 l 1,15,-1
 0 800 l 1,16,-1
 0 1000 l 1,17,-1
 300 1000 l 1,18,-1
 300 1100 l 1,19,-1
 600 1100 l 1,0,-1
600 800 m 1,20,-1
 300 800 l 1,21,-1
 300 700 l 1,22,-1
 600 700 l 1,23,-1
 600 800 l 1,20,-1
200 200 m 1,24,-1
 200 100 l 1,25,-1
 0 100 l 1,26,-1
 0 300 l 1,27,-1
 100 300 l 1,28,-1
 100 400 l 1,29,-1
 300 400 l 1,30,-1
 300 200 l 1,31,-1
 200 200 l 1,24,-1
900 400 m 1,32,-1
 900 100 l 1,33,-1
 700 100 l 1,34,-1
 700 400 l 1,35,-1
 900 400 l 1,32,-1
EndSplineSet
EndChar

StartChar: uni4EBA
Encoding: 20154 20154 184
Width: 1000
GlyphClass: 1
Flags: W
LayerCount: 2
Fore
SplineSet
100 200 m 1,0,-1
 100 400 l 1,1,-1
 200 400 l 1,2,-1
 200 700 l 1,3,-1
 300 700 l 1,4,-1
 300 1100 l 1,5,-1
 600 1100 l 1,6,-1
 600 700 l 1,7,-1
 700 700 l 1,8,-1
 700 400 l 1,9,-1
 800 400 l 1,10,-1
 800 200 l 1,11,-1
 900 200 l 1,12,-1
 900 0 l 1,13,-1
 700 0 l 1,14,-1
 700 100 l 1,15,-1
 600 100 l 1,16,-1
 600 300 l 1,17,-1
 500 300 l 1,18,-1
 500 500 l 1,19,-1
 400 500 l 1,20,-1
 400 300 l 1,21,-1
 300 300 l 1,22,-1
 300 100 l 1,23,-1
 200 100 l 1,24,-1
 200 0 l 1,25,-1
 0 0 l 1,26,-1
 0 200 l 1,27,-1
 100 200 l 1,0,-1
EndSplineSet
EndChar

StartChar: uni4ECA
Encoding: 20170 20170 185
Width: 1000
GlyphClass: 1
Flags: W
LayerCount: 2
Fore
SplineSet
600 1100 m 1,0,-1
 600 1000 l 1,1,-1
 700 1000 l 1,2,-1
 700 900 l 1,3,-1
 800 900 l 1,4,-1
 800 800 l 1,5,-1
 900 800 l 1,6,-1
 900 600 l 1,7,-1
 700 600 l 1,8,-1
 700 700 l 1,9,-1
 600 700 l 1,10,-1
 600 800 l 1,11,-1
 500 800 l 1,12,-1
 500 900 l 1,13,-1
 400 900 l 1,14,-1
 400 800 l 1,15,-1
 300 800 l 1,16,-1
 300 700 l 1,17,-1
 200 700 l 1,18,-1
 200 600 l 1,19,-1
 0 600 l 1,20,-1
 0 800 l 1,21,-1
 100 800 l 1,22,-1
 100 900 l 1,23,-1
 200 900 l 1,24,-1
 200 1000 l 1,25,-1
 300 1000 l 1,26,-1
 300 1100 l 1,27,-1
 600 1100 l 1,0,-1
600 700 m 1,28,-1
 600 600 l 1,29,-1
 300 600 l 1,30,-1
 300 700 l 1,31,-1
 600 700 l 1,28,-1
800 500 m 1,32,-1
 800 200 l 1,33,-1
 700 200 l 1,34,-1
 700 100 l 1,35,-1
 600 100 l 1,36,-1
 600 0 l 1,37,-1
 300 0 l 1,38,-1
 300 200 l 1,39,-1
 500 200 l 1,40,-1
 500 300 l 1,41,-1
 100 300 l 1,42,-1
 100 500 l 1,43,-1
 800 500 l 1,32,-1
EndSplineSet
EndChar

StartChar: uni4ED5
Encoding: 20181 20181 186
Width: 1000
GlyphClass: 1
Flags: W
LayerCount: 2
Fore
SplineSet
100 800 m 1,0,-1
 100 900 l 1,1,-1
 200 900 l 1,2,-1
 200 1100 l 1,3,-1
 400 1100 l 1,4,-1
 400 800 l 1,5,-1
 300 800 l 1,6,-1
 300 0 l 1,7,-1
 100 0 l 1,8,-1
 100 600 l 1,9,-1
 0 600 l 1,10,-1
 0 800 l 1,11,-1
 100 800 l 1,0,-1
800 1100 m 1,12,-1
 800 800 l 1,13,-1
 900 800 l 1,14,-1
 900 600 l 1,15,-1
 800 600 l 1,16,-1
 800 200 l 1,17,-1
 900 200 l 1,18,-1
 900 0 l 1,19,-1
 400 0 l 1,20,-1
 400 200 l 1,21,-1
 600 200 l 1,22,-1
 600 600 l 1,23,-1
 400 600 l 1,24,-1
 400 800 l 1,25,-1
 600 800 l 1,26,-1
 600 1100 l 1,27,-1
 800 1100 l 1,12,-1
EndSplineSet
EndChar

StartChar: uni4ED6
Encoding: 20182 20182 187
Width: 1000
GlyphClass: 1
Flags: W
LayerCount: 2
Fore
SplineSet
300 1100 m 1,0,-1
 300 700 l 1,1,-1
 400 700 l 1,2,-1
 400 1000 l 1,3,-1
 500 1000 l 1,4,-1
 500 800 l 1,5,-1
 600 800 l 1,6,-1
 600 1100 l 1,7,-1
 800 1100 l 1,8,-1
 800 900 l 1,9,-1
 900 900 l 1,10,-1
 900 500 l 1,11,-1
 800 500 l 1,12,-1
 800 700 l 1,13,-1
 700 700 l 1,14,-1
 700 400 l 1,15,-1
 600 400 l 1,16,-1
 600 600 l 1,17,-1
 500 600 l 1,18,-1
 500 200 l 1,19,-1
 700 200 l 1,20,-1
 700 400 l 1,21,-1
 900 400 l 1,22,-1
 900 0 l 1,23,-1
 500 0 l 1,24,-1
 500 100 l 1,25,-1
 400 100 l 1,26,-1
 400 500 l 1,27,-1
 300 500 l 1,28,-1
 300 0 l 1,29,-1
 100 0 l 1,30,-1
 100 600 l 1,31,-1
 0 600 l 1,32,-1
 0 800 l 1,33,-1
 100 800 l 1,34,-1
 100 1100 l 1,35,-1
 300 1100 l 1,0,-1
EndSplineSet
EndChar

StartChar: uni4ED8
Encoding: 20184 20184 188
Width: 1000
GlyphClass: 1
Flags: W
LayerCount: 2
Fore
SplineSet
400 1100 m 1,0,-1
 400 800 l 1,1,-1
 300 800 l 1,2,-1
 300 0 l 1,3,-1
 100 0 l 1,4,-1
 100 600 l 1,5,-1
 0 600 l 1,6,-1
 0 800 l 1,7,-1
 100 800 l 1,8,-1
 100 900 l 1,9,-1
 200 900 l 1,10,-1
 200 1100 l 1,11,-1
 400 1100 l 1,0,-1
900 1100 m 1,12,-1
 900 100 l 1,13,-1
 800 100 l 1,14,-1
 800 0 l 1,15,-1
 500 0 l 1,16,-1
 500 200 l 1,17,-1
 700 200 l 1,18,-1
 700 300 l 1,19,-1
 500 300 l 1,20,-1
 500 400 l 1,21,-1
 400 400 l 1,22,-1
 400 600 l 1,23,-1
 600 600 l 1,24,-1
 600 500 l 1,25,-1
 700 500 l 1,26,-1
 700 700 l 1,27,-1
 500 700 l 1,28,-1
 500 900 l 1,29,-1
 700 900 l 1,30,-1
 700 1100 l 1,31,-1
 900 1100 l 1,12,-1
EndSplineSet
EndChar

StartChar: uni4EE3
Encoding: 20195 20195 189
Width: 1000
GlyphClass: 1
Flags: W
LayerCount: 2
Fore
SplineSet
300 1100 m 1,0,-1
 300 700 l 1,1,-1
 400 700 l 1,2,-1
 400 1100 l 1,3,-1
 600 1100 l 1,4,-1
 600 800 l 1,5,-1
 900 800 l 1,6,-1
 900 600 l 1,7,-1
 600 600 l 1,8,-1
 600 200 l 1,9,-1
 700 200 l 1,10,-1
 700 400 l 1,11,-1
 900 400 l 1,12,-1
 900 0 l 1,13,-1
 500 0 l 1,14,-1
 500 100 l 1,15,-1
 400 100 l 1,16,-1
 400 500 l 1,17,-1
 300 500 l 1,18,-1
 300 0 l 1,19,-1
 100 0 l 1,20,-1
 100 600 l 1,21,-1
 0 600 l 1,22,-1
 0 800 l 1,23,-1
 100 800 l 1,24,-1
 100 1100 l 1,25,-1
 300 1100 l 1,0,-1
900 900 m 1,26,-1
 700 900 l 1,27,-1
 700 1100 l 1,28,-1
 900 1100 l 1,29,-1
 900 900 l 1,26,-1
EndSplineSet
EndChar

StartChar: uni4EE4
Encoding: 20196 20196 190
Width: 1000
GlyphClass: 1
Flags: W
LayerCount: 2
Fore
SplineSet
700 1000 m 1,0,-1
 800 1000 l 1,1,-1
 800 900 l 1,2,-1
 900 900 l 1,3,-1
 900 700 l 1,4,-1
 700 700 l 1,5,-1
 700 800 l 1,6,-1
 600 800 l 1,7,-1
 600 900 l 1,8,-1
 300 900 l 1,9,-1
 300 800 l 1,10,-1
 200 800 l 1,11,-1
 200 700 l 1,12,-1
 0 700 l 1,13,-1
 0 900 l 1,14,-1
 100 900 l 1,15,-1
 100 1000 l 1,16,-1
 200 1000 l 1,17,-1
 200 1100 l 1,18,-1
 700 1100 l 1,19,-1
 700 1000 l 1,0,-1
600 800 m 1,20,-1
 600 700 l 1,21,-1
 300 700 l 1,22,-1
 300 800 l 1,23,-1
 600 800 l 1,20,-1
900 600 m 1,24,-1
 900 200 l 1,25,-1
 800 200 l 1,26,-1
 800 100 l 1,27,-1
 600 100 l 1,28,-1
 600 300 l 1,29,-1
 700 300 l 1,30,-1
 700 400 l 1,31,-1
 500 400 l 1,32,-1
 500 0 l 1,33,-1
 300 0 l 1,34,-1
 300 400 l 1,35,-1
 100 400 l 1,36,-1
 100 600 l 1,37,-1
 900 600 l 1,24,-1
EndSplineSet
EndChar

StartChar: uni4EE5
Encoding: 20197 20197 191
Width: 1000
GlyphClass: 1
Flags: W
LayerCount: 2
Fore
SplineSet
300 1100 m 1,0,-1
 300 900 l 1,1,-1
 500 900 l 1,2,-1
 500 800 l 1,3,-1
 600 800 l 1,4,-1
 600 600 l 1,5,-1
 400 600 l 1,6,-1
 400 700 l 1,7,-1
 300 700 l 1,8,-1
 300 500 l 1,9,-1
 400 500 l 1,10,-1
 400 300 l 1,11,-1
 200 300 l 1,12,-1
 200 200 l 1,13,-1
 0 200 l 1,14,-1
 0 400 l 1,15,-1
 100 400 l 1,16,-1
 100 1100 l 1,17,-1
 300 1100 l 1,0,-1
900 1100 m 1,18,-1
 900 500 l 1,19,-1
 800 500 l 1,20,-1
 800 300 l 1,21,-1
 900 300 l 1,22,-1
 900 0 l 1,23,-1
 700 0 l 1,24,-1
 700 200 l 1,25,-1
 600 200 l 1,26,-1
 600 100 l 1,27,-1
 500 100 l 1,28,-1
 500 0 l 1,29,-1
 200 0 l 1,30,-1
 200 200 l 1,31,-1
 400 200 l 1,32,-1
 400 300 l 1,33,-1
 500 300 l 1,34,-1
 500 400 l 1,35,-1
 600 400 l 1,36,-1
 600 600 l 1,37,-1
 700 600 l 1,38,-1
 700 1100 l 1,39,-1
 900 1100 l 1,18,-1
EndSplineSet
EndChar

StartChar: uni4EF2
Encoding: 20210 20210 192
Width: 1000
GlyphClass: 1
Flags: W
LayerCount: 2
Fore
SplineSet
400 1100 m 1,0,-1
 400 900 l 1,1,-1
 500 900 l 1,2,-1
 500 1100 l 1,3,-1
 700 1100 l 1,4,-1
 700 900 l 1,5,-1
 900 900 l 1,6,-1
 900 200 l 1,7,-1
 700 200 l 1,8,-1
 700 0 l 1,9,-1
 500 0 l 1,10,-1
 500 200 l 1,11,-1
 300 200 l 1,12,-1
 300 0 l 1,13,-1
 100 0 l 1,14,-1
 100 600 l 1,15,-1
 0 600 l 1,16,-1
 0 800 l 1,17,-1
 100 800 l 1,18,-1
 100 900 l 1,19,-1
 200 900 l 1,20,-1
 200 1100 l 1,21,-1
 400 1100 l 1,0,-1
500 700 m 1,22,-1
 400 700 l 1,23,-1
 400 400 l 1,24,-1
 500 400 l 1,25,-1
 500 700 l 1,22,-1
700 400 m 1,26,-1
 700 700 l 1,27,-1
 600 700 l 1,28,-1
 600 400 l 1,29,-1
 700 400 l 1,26,-1
EndSplineSet
EndChar

StartChar: uni4F11
Encoding: 20241 20241 193
Width: 1000
GlyphClass: 1
Flags: W
LayerCount: 2
Fore
SplineSet
300 900 m 1,0,-1
 500 900 l 1,1,-1
 500 1100 l 1,2,-1
 700 1100 l 1,3,-1
 700 900 l 1,4,-1
 900 900 l 1,5,-1
 900 700 l 1,6,-1
 700 700 l 1,7,-1
 700 600 l 1,8,-1
 800 600 l 1,9,-1
 800 500 l 1,10,-1
 900 500 l 1,11,-1
 900 200 l 1,12,-1
 800 200 l 1,13,-1
 800 300 l 1,14,-1
 700 300 l 1,15,-1
 700 0 l 1,16,-1
 500 0 l 1,17,-1
 500 300 l 1,18,-1
 400 300 l 1,19,-1
 400 200 l 1,20,-1
 300 200 l 1,21,-1
 300 0 l 1,22,-1
 100 0 l 1,23,-1
 100 600 l 1,24,-1
 0 600 l 1,25,-1
 0 800 l 1,26,-1
 100 800 l 1,27,-1
 100 1100 l 1,28,-1
 300 1100 l 1,29,-1
 300 900 l 1,0,-1
500 700 m 1,30,-1
 300 700 l 1,31,-1
 300 500 l 1,32,-1
 400 500 l 1,33,-1
 400 600 l 1,34,-1
 500 600 l 1,35,-1
 500 700 l 1,30,-1
EndSplineSet
EndChar

StartChar: uni4F1A
Encoding: 20250 20250 194
Width: 1000
GlyphClass: 1
Flags: W
LayerCount: 2
Fore
SplineSet
600 1000 m 1,0,-1
 700 1000 l 1,1,-1
 700 900 l 1,2,-1
 800 900 l 1,3,-1
 800 800 l 1,4,-1
 900 800 l 1,5,-1
 900 600 l 1,6,-1
 700 600 l 1,7,-1
 700 700 l 1,8,-1
 600 700 l 1,9,-1
 600 800 l 1,10,-1
 500 800 l 1,11,-1
 500 900 l 1,12,-1
 400 900 l 1,13,-1
 400 800 l 1,14,-1
 300 800 l 1,15,-1
 300 700 l 1,16,-1
 200 700 l 1,17,-1
 200 600 l 1,18,-1
 0 600 l 1,19,-1
 0 800 l 1,20,-1
 100 800 l 1,21,-1
 100 900 l 1,22,-1
 200 900 l 1,23,-1
 200 1000 l 1,24,-1
 300 1000 l 1,25,-1
 300 1100 l 1,26,-1
 600 1100 l 1,27,-1
 600 1000 l 1,0,-1
600 700 m 1,28,-1
 600 600 l 1,29,-1
 300 600 l 1,30,-1
 300 700 l 1,31,-1
 600 700 l 1,28,-1
800 400 m 1,32,-1
 500 400 l 1,33,-1
 500 300 l 1,34,-1
 400 300 l 1,35,-1
 400 200 l 1,36,-1
 600 200 l 1,37,-1
 600 300 l 1,38,-1
 800 300 l 1,39,-1
 800 200 l 1,40,-1
 900 200 l 1,41,-1
 900 0 l 1,42,-1
 700 0 l 1,43,-1
 700 100 l 1,44,-1
 600 100 l 1,45,-1
 600 0 l 1,46,-1
 0 0 l 1,47,-1
 0 200 l 1,48,-1
 100 200 l 1,49,-1
 100 300 l 1,50,-1
 200 300 l 1,51,-1
 200 400 l 1,52,-1
 100 400 l 1,53,-1
 100 500 l 1,54,-1
 800 500 l 1,55,-1
 800 400 l 1,32,-1
EndSplineSet
EndChar

StartChar: uni4F1D
Encoding: 20253 20253 195
Width: 1000
GlyphClass: 1
Flags: W
LayerCount: 2
Fore
SplineSet
400 1100 m 1,0,-1
 400 800 l 1,1,-1
 300 800 l 1,2,-1
 300 0 l 1,3,-1
 100 0 l 1,4,-1
 100 600 l 1,5,-1
 0 600 l 1,6,-1
 0 800 l 1,7,-1
 100 800 l 1,8,-1
 100 900 l 1,9,-1
 200 900 l 1,10,-1
 200 1100 l 1,11,-1
 400 1100 l 1,0,-1
900 1100 m 1,12,-1
 900 900 l 1,13,-1
 500 900 l 1,14,-1
 500 1100 l 1,15,-1
 900 1100 l 1,12,-1
900 800 m 1,16,-1
 900 600 l 1,17,-1
 700 600 l 1,18,-1
 700 400 l 1,19,-1
 600 400 l 1,20,-1
 600 200 l 1,21,-1
 700 200 l 1,22,-1
 700 300 l 1,23,-1
 900 300 l 1,24,-1
 900 0 l 1,25,-1
 400 0 l 1,26,-1
 400 400 l 1,27,-1
 500 400 l 1,28,-1
 500 600 l 1,29,-1
 400 600 l 1,30,-1
 400 800 l 1,31,-1
 900 800 l 1,16,-1
EndSplineSet
EndChar

StartChar: uni4F4D
Encoding: 20301 20301 196
Width: 1000
GlyphClass: 1
Flags: W
LayerCount: 2
Fore
SplineSet
400 1100 m 1,0,-1
 400 900 l 1,1,-1
 600 900 l 1,2,-1
 600 1100 l 1,3,-1
 800 1100 l 1,4,-1
 800 900 l 1,5,-1
 900 900 l 1,6,-1
 900 700 l 1,7,-1
 400 700 l 1,8,-1
 400 800 l 1,9,-1
 300 800 l 1,10,-1
 300 0 l 1,11,-1
 100 0 l 1,12,-1
 100 600 l 1,13,-1
 0 600 l 1,14,-1
 0 800 l 1,15,-1
 100 800 l 1,16,-1
 100 900 l 1,17,-1
 200 900 l 1,18,-1
 200 1100 l 1,19,-1
 400 1100 l 1,0,-1
900 300 m 1,20,-1
 800 300 l 1,21,-1
 800 200 l 1,22,-1
 900 200 l 1,23,-1
 900 0 l 1,24,-1
 400 0 l 1,25,-1
 400 200 l 1,26,-1
 600 200 l 1,27,-1
 600 400 l 1,28,-1
 700 400 l 1,29,-1
 700 600 l 1,30,-1
 900 600 l 1,31,-1
 900 300 l 1,20,-1
400 400 m 1,32,-1
 400 600 l 1,33,-1
 600 600 l 1,34,-1
 600 400 l 1,35,-1
 400 400 l 1,32,-1
EndSplineSet
EndChar

StartChar: uni4F4E
Encoding: 20302 20302 197
Width: 1000
GlyphClass: 1
Flags: W
LayerCount: 2
Fore
SplineSet
200 900 m 1,0,-1
 200 1100 l 1,1,-1
 400 1100 l 1,2,-1
 400 1000 l 1,3,-1
 700 1000 l 1,4,-1
 700 1100 l 1,5,-1
 900 1100 l 1,6,-1
 900 900 l 1,7,-1
 800 900 l 1,8,-1
 800 700 l 1,9,-1
 900 700 l 1,10,-1
 900 500 l 1,11,-1
 800 500 l 1,12,-1
 800 400 l 1,13,-1
 900 400 l 1,14,-1
 900 200 l 1,15,-1
 700 200 l 1,16,-1
 700 500 l 1,17,-1
 600 500 l 1,18,-1
 600 200 l 1,19,-1
 400 200 l 1,20,-1
 400 800 l 1,21,-1
 300 800 l 1,22,-1
 300 0 l 1,23,-1
 100 0 l 1,24,-1
 100 600 l 1,25,-1
 0 600 l 1,26,-1
 0 800 l 1,27,-1
 100 800 l 1,28,-1
 100 900 l 1,29,-1
 200 900 l 1,0,-1
900 100 m 1,30,-1
 900 0 l 1,31,-1
 400 0 l 1,32,-1
 400 100 l 1,33,-1
 900 100 l 1,30,-1
700 700 m 1,34,-1
 700 800 l 1,35,-1
 600 800 l 1,36,-1
 600 700 l 1,37,-1
 700 700 l 1,34,-1
EndSplineSet
EndChar

StartChar: uni4F4F
Encoding: 20303 20303 198
Width: 1000
GlyphClass: 1
Flags: W
LayerCount: 2
Fore
SplineSet
300 1100 m 1,0,-1
 300 0 l 1,1,-1
 100 0 l 1,2,-1
 100 600 l 1,3,-1
 0 600 l 1,4,-1
 0 800 l 1,5,-1
 100 800 l 1,6,-1
 100 1100 l 1,7,-1
 300 1100 l 1,0,-1
700 1000 m 1,8,-1
 900 1000 l 1,9,-1
 900 800 l 1,10,-1
 800 800 l 1,11,-1
 800 600 l 1,12,-1
 900 600 l 1,13,-1
 900 400 l 1,14,-1
 800 400 l 1,15,-1
 800 200 l 1,16,-1
 900 200 l 1,17,-1
 900 0 l 1,18,-1
 400 0 l 1,19,-1
 400 200 l 1,20,-1
 600 200 l 1,21,-1
 600 400 l 1,22,-1
 400 400 l 1,23,-1
 400 600 l 1,24,-1
 600 600 l 1,25,-1
 600 800 l 1,26,-1
 400 800 l 1,27,-1
 400 1000 l 1,28,-1
 500 1000 l 1,29,-1
 500 1100 l 1,30,-1
 700 1100 l 1,31,-1
 700 1000 l 1,8,-1
EndSplineSet
EndChar

StartChar: uni4F53
Encoding: 20307 20307 199
Width: 1000
GlyphClass: 1
Flags: W
LayerCount: 2
Fore
SplineSet
100 800 m 1,0,-1
 100 1100 l 1,1,-1
 300 1100 l 1,2,-1
 300 1000 l 1,3,-1
 500 1000 l 1,4,-1
 500 1100 l 1,5,-1
 700 1100 l 1,6,-1
 700 1000 l 1,7,-1
 900 1000 l 1,8,-1
 900 800 l 1,9,-1
 700 800 l 1,10,-1
 700 700 l 1,11,-1
 800 700 l 1,12,-1
 800 600 l 1,13,-1
 900 600 l 1,14,-1
 900 300 l 1,15,-1
 800 300 l 1,16,-1
 800 400 l 1,17,-1
 700 400 l 1,18,-1
 700 300 l 1,19,-1
 800 300 l 1,20,-1
 800 100 l 1,21,-1
 700 100 l 1,22,-1
 700 0 l 1,23,-1
 500 0 l 1,24,-1
 500 100 l 1,25,-1
 400 100 l 1,26,-1
 400 300 l 1,27,-1
 500 300 l 1,28,-1
 500 400 l 1,29,-1
 400 400 l 1,30,-1
 400 300 l 1,31,-1
 300 300 l 1,32,-1
 300 0 l 1,33,-1
 100 0 l 1,34,-1
 100 600 l 1,35,-1
 0 600 l 1,36,-1
 0 800 l 1,37,-1
 100 800 l 1,0,-1
300 800 m 1,38,-1
 300 600 l 1,39,-1
 400 600 l 1,40,-1
 400 700 l 1,41,-1
 500 700 l 1,42,-1
 500 800 l 1,43,-1
 300 800 l 1,38,-1
EndSplineSet
EndChar

StartChar: uni4F55
Encoding: 20309 20309 200
Width: 1000
GlyphClass: 1
Flags: W
LayerCount: 2
Fore
SplineSet
900 100 m 1,0,-1
 800 100 l 1,1,-1
 800 0 l 1,2,-1
 500 0 l 1,3,-1
 500 200 l 1,4,-1
 700 200 l 1,5,-1
 700 300 l 1,6,-1
 400 300 l 1,7,-1
 400 700 l 1,8,-1
 700 700 l 1,9,-1
 700 800 l 1,10,-1
 500 800 l 1,11,-1
 500 1000 l 1,12,-1
 900 1000 l 1,13,-1
 900 100 l 1,0,-1
400 1100 m 1,14,-1
 400 800 l 1,15,-1
 300 800 l 1,16,-1
 300 0 l 1,17,-1
 100 0 l 1,18,-1
 100 600 l 1,19,-1
 0 600 l 1,20,-1
 0 800 l 1,21,-1
 100 800 l 1,22,-1
 100 900 l 1,23,-1
 200 900 l 1,24,-1
 200 1100 l 1,25,-1
 400 1100 l 1,14,-1
600 600 m 1,26,-1
 500 600 l 1,27,-1
 500 400 l 1,28,-1
 600 400 l 1,29,-1
 600 600 l 1,26,-1
EndSplineSet
EndChar

StartChar: uni4F5C
Encoding: 20316 20316 201
Width: 1000
GlyphClass: 1
Flags: W
LayerCount: 2
Fore
SplineSet
0 600 m 1,0,-1
 0 800 l 1,1,-1
 100 800 l 1,2,-1
 100 900 l 1,3,-1
 200 900 l 1,4,-1
 200 1100 l 1,5,-1
 400 1100 l 1,6,-1
 400 800 l 1,7,-1
 300 800 l 1,8,-1
 300 0 l 1,9,-1
 100 0 l 1,10,-1
 100 600 l 1,11,-1
 0 600 l 1,0,-1
700 1100 m 1,12,-1
 700 1000 l 1,13,-1
 900 1000 l 1,14,-1
 900 800 l 1,15,-1
 700 800 l 1,16,-1
 700 700 l 1,17,-1
 900 700 l 1,18,-1
 900 500 l 1,19,-1
 700 500 l 1,20,-1
 700 400 l 1,21,-1
 900 400 l 1,22,-1
 900 200 l 1,23,-1
 700 200 l 1,24,-1
 700 0 l 1,25,-1
 500 0 l 1,26,-1
 500 600 l 1,27,-1
 400 600 l 1,28,-1
 400 800 l 1,29,-1
 500 800 l 1,30,-1
 500 1100 l 1,31,-1
 700 1100 l 1,12,-1
EndSplineSet
EndChar

StartChar: uni4F7F
Encoding: 20351 20351 202
Width: 1000
GlyphClass: 1
Flags: W
LayerCount: 2
Fore
SplineSet
300 1100 m 1,0,-1
 300 0 l 1,1,-1
 100 0 l 1,2,-1
 100 600 l 1,3,-1
 0 600 l 1,4,-1
 0 800 l 1,5,-1
 100 800 l 1,6,-1
 100 1100 l 1,7,-1
 300 1100 l 1,0,-1
600 1000 m 1,8,-1
 600 1100 l 1,9,-1
 800 1100 l 1,10,-1
 800 1000 l 1,11,-1
 900 1000 l 1,12,-1
 900 800 l 1,13,-1
 800 800 l 1,14,-1
 800 700 l 1,15,-1
 900 700 l 1,16,-1
 900 400 l 1,17,-1
 800 400 l 1,18,-1
 800 200 l 1,19,-1
 900 200 l 1,20,-1
 900 0 l 1,21,-1
 700 0 l 1,22,-1
 700 100 l 1,23,-1
 600 100 l 1,24,-1
 600 0 l 1,25,-1
 400 0 l 1,26,-1
 400 100 l 1,27,-1
 500 100 l 1,28,-1
 500 200 l 1,29,-1
 400 200 l 1,30,-1
 400 300 l 1,31,-1
 600 300 l 1,32,-1
 600 400 l 1,33,-1
 400 400 l 1,34,-1
 400 700 l 1,35,-1
 600 700 l 1,36,-1
 600 800 l 1,37,-1
 400 800 l 1,38,-1
 400 1000 l 1,39,-1
 600 1000 l 1,8,-1
700 600 m 1,40,-1
 700 500 l 1,41,-1
 800 500 l 1,42,-1
 800 600 l 1,43,-1
 700 600 l 1,40,-1
500 600 m 1,44,-1
 500 500 l 1,45,-1
 600 500 l 1,46,-1
 600 600 l 1,47,-1
 500 600 l 1,44,-1
EndSplineSet
EndChar

StartChar: uni4F8B
Encoding: 20363 20363 203
Width: 1000
GlyphClass: 1
Flags: W
LayerCount: 2
Fore
SplineSet
300 1100 m 1,0,-1
 300 1000 l 1,1,-1
 700 1000 l 1,2,-1
 700 1100 l 1,3,-1
 900 1100 l 1,4,-1
 900 100 l 1,5,-1
 800 100 l 1,6,-1
 800 0 l 1,7,-1
 600 0 l 1,8,-1
 600 200 l 1,9,-1
 700 200 l 1,10,-1
 700 400 l 1,11,-1
 600 400 l 1,12,-1
 600 200 l 1,13,-1
 500 200 l 1,14,-1
 500 100 l 1,15,-1
 300 100 l 1,16,-1
 300 0 l 1,17,-1
 100 0 l 1,18,-1
 100 600 l 1,19,-1
 0 600 l 1,20,-1
 0 800 l 1,21,-1
 100 800 l 1,22,-1
 100 1100 l 1,23,-1
 300 1100 l 1,0,-1
700 900 m 1,24,-1
 600 900 l 1,25,-1
 600 800 l 1,26,-1
 700 800 l 1,27,-1
 700 900 l 1,24,-1
300 900 m 1,28,-1
 300 800 l 1,29,-1
 400 800 l 1,30,-1
 400 900 l 1,31,-1
 300 900 l 1,28,-1
400 700 m 1,32,-1
 400 500 l 1,33,-1
 500 500 l 1,34,-1
 500 700 l 1,35,-1
 400 700 l 1,32,-1
300 400 m 1,36,-1
 300 300 l 1,37,-1
 400 300 l 1,38,-1
 400 400 l 1,39,-1
 300 400 l 1,36,-1
EndSplineSet
EndChar

StartChar: uni4FBF
Encoding: 20415 20415 204
Width: 1000
GlyphClass: 1
Flags: W
LayerCount: 2
Fore
SplineSet
300 1100 m 1,0,-1
 300 0 l 1,1,-1
 100 0 l 1,2,-1
 100 600 l 1,3,-1
 0 600 l 1,4,-1
 0 800 l 1,5,-1
 100 800 l 1,6,-1
 100 1100 l 1,7,-1
 300 1100 l 1,0,-1
500 900 m 1,8,-1
 500 1000 l 1,9,-1
 400 1000 l 1,10,-1
 400 1100 l 1,11,-1
 900 1100 l 1,12,-1
 900 1000 l 1,13,-1
 700 1000 l 1,14,-1
 700 900 l 1,15,-1
 900 900 l 1,16,-1
 900 300 l 1,17,-1
 700 300 l 1,18,-1
 700 200 l 1,19,-1
 900 200 l 1,20,-1
 900 0 l 1,21,-1
 700 0 l 1,22,-1
 700 100 l 1,23,-1
 600 100 l 1,24,-1
 600 0 l 1,25,-1
 400 0 l 1,26,-1
 400 100 l 1,27,-1
 500 100 l 1,28,-1
 500 200 l 1,29,-1
 400 200 l 1,30,-1
 400 300 l 1,31,-1
 500 300 l 1,32,-1
 500 400 l 1,33,-1
 400 400 l 1,34,-1
 400 900 l 1,35,-1
 500 900 l 1,8,-1
500 800 m 1,36,-1
 500 700 l 1,37,-1
 600 700 l 1,38,-1
 600 800 l 1,39,-1
 500 800 l 1,36,-1
700 800 m 1,40,-1
 700 700 l 1,41,-1
 800 700 l 1,42,-1
 800 800 l 1,43,-1
 700 800 l 1,40,-1
700 600 m 1,44,-1
 700 500 l 1,45,-1
 800 500 l 1,46,-1
 800 600 l 1,47,-1
 700 600 l 1,44,-1
500 600 m 1,48,-1
 500 500 l 1,49,-1
 600 500 l 1,50,-1
 600 600 l 1,51,-1
 500 600 l 1,48,-1
EndSplineSet
EndChar

StartChar: uni4FC2
Encoding: 20418 20418 205
Width: 1000
GlyphClass: 1
Flags: W
LayerCount: 2
Fore
SplineSet
300 1100 m 1,0,-1
 300 0 l 1,1,-1
 100 0 l 1,2,-1
 100 600 l 1,3,-1
 0 600 l 1,4,-1
 0 800 l 1,5,-1
 100 800 l 1,6,-1
 100 1100 l 1,7,-1
 300 1100 l 1,0,-1
900 1100 m 1,8,-1
 900 900 l 1,9,-1
 700 900 l 1,10,-1
 700 800 l 1,11,-1
 600 800 l 1,12,-1
 600 700 l 1,13,-1
 700 700 l 1,14,-1
 700 800 l 1,15,-1
 900 800 l 1,16,-1
 900 600 l 1,17,-1
 800 600 l 1,18,-1
 800 500 l 1,19,-1
 900 500 l 1,20,-1
 900 300 l 1,21,-1
 700 300 l 1,22,-1
 700 0 l 1,23,-1
 500 0 l 1,24,-1
 500 100 l 1,25,-1
 400 100 l 1,26,-1
 400 200 l 1,27,-1
 500 200 l 1,28,-1
 500 300 l 1,29,-1
 400 300 l 1,30,-1
 400 500 l 1,31,-1
 500 500 l 1,32,-1
 500 600 l 1,33,-1
 400 600 l 1,34,-1
 400 800 l 1,35,-1
 500 800 l 1,36,-1
 500 900 l 1,37,-1
 400 900 l 1,38,-1
 400 1100 l 1,39,-1
 900 1100 l 1,8,-1
900 200 m 1,40,-1
 900 0 l 1,41,-1
 800 0 l 1,42,-1
 800 200 l 1,43,-1
 900 200 l 1,40,-1
EndSplineSet
EndChar

StartChar: uni4FE1
Encoding: 20449 20449 206
Width: 1000
GlyphClass: 1
Flags: W
LayerCount: 2
Fore
SplineSet
300 1100 m 1,0,-1
 300 0 l 1,1,-1
 100 0 l 1,2,-1
 100 600 l 1,3,-1
 0 600 l 1,4,-1
 0 800 l 1,5,-1
 100 800 l 1,6,-1
 100 1100 l 1,7,-1
 300 1100 l 1,0,-1
800 1100 m 1,8,-1
 800 1000 l 1,9,-1
 900 1000 l 1,10,-1
 900 900 l 1,11,-1
 400 900 l 1,12,-1
 400 1000 l 1,13,-1
 500 1000 l 1,14,-1
 500 1100 l 1,15,-1
 800 1100 l 1,8,-1
900 700 m 1,16,-1
 400 700 l 1,17,-1
 400 800 l 1,18,-1
 900 800 l 1,19,-1
 900 700 l 1,16,-1
900 500 m 1,20,-1
 400 500 l 1,21,-1
 400 600 l 1,22,-1
 900 600 l 1,23,-1
 900 500 l 1,20,-1
900 400 m 1,24,-1
 900 0 l 1,25,-1
 400 0 l 1,26,-1
 400 400 l 1,27,-1
 900 400 l 1,24,-1
700 200 m 1,28,-1
 700 300 l 1,29,-1
 500 300 l 1,30,-1
 500 200 l 1,31,-1
 700 200 l 1,28,-1
EndSplineSet
EndChar

StartChar: uni5009
Encoding: 20489 20489 207
Width: 1000
GlyphClass: 1
Flags: W
LayerCount: 2
Fore
SplineSet
700 1000 m 1,0,-1
 800 1000 l 1,1,-1
 800 900 l 1,2,-1
 900 900 l 1,3,-1
 900 700 l 1,4,-1
 800 700 l 1,5,-1
 800 300 l 1,6,-1
 900 300 l 1,7,-1
 900 0 l 1,8,-1
 200 0 l 1,9,-1
 200 100 l 1,10,-1
 0 100 l 1,11,-1
 0 300 l 1,12,-1
 100 300 l 1,13,-1
 100 700 l 1,14,-1
 0 700 l 1,15,-1
 0 900 l 1,16,-1
 100 900 l 1,17,-1
 100 1000 l 1,18,-1
 200 1000 l 1,19,-1
 200 1100 l 1,20,-1
 700 1100 l 1,21,-1
 700 1000 l 1,0,-1
300 900 m 1,22,-1
 300 800 l 1,23,-1
 200 800 l 1,24,-1
 200 700 l 1,25,-1
 300 700 l 1,26,-1
 300 800 l 1,27,-1
 600 800 l 1,28,-1
 600 700 l 1,29,-1
 700 700 l 1,30,-1
 700 800 l 1,31,-1
 600 800 l 1,32,-1
 600 900 l 1,33,-1
 300 900 l 1,22,-1
600 600 m 1,34,-1
 300 600 l 1,35,-1
 300 500 l 1,36,-1
 600 500 l 1,37,-1
 600 600 l 1,34,-1
600 300 m 1,38,-1
 600 400 l 1,39,-1
 300 400 l 1,40,-1
 300 300 l 1,41,-1
 600 300 l 1,38,-1
700 200 m 1,42,-1
 400 200 l 1,43,-1
 400 100 l 1,44,-1
 700 100 l 1,45,-1
 700 200 l 1,42,-1
EndSplineSet
EndChar

StartChar: uni500D
Encoding: 20493 20493 208
Width: 1000
GlyphClass: 1
Flags: W
LayerCount: 2
Fore
SplineSet
300 1100 m 1,0,-1
 300 0 l 1,1,-1
 100 0 l 1,2,-1
 100 600 l 1,3,-1
 0 600 l 1,4,-1
 0 800 l 1,5,-1
 100 800 l 1,6,-1
 100 1100 l 1,7,-1
 300 1100 l 1,0,-1
800 1100 m 1,8,-1
 800 1000 l 1,9,-1
 900 1000 l 1,10,-1
 900 800 l 1,11,-1
 800 800 l 1,12,-1
 800 700 l 1,13,-1
 900 700 l 1,14,-1
 900 500 l 1,15,-1
 400 500 l 1,16,-1
 400 700 l 1,17,-1
 500 700 l 1,18,-1
 500 800 l 1,19,-1
 400 800 l 1,20,-1
 400 1000 l 1,21,-1
 600 1000 l 1,22,-1
 600 1100 l 1,23,-1
 800 1100 l 1,8,-1
600 800 m 1,24,-1
 600 700 l 1,25,-1
 700 700 l 1,26,-1
 700 800 l 1,27,-1
 600 800 l 1,24,-1
900 400 m 1,28,-1
 900 0 l 1,29,-1
 400 0 l 1,30,-1
 400 400 l 1,31,-1
 900 400 l 1,28,-1
600 300 m 1,32,-1
 600 200 l 1,33,-1
 700 200 l 1,34,-1
 700 300 l 1,35,-1
 600 300 l 1,32,-1
EndSplineSet
EndChar

StartChar: uni5019
Encoding: 20505 20505 209
Width: 1000
GlyphClass: 1
Flags: W
LayerCount: 2
Fore
SplineSet
300 1100 m 1,0,-1
 300 900 l 1,1,-1
 600 900 l 1,2,-1
 600 1000 l 1,3,-1
 400 1000 l 1,4,-1
 400 1100 l 1,5,-1
 800 1100 l 1,6,-1
 800 900 l 1,7,-1
 900 900 l 1,8,-1
 900 800 l 1,9,-1
 600 800 l 1,10,-1
 600 700 l 1,11,-1
 900 700 l 1,12,-1
 900 500 l 1,13,-1
 800 500 l 1,14,-1
 800 400 l 1,15,-1
 900 400 l 1,16,-1
 900 300 l 1,17,-1
 800 300 l 1,18,-1
 800 200 l 1,19,-1
 900 200 l 1,20,-1
 900 0 l 1,21,-1
 700 0 l 1,22,-1
 700 100 l 1,23,-1
 600 100 l 1,24,-1
 600 0 l 1,25,-1
 400 0 l 1,26,-1
 400 200 l 1,27,-1
 600 200 l 1,28,-1
 600 300 l 1,29,-1
 300 300 l 1,30,-1
 300 0 l 1,31,-1
 100 0 l 1,32,-1
 100 600 l 1,33,-1
 0 600 l 1,34,-1
 0 800 l 1,35,-1
 100 800 l 1,36,-1
 100 1100 l 1,37,-1
 300 1100 l 1,0,-1
500 500 m 1,38,-1
 500 400 l 1,39,-1
 600 400 l 1,40,-1
 600 500 l 1,41,-1
 500 500 l 1,38,-1
400 800 m 1,42,-1
 300 800 l 1,43,-1
 300 600 l 1,44,-1
 400 600 l 1,45,-1
 400 800 l 1,42,-1
EndSplineSet
EndChar

StartChar: uni501F
Encoding: 20511 20511 210
Width: 1000
GlyphClass: 1
Flags: W
LayerCount: 2
Fore
SplineSet
300 1000 m 1,0,-1
 400 1000 l 1,1,-1
 400 1100 l 1,2,-1
 500 1100 l 1,3,-1
 500 1000 l 1,4,-1
 600 1000 l 1,5,-1
 600 1100 l 1,6,-1
 800 1100 l 1,7,-1
 800 1000 l 1,8,-1
 900 1000 l 1,9,-1
 900 800 l 1,10,-1
 800 800 l 1,11,-1
 800 700 l 1,12,-1
 900 700 l 1,13,-1
 900 500 l 1,14,-1
 800 500 l 1,15,-1
 800 0 l 1,16,-1
 400 0 l 1,17,-1
 400 500 l 1,18,-1
 300 500 l 1,19,-1
 300 0 l 1,20,-1
 100 0 l 1,21,-1
 100 600 l 1,22,-1
 0 600 l 1,23,-1
 0 800 l 1,24,-1
 100 800 l 1,25,-1
 100 1100 l 1,26,-1
 300 1100 l 1,27,-1
 300 1000 l 1,0,-1
500 800 m 1,28,-1
 500 700 l 1,29,-1
 600 700 l 1,30,-1
 600 800 l 1,31,-1
 500 800 l 1,28,-1
300 800 m 1,32,-1
 300 700 l 1,33,-1
 400 700 l 1,34,-1
 400 800 l 1,35,-1
 300 800 l 1,32,-1
600 300 m 1,36,-1
 500 300 l 1,37,-1
 500 200 l 1,38,-1
 600 200 l 1,39,-1
 600 300 l 1,36,-1
500 500 m 1,40,-1
 500 400 l 1,41,-1
 600 400 l 1,42,-1
 600 500 l 1,43,-1
 500 500 l 1,40,-1
EndSplineSet
EndChar

StartChar: uni505C
Encoding: 20572 20572 211
Width: 1000
GlyphClass: 1
Flags: W
LayerCount: 2
Fore
SplineSet
300 1100 m 1,0,-1
 300 1000 l 1,1,-1
 500 1000 l 1,2,-1
 500 1100 l 1,3,-1
 700 1100 l 1,4,-1
 700 1000 l 1,5,-1
 900 1000 l 1,6,-1
 900 800 l 1,7,-1
 800 800 l 1,8,-1
 800 700 l 1,9,-1
 900 700 l 1,10,-1
 900 300 l 1,11,-1
 800 300 l 1,12,-1
 800 100 l 1,13,-1
 700 100 l 1,14,-1
 700 0 l 1,15,-1
 400 0 l 1,16,-1
 400 200 l 1,17,-1
 600 200 l 1,18,-1
 600 300 l 1,19,-1
 400 300 l 1,20,-1
 400 400 l 1,21,-1
 300 400 l 1,22,-1
 300 0 l 1,23,-1
 100 0 l 1,24,-1
 100 600 l 1,25,-1
 0 600 l 1,26,-1
 0 800 l 1,27,-1
 100 800 l 1,28,-1
 100 1100 l 1,29,-1
 300 1100 l 1,0,-1
300 800 m 1,30,-1
 300 700 l 1,31,-1
 400 700 l 1,32,-1
 400 800 l 1,33,-1
 300 800 l 1,30,-1
700 700 m 1,34,-1
 700 800 l 1,35,-1
 500 800 l 1,36,-1
 500 700 l 1,37,-1
 700 700 l 1,34,-1
400 600 m 1,38,-1
 400 500 l 1,39,-1
 800 500 l 1,40,-1
 800 600 l 1,41,-1
 400 600 l 1,38,-1
EndSplineSet
EndChar

StartChar: uni5065
Encoding: 20581 20581 212
Width: 1000
GlyphClass: 1
Flags: W
LayerCount: 2
Fore
SplineSet
300 1100 m 1,0,-1
 300 1000 l 1,1,-1
 600 1000 l 1,2,-1
 600 1100 l 1,3,-1
 800 1100 l 1,4,-1
 800 1000 l 1,5,-1
 900 1000 l 1,6,-1
 900 500 l 1,7,-1
 800 500 l 1,8,-1
 800 400 l 1,9,-1
 900 400 l 1,10,-1
 900 300 l 1,11,-1
 800 300 l 1,12,-1
 800 200 l 1,13,-1
 900 200 l 1,14,-1
 900 0 l 1,15,-1
 500 0 l 1,16,-1
 500 100 l 1,17,-1
 400 100 l 1,18,-1
 400 0 l 1,19,-1
 100 0 l 1,20,-1
 100 600 l 1,21,-1
 0 600 l 1,22,-1
 0 800 l 1,23,-1
 100 800 l 1,24,-1
 100 1100 l 1,25,-1
 300 1100 l 1,0,-1
700 900 m 1,26,-1
 700 800 l 1,27,-1
 800 800 l 1,28,-1
 800 900 l 1,29,-1
 700 900 l 1,26,-1
700 700 m 1,30,-1
 700 600 l 1,31,-1
 800 600 l 1,32,-1
 800 700 l 1,33,-1
 700 700 l 1,30,-1
600 800 m 1,34,-1
 600 900 l 1,35,-1
 500 900 l 1,36,-1
 500 800 l 1,37,-1
 600 800 l 1,34,-1
600 600 m 1,38,-1
 600 700 l 1,39,-1
 500 700 l 1,40,-1
 500 600 l 1,41,-1
 600 600 l 1,38,-1
600 400 m 1,42,-1
 600 500 l 1,43,-1
 500 500 l 1,44,-1
 500 400 l 1,45,-1
 600 400 l 1,42,-1
500 300 m 1,46,-1
 500 200 l 1,47,-1
 600 200 l 1,48,-1
 600 300 l 1,49,-1
 500 300 l 1,46,-1
300 800 m 1,50,-1
 300 700 l 1,51,-1
 400 700 l 1,52,-1
 400 800 l 1,53,-1
 300 800 l 1,50,-1
300 400 m 1,54,-1
 300 300 l 1,55,-1
 400 300 l 1,56,-1
 400 400 l 1,57,-1
 300 400 l 1,54,-1
EndSplineSet
EndChar

StartChar: uni5074
Encoding: 20596 20596 213
Width: 1000
GlyphClass: 1
Flags: W
LayerCount: 2
Fore
SplineSet
300 1100 m 1,0,-1
 300 1000 l 1,1,-1
 600 1000 l 1,2,-1
 600 900 l 1,3,-1
 700 900 l 1,4,-1
 700 1100 l 1,5,-1
 900 1100 l 1,6,-1
 900 100 l 1,7,-1
 800 100 l 1,8,-1
 800 0 l 1,9,-1
 600 0 l 1,10,-1
 600 200 l 1,11,-1
 700 200 l 1,12,-1
 700 400 l 1,13,-1
 600 400 l 1,14,-1
 600 300 l 1,15,-1
 300 300 l 1,16,-1
 300 0 l 1,17,-1
 100 0 l 1,18,-1
 100 600 l 1,19,-1
 0 600 l 1,20,-1
 0 800 l 1,21,-1
 100 800 l 1,22,-1
 100 1100 l 1,23,-1
 300 1100 l 1,0,-1
400 900 m 1,24,-1
 400 800 l 1,25,-1
 500 800 l 1,26,-1
 500 900 l 1,27,-1
 400 900 l 1,24,-1
400 700 m 1,28,-1
 400 600 l 1,29,-1
 500 600 l 1,30,-1
 500 700 l 1,31,-1
 400 700 l 1,28,-1
400 500 m 1,32,-1
 400 400 l 1,33,-1
 500 400 l 1,34,-1
 500 500 l 1,35,-1
 400 500 l 1,32,-1
500 200 m 1,36,-1
 500 0 l 1,37,-1
 400 0 l 1,38,-1
 400 200 l 1,39,-1
 500 200 l 1,36,-1
EndSplineSet
EndChar

StartChar: uni50CD
Encoding: 20685 20685 214
Width: 1000
GlyphClass: 1
Flags: W
LayerCount: 2
Fore
SplineSet
300 1100 m 1,0,-1
 300 1000 l 1,1,-1
 600 1000 l 1,2,-1
 600 1100 l 1,3,-1
 800 1100 l 1,4,-1
 800 1000 l 1,5,-1
 900 1000 l 1,6,-1
 900 0 l 1,7,-1
 700 0 l 1,8,-1
 700 200 l 1,9,-1
 800 200 l 1,10,-1
 800 800 l 1,11,-1
 700 800 l 1,12,-1
 700 200 l 1,13,-1
 600 200 l 1,14,-1
 600 0 l 1,15,-1
 400 0 l 1,16,-1
 400 200 l 1,17,-1
 300 200 l 1,18,-1
 300 0 l 1,19,-1
 100 0 l 1,20,-1
 100 600 l 1,21,-1
 0 600 l 1,22,-1
 0 800 l 1,23,-1
 100 800 l 1,24,-1
 100 1100 l 1,25,-1
 300 1100 l 1,0,-1
500 800 m 1,26,-1
 500 700 l 1,27,-1
 600 700 l 1,28,-1
 600 800 l 1,29,-1
 500 800 l 1,26,-1
500 600 m 1,30,-1
 500 500 l 1,31,-1
 600 500 l 1,32,-1
 600 600 l 1,33,-1
 500 600 l 1,30,-1
500 400 m 1,34,-1
 500 300 l 1,35,-1
 600 300 l 1,36,-1
 600 400 l 1,37,-1
 500 400 l 1,34,-1
300 800 m 1,38,-1
 300 700 l 1,39,-1
 400 700 l 1,40,-1
 400 800 l 1,41,-1
 300 800 l 1,38,-1
300 600 m 1,42,-1
 300 500 l 1,43,-1
 400 500 l 1,44,-1
 400 600 l 1,45,-1
 300 600 l 1,42,-1
300 400 m 1,46,-1
 300 300 l 1,47,-1
 400 300 l 1,48,-1
 400 400 l 1,49,-1
 300 400 l 1,46,-1
EndSplineSet
EndChar

StartChar: uni5104
Encoding: 20740 20740 215
Width: 1000
GlyphClass: 1
Flags: W
LayerCount: 2
Fore
SplineSet
300 1100 m 1,0,-1
 300 1000 l 1,1,-1
 500 1000 l 1,2,-1
 500 1100 l 1,3,-1
 700 1100 l 1,4,-1
 700 1000 l 1,5,-1
 900 1000 l 1,6,-1
 900 900 l 1,7,-1
 800 900 l 1,8,-1
 800 800 l 1,9,-1
 900 800 l 1,10,-1
 900 500 l 1,11,-1
 400 500 l 1,12,-1
 400 700 l 1,13,-1
 300 700 l 1,14,-1
 300 300 l 1,15,-1
 400 300 l 1,16,-1
 400 400 l 1,17,-1
 500 400 l 1,18,-1
 500 200 l 1,19,-1
 900 200 l 1,20,-1
 900 0 l 1,21,-1
 400 0 l 1,22,-1
 400 100 l 1,23,-1
 300 100 l 1,24,-1
 300 0 l 1,25,-1
 100 0 l 1,26,-1
 100 600 l 1,27,-1
 0 600 l 1,28,-1
 0 800 l 1,29,-1
 100 800 l 1,30,-1
 100 1100 l 1,31,-1
 300 1100 l 1,0,-1
300 900 m 1,32,-1
 300 800 l 1,33,-1
 400 800 l 1,34,-1
 400 900 l 1,35,-1
 300 900 l 1,32,-1
500 900 m 1,36,-1
 500 800 l 1,37,-1
 700 800 l 1,38,-1
 700 900 l 1,39,-1
 500 900 l 1,36,-1
500 700 m 1,40,-1
 500 600 l 1,41,-1
 700 600 l 1,42,-1
 700 700 l 1,43,-1
 500 700 l 1,40,-1
900 400 m 1,44,-1
 900 300 l 1,45,-1
 800 300 l 1,46,-1
 800 400 l 1,47,-1
 900 400 l 1,44,-1
700 400 m 1,48,-1
 700 300 l 1,49,-1
 600 300 l 1,50,-1
 600 400 l 1,51,-1
 700 400 l 1,48,-1
EndSplineSet
EndChar

StartChar: uni5143
Encoding: 20803 20803 216
Width: 1000
GlyphClass: 1
Flags: W
LayerCount: 2
Fore
SplineSet
800 1100 m 1,0,-1
 800 900 l 1,1,-1
 100 900 l 1,2,-1
 100 1100 l 1,3,-1
 800 1100 l 1,0,-1
900 800 m 1,4,-1
 900 600 l 1,5,-1
 600 600 l 1,6,-1
 600 200 l 1,7,-1
 700 200 l 1,8,-1
 700 400 l 1,9,-1
 900 400 l 1,10,-1
 900 100 l 1,11,-1
 800 100 l 1,12,-1
 800 0 l 1,13,-1
 400 0 l 1,14,-1
 400 600 l 1,15,-1
 300 600 l 1,16,-1
 300 100 l 1,17,-1
 200 100 l 1,18,-1
 200 0 l 1,19,-1
 0 0 l 1,20,-1
 0 200 l 1,21,-1
 100 200 l 1,22,-1
 100 600 l 1,23,-1
 0 600 l 1,24,-1
 0 800 l 1,25,-1
 900 800 l 1,4,-1
EndSplineSet
EndChar

StartChar: uni5144
Encoding: 20804 20804 217
Width: 1000
GlyphClass: 1
Flags: W
LayerCount: 2
Fore
SplineSet
800 1100 m 1,0,-1
 800 500 l 1,1,-1
 600 500 l 1,2,-1
 600 200 l 1,3,-1
 700 200 l 1,4,-1
 700 400 l 1,5,-1
 900 400 l 1,6,-1
 900 100 l 1,7,-1
 800 100 l 1,8,-1
 800 0 l 1,9,-1
 400 0 l 1,10,-1
 400 500 l 1,11,-1
 300 500 l 1,12,-1
 300 100 l 1,13,-1
 200 100 l 1,14,-1
 200 0 l 1,15,-1
 0 0 l 1,16,-1
 0 200 l 1,17,-1
 100 200 l 1,18,-1
 100 500 l 1,19,-1
 0 500 l 1,20,-1
 0 1100 l 1,21,-1
 800 1100 l 1,0,-1
600 900 m 1,22,-1
 200 900 l 1,23,-1
 200 700 l 1,24,-1
 600 700 l 1,25,-1
 600 900 l 1,22,-1
EndSplineSet
EndChar

StartChar: uni5146
Encoding: 20806 20806 218
Width: 1000
GlyphClass: 1
Flags: W
LayerCount: 2
Fore
SplineSet
400 100 m 1,0,-1
 300 100 l 1,1,-1
 300 0 l 1,2,-1
 0 0 l 1,3,-1
 0 200 l 1,4,-1
 200 200 l 1,5,-1
 200 300 l 1,6,-1
 0 300 l 1,7,-1
 0 500 l 1,8,-1
 100 500 l 1,9,-1
 100 600 l 1,10,-1
 200 600 l 1,11,-1
 200 700 l 1,12,-1
 0 700 l 1,13,-1
 0 900 l 1,14,-1
 200 900 l 1,15,-1
 200 1100 l 1,16,-1
 400 1100 l 1,17,-1
 400 100 l 1,0,-1
700 1100 m 1,18,-1
 700 1000 l 1,19,-1
 900 1000 l 1,20,-1
 900 800 l 1,21,-1
 800 800 l 1,22,-1
 800 700 l 1,23,-1
 700 700 l 1,24,-1
 700 600 l 1,25,-1
 900 600 l 1,26,-1
 900 400 l 1,27,-1
 700 400 l 1,28,-1
 700 200 l 1,29,-1
 900 200 l 1,30,-1
 900 0 l 1,31,-1
 500 0 l 1,32,-1
 500 1100 l 1,33,-1
 700 1100 l 1,18,-1
EndSplineSet
EndChar

StartChar: uni5148
Encoding: 20808 20808 219
Width: 1000
GlyphClass: 1
Flags: W
LayerCount: 2
Fore
SplineSet
300 1100 m 1,0,-1
 300 1000 l 1,1,-1
 400 1000 l 1,2,-1
 400 1100 l 1,3,-1
 600 1100 l 1,4,-1
 600 1000 l 1,5,-1
 900 1000 l 1,6,-1
 900 800 l 1,7,-1
 600 800 l 1,8,-1
 600 600 l 1,9,-1
 900 600 l 1,10,-1
 900 400 l 1,11,-1
 700 400 l 1,12,-1
 700 200 l 1,13,-1
 900 200 l 1,14,-1
 900 0 l 1,15,-1
 500 0 l 1,16,-1
 500 400 l 1,17,-1
 400 400 l 1,18,-1
 400 200 l 1,19,-1
 300 200 l 1,20,-1
 300 100 l 1,21,-1
 200 100 l 1,22,-1
 200 0 l 1,23,-1
 0 0 l 1,24,-1
 0 200 l 1,25,-1
 100 200 l 1,26,-1
 100 300 l 1,27,-1
 200 300 l 1,28,-1
 200 400 l 1,29,-1
 0 400 l 1,30,-1
 0 600 l 1,31,-1
 400 600 l 1,32,-1
 400 800 l 1,33,-1
 200 800 l 1,34,-1
 200 700 l 1,35,-1
 0 700 l 1,36,-1
 0 900 l 1,37,-1
 100 900 l 1,38,-1
 100 1100 l 1,39,-1
 300 1100 l 1,0,-1
EndSplineSet
EndChar

StartChar: uni5149
Encoding: 20809 20809 220
Width: 1000
GlyphClass: 1
Flags: W
LayerCount: 2
Fore
SplineSet
500 700 m 1,0,-1
 900 700 l 1,1,-1
 900 500 l 1,2,-1
 600 500 l 1,3,-1
 600 200 l 1,4,-1
 700 200 l 1,5,-1
 700 400 l 1,6,-1
 900 400 l 1,7,-1
 900 100 l 1,8,-1
 800 100 l 1,9,-1
 800 0 l 1,10,-1
 400 0 l 1,11,-1
 400 500 l 1,12,-1
 300 500 l 1,13,-1
 300 100 l 1,14,-1
 200 100 l 1,15,-1
 200 0 l 1,16,-1
 0 0 l 1,17,-1
 0 200 l 1,18,-1
 100 200 l 1,19,-1
 100 500 l 1,20,-1
 0 500 l 1,21,-1
 0 700 l 1,22,-1
 300 700 l 1,23,-1
 300 1100 l 1,24,-1
 500 1100 l 1,25,-1
 500 700 l 1,0,-1
200 1100 m 1,26,-1
 200 800 l 1,27,-1
 0 800 l 1,28,-1
 0 1100 l 1,29,-1
 200 1100 l 1,26,-1
700 1000 m 1,30,-1
 700 1100 l 1,31,-1
 900 1100 l 1,32,-1
 900 900 l 1,33,-1
 800 900 l 1,34,-1
 800 800 l 1,35,-1
 600 800 l 1,36,-1
 600 1000 l 1,37,-1
 700 1000 l 1,30,-1
EndSplineSet
EndChar

StartChar: uni5150
Encoding: 20816 20816 221
Width: 1000
GlyphClass: 1
Flags: W
LayerCount: 2
Fore
SplineSet
200 400 m 1,0,-1
 300 400 l 1,1,-1
 300 100 l 1,2,-1
 200 100 l 1,3,-1
 200 0 l 1,4,-1
 0 0 l 1,5,-1
 0 200 l 1,6,-1
 100 200 l 1,7,-1
 100 400 l 1,8,-1
 0 400 l 1,9,-1
 0 1100 l 1,10,-1
 200 1100 l 1,11,-1
 200 400 l 1,0,-1
900 1100 m 1,12,-1
 900 400 l 1,13,-1
 600 400 l 1,14,-1
 600 200 l 1,15,-1
 700 200 l 1,16,-1
 700 300 l 1,17,-1
 900 300 l 1,18,-1
 900 100 l 1,19,-1
 800 100 l 1,20,-1
 800 0 l 1,21,-1
 400 0 l 1,22,-1
 400 400 l 1,23,-1
 300 400 l 1,24,-1
 300 1100 l 1,25,-1
 900 1100 l 1,12,-1
500 900 m 1,26,-1
 500 800 l 1,27,-1
 700 800 l 1,28,-1
 700 900 l 1,29,-1
 500 900 l 1,26,-1
500 700 m 1,30,-1
 500 600 l 1,31,-1
 700 600 l 1,32,-1
 700 700 l 1,33,-1
 500 700 l 1,30,-1
EndSplineSet
EndChar

StartChar: uni5165
Encoding: 20837 20837 222
Width: 1000
GlyphClass: 1
Flags: W
LayerCount: 2
Fore
SplineSet
600 600 m 1,0,-1
 700 600 l 1,1,-1
 700 400 l 1,2,-1
 800 400 l 1,3,-1
 800 200 l 1,4,-1
 900 200 l 1,5,-1
 900 0 l 1,6,-1
 700 0 l 1,7,-1
 700 100 l 1,8,-1
 600 100 l 1,9,-1
 600 300 l 1,10,-1
 500 300 l 1,11,-1
 500 500 l 1,12,-1
 400 500 l 1,13,-1
 400 300 l 1,14,-1
 300 300 l 1,15,-1
 300 100 l 1,16,-1
 200 100 l 1,17,-1
 200 0 l 1,18,-1
 0 0 l 1,19,-1
 0 200 l 1,20,-1
 100 200 l 1,21,-1
 100 400 l 1,22,-1
 200 400 l 1,23,-1
 200 600 l 1,24,-1
 300 600 l 1,25,-1
 300 900 l 1,26,-1
 100 900 l 1,27,-1
 100 1100 l 1,28,-1
 600 1100 l 1,29,-1
 600 600 l 1,0,-1
EndSplineSet
EndChar

StartChar: uni5168
Encoding: 20840 20840 223
Width: 1000
GlyphClass: 1
Flags: W
LayerCount: 2
Fore
SplineSet
600 1100 m 1,0,-1
 600 1000 l 1,1,-1
 700 1000 l 1,2,-1
 700 900 l 1,3,-1
 800 900 l 1,4,-1
 800 800 l 1,5,-1
 900 800 l 1,6,-1
 900 600 l 1,7,-1
 700 600 l 1,8,-1
 700 700 l 1,9,-1
 600 700 l 1,10,-1
 600 800 l 1,11,-1
 500 800 l 1,12,-1
 500 900 l 1,13,-1
 400 900 l 1,14,-1
 400 800 l 1,15,-1
 300 800 l 1,16,-1
 300 700 l 1,17,-1
 600 700 l 1,18,-1
 600 600 l 1,19,-1
 500 600 l 1,20,-1
 500 500 l 1,21,-1
 800 500 l 1,22,-1
 800 300 l 1,23,-1
 500 300 l 1,24,-1
 500 200 l 1,25,-1
 900 200 l 1,26,-1
 900 0 l 1,27,-1
 0 0 l 1,28,-1
 0 200 l 1,29,-1
 300 200 l 1,30,-1
 300 300 l 1,31,-1
 100 300 l 1,32,-1
 100 500 l 1,33,-1
 300 500 l 1,34,-1
 300 600 l 1,35,-1
 0 600 l 1,36,-1
 0 800 l 1,37,-1
 100 800 l 1,38,-1
 100 900 l 1,39,-1
 200 900 l 1,40,-1
 200 1000 l 1,41,-1
 300 1000 l 1,42,-1
 300 1100 l 1,43,-1
 600 1100 l 1,0,-1
EndSplineSet
EndChar

StartChar: uni516B
Encoding: 20843 20843 224
Width: 1000
GlyphClass: 1
Flags: W
LayerCount: 2
Fore
SplineSet
100 200 m 1,0,-1
 100 800 l 1,1,-1
 300 800 l 1,2,-1
 300 100 l 1,3,-1
 200 100 l 1,4,-1
 200 0 l 1,5,-1
 0 0 l 1,6,-1
 0 200 l 1,7,-1
 100 200 l 1,0,-1
900 200 m 1,8,-1
 900 0 l 1,9,-1
 700 0 l 1,10,-1
 700 100 l 1,11,-1
 600 100 l 1,12,-1
 600 200 l 1,13,-1
 500 200 l 1,14,-1
 500 900 l 1,15,-1
 100 900 l 1,16,-1
 100 1100 l 1,17,-1
 700 1100 l 1,18,-1
 700 300 l 1,19,-1
 800 300 l 1,20,-1
 800 200 l 1,21,-1
 900 200 l 1,8,-1
EndSplineSet
EndChar

StartChar: uni516C
Encoding: 20844 20844 225
Width: 1000
GlyphClass: 1
Flags: W
LayerCount: 2
Fore
SplineSet
400 1100 m 1,0,-1
 400 800 l 1,1,-1
 300 800 l 1,2,-1
 300 700 l 1,3,-1
 200 700 l 1,4,-1
 200 600 l 1,5,-1
 0 600 l 1,6,-1
 0 800 l 1,7,-1
 100 800 l 1,8,-1
 100 900 l 1,9,-1
 200 900 l 1,10,-1
 200 1100 l 1,11,-1
 400 1100 l 1,0,-1
700 1100 m 1,12,-1
 700 900 l 1,13,-1
 800 900 l 1,14,-1
 800 800 l 1,15,-1
 900 800 l 1,16,-1
 900 600 l 1,17,-1
 700 600 l 1,18,-1
 700 700 l 1,19,-1
 600 700 l 1,20,-1
 600 800 l 1,21,-1
 500 800 l 1,22,-1
 500 1100 l 1,23,-1
 700 1100 l 1,12,-1
600 100 m 1,24,-1
 600 0 l 1,25,-1
 0 0 l 1,26,-1
 0 300 l 1,27,-1
 100 300 l 1,28,-1
 100 400 l 1,29,-1
 200 400 l 1,30,-1
 200 500 l 1,31,-1
 300 500 l 1,32,-1
 300 600 l 1,33,-1
 500 600 l 1,34,-1
 500 400 l 1,35,-1
 400 400 l 1,36,-1
 400 300 l 1,37,-1
 300 300 l 1,38,-1
 300 200 l 1,39,-1
 600 200 l 1,40,-1
 600 400 l 1,41,-1
 800 400 l 1,42,-1
 800 200 l 1,43,-1
 900 200 l 1,44,-1
 900 0 l 1,45,-1
 700 0 l 1,46,-1
 700 100 l 1,47,-1
 600 100 l 1,24,-1
EndSplineSet
EndChar

StartChar: uni516D
Encoding: 20845 20845 226
Width: 1000
GlyphClass: 1
Flags: W
LayerCount: 2
Fore
SplineSet
500 900 m 1,0,-1
 900 900 l 1,1,-1
 900 700 l 1,2,-1
 0 700 l 1,3,-1
 0 900 l 1,4,-1
 300 900 l 1,5,-1
 300 1100 l 1,6,-1
 500 1100 l 1,7,-1
 500 900 l 1,0,-1
300 100 m 1,8,-1
 200 100 l 1,9,-1
 200 0 l 1,10,-1
 0 0 l 1,11,-1
 0 200 l 1,12,-1
 100 200 l 1,13,-1
 100 600 l 1,14,-1
 300 600 l 1,15,-1
 300 100 l 1,8,-1
700 200 m 1,16,-1
 900 200 l 1,17,-1
 900 0 l 1,18,-1
 600 0 l 1,19,-1
 600 100 l 1,20,-1
 500 100 l 1,21,-1
 500 600 l 1,22,-1
 700 600 l 1,23,-1
 700 200 l 1,16,-1
EndSplineSet
EndChar

StartChar: uni5171
Encoding: 20849 20849 227
Width: 1000
GlyphClass: 1
Flags: W
LayerCount: 2
Fore
SplineSet
400 1100 m 1,0,-1
 400 900 l 1,1,-1
 500 900 l 1,2,-1
 500 1100 l 1,3,-1
 700 1100 l 1,4,-1
 700 900 l 1,5,-1
 900 900 l 1,6,-1
 900 700 l 1,7,-1
 700 700 l 1,8,-1
 700 500 l 1,9,-1
 900 500 l 1,10,-1
 900 300 l 1,11,-1
 800 300 l 1,12,-1
 800 200 l 1,13,-1
 900 200 l 1,14,-1
 900 0 l 1,15,-1
 700 0 l 1,16,-1
 700 100 l 1,17,-1
 600 100 l 1,18,-1
 600 300 l 1,19,-1
 300 300 l 1,20,-1
 300 100 l 1,21,-1
 200 100 l 1,22,-1
 200 0 l 1,23,-1
 0 0 l 1,24,-1
 0 200 l 1,25,-1
 100 200 l 1,26,-1
 100 300 l 1,27,-1
 0 300 l 1,28,-1
 0 500 l 1,29,-1
 200 500 l 1,30,-1
 200 700 l 1,31,-1
 0 700 l 1,32,-1
 0 900 l 1,33,-1
 200 900 l 1,34,-1
 200 1100 l 1,35,-1
 400 1100 l 1,0,-1
400 700 m 1,36,-1
 400 500 l 1,37,-1
 500 500 l 1,38,-1
 500 700 l 1,39,-1
 400 700 l 1,36,-1
EndSplineSet
EndChar

StartChar: uni5175
Encoding: 20853 20853 228
Width: 1000
GlyphClass: 1
Flags: W
LayerCount: 2
Fore
SplineSet
100 300 m 1,0,-1
 0 300 l 1,1,-1
 0 500 l 1,2,-1
 100 500 l 1,3,-1
 100 1000 l 1,4,-1
 200 1000 l 1,5,-1
 200 1100 l 1,6,-1
 800 1100 l 1,7,-1
 800 900 l 1,8,-1
 300 900 l 1,9,-1
 300 800 l 1,10,-1
 900 800 l 1,11,-1
 900 600 l 1,12,-1
 700 600 l 1,13,-1
 700 500 l 1,14,-1
 900 500 l 1,15,-1
 900 300 l 1,16,-1
 800 300 l 1,17,-1
 800 200 l 1,18,-1
 900 200 l 1,19,-1
 900 0 l 1,20,-1
 700 0 l 1,21,-1
 700 100 l 1,22,-1
 600 100 l 1,23,-1
 600 300 l 1,24,-1
 300 300 l 1,25,-1
 300 100 l 1,26,-1
 200 100 l 1,27,-1
 200 0 l 1,28,-1
 0 0 l 1,29,-1
 0 200 l 1,30,-1
 100 200 l 1,31,-1
 100 300 l 1,0,-1
500 600 m 1,32,-1
 300 600 l 1,33,-1
 300 500 l 1,34,-1
 500 500 l 1,35,-1
 500 600 l 1,32,-1
EndSplineSet
EndChar

StartChar: uni5177
Encoding: 20855 20855 229
Width: 1000
GlyphClass: 1
Flags: W
LayerCount: 2
Fore
SplineSet
800 500 m 1,0,-1
 900 500 l 1,1,-1
 900 300 l 1,2,-1
 800 300 l 1,3,-1
 800 200 l 1,4,-1
 900 200 l 1,5,-1
 900 0 l 1,6,-1
 700 0 l 1,7,-1
 700 100 l 1,8,-1
 600 100 l 1,9,-1
 600 300 l 1,10,-1
 300 300 l 1,11,-1
 300 100 l 1,12,-1
 200 100 l 1,13,-1
 200 0 l 1,14,-1
 0 0 l 1,15,-1
 0 200 l 1,16,-1
 100 200 l 1,17,-1
 100 300 l 1,18,-1
 0 300 l 1,19,-1
 0 500 l 1,20,-1
 100 500 l 1,21,-1
 100 1100 l 1,22,-1
 800 1100 l 1,23,-1
 800 500 l 1,0,-1
300 1000 m 1,24,-1
 300 900 l 1,25,-1
 600 900 l 1,26,-1
 600 1000 l 1,27,-1
 300 1000 l 1,24,-1
300 800 m 1,28,-1
 300 700 l 1,29,-1
 600 700 l 1,30,-1
 600 800 l 1,31,-1
 300 800 l 1,28,-1
300 600 m 1,32,-1
 300 500 l 1,33,-1
 600 500 l 1,34,-1
 600 600 l 1,35,-1
 300 600 l 1,32,-1
EndSplineSet
EndChar

StartChar: uni5178
Encoding: 20856 20856 230
Width: 1000
GlyphClass: 1
Flags: W
LayerCount: 2
Fore
SplineSet
100 200 m 1,0,-1
 100 300 l 1,1,-1
 0 300 l 1,2,-1
 0 500 l 1,3,-1
 100 500 l 1,4,-1
 100 1000 l 1,5,-1
 200 1000 l 1,6,-1
 200 1100 l 1,7,-1
 400 1100 l 1,8,-1
 400 1000 l 1,9,-1
 500 1000 l 1,10,-1
 500 1100 l 1,11,-1
 700 1100 l 1,12,-1
 700 1000 l 1,13,-1
 800 1000 l 1,14,-1
 800 500 l 1,15,-1
 900 500 l 1,16,-1
 900 300 l 1,17,-1
 800 300 l 1,18,-1
 800 200 l 1,19,-1
 900 200 l 1,20,-1
 900 0 l 1,21,-1
 700 0 l 1,22,-1
 700 100 l 1,23,-1
 600 100 l 1,24,-1
 600 300 l 1,25,-1
 300 300 l 1,26,-1
 300 100 l 1,27,-1
 200 100 l 1,28,-1
 200 0 l 1,29,-1
 0 0 l 1,30,-1
 0 200 l 1,31,-1
 100 200 l 1,0,-1
700 600 m 1,32,-1
 600 600 l 1,33,-1
 600 500 l 1,34,-1
 700 500 l 1,35,-1
 700 600 l 1,32,-1
500 600 m 1,36,-1
 400 600 l 1,37,-1
 400 500 l 1,38,-1
 500 500 l 1,39,-1
 500 600 l 1,36,-1
300 600 m 1,40,-1
 200 600 l 1,41,-1
 200 500 l 1,42,-1
 300 500 l 1,43,-1
 300 600 l 1,40,-1
600 800 m 1,44,-1
 600 700 l 1,45,-1
 700 700 l 1,46,-1
 700 800 l 1,47,-1
 600 800 l 1,44,-1
400 800 m 1,48,-1
 400 700 l 1,49,-1
 500 700 l 1,50,-1
 500 800 l 1,51,-1
 400 800 l 1,48,-1
200 800 m 1,52,-1
 200 700 l 1,53,-1
 300 700 l 1,54,-1
 300 800 l 1,55,-1
 200 800 l 1,52,-1
EndSplineSet
EndChar

StartChar: uni5185
Encoding: 20869 20869 231
Width: 1000
GlyphClass: 1
Flags: W
LayerCount: 2
Fore
SplineSet
300 900 m 1,0,-1
 300 1100 l 1,1,-1
 500 1100 l 1,2,-1
 500 900 l 1,3,-1
 900 900 l 1,4,-1
 900 100 l 1,5,-1
 800 100 l 1,6,-1
 800 0 l 1,7,-1
 500 0 l 1,8,-1
 500 200 l 1,9,-1
 700 200 l 1,10,-1
 700 300 l 1,11,-1
 500 300 l 1,12,-1
 500 400 l 1,13,-1
 400 400 l 1,14,-1
 400 300 l 1,15,-1
 200 300 l 1,16,-1
 200 0 l 1,17,-1
 0 0 l 1,18,-1
 0 900 l 1,19,-1
 300 900 l 1,0,-1
700 700 m 1,20,-1
 500 700 l 1,21,-1
 500 600 l 1,22,-1
 600 600 l 1,23,-1
 600 500 l 1,24,-1
 700 500 l 1,25,-1
 700 700 l 1,20,-1
200 700 m 1,26,-1
 200 500 l 1,27,-1
 300 500 l 1,28,-1
 300 700 l 1,29,-1
 200 700 l 1,26,-1
EndSplineSet
EndChar

StartChar: uni5186
Encoding: 20870 20870 232
Width: 1000
GlyphClass: 1
Flags: W
LayerCount: 2
Fore
SplineSet
700 400 m 1,0,-1
 200 400 l 1,1,-1
 200 0 l 1,2,-1
 0 0 l 1,3,-1
 0 1100 l 1,4,-1
 900 1100 l 1,5,-1
 900 100 l 1,6,-1
 800 100 l 1,7,-1
 800 0 l 1,8,-1
 500 0 l 1,9,-1
 500 200 l 1,10,-1
 700 200 l 1,11,-1
 700 400 l 1,0,-1
700 900 m 1,12,-1
 500 900 l 1,13,-1
 500 600 l 1,14,-1
 700 600 l 1,15,-1
 700 900 l 1,12,-1
300 900 m 1,16,-1
 200 900 l 1,17,-1
 200 600 l 1,18,-1
 300 600 l 1,19,-1
 300 900 l 1,16,-1
EndSplineSet
EndChar

StartChar: uni5199
Encoding: 20889 20889 233
Width: 1000
GlyphClass: 1
Flags: W
LayerCount: 2
Fore
SplineSet
900 1100 m 1,0,-1
 900 700 l 1,1,-1
 700 700 l 1,2,-1
 700 800 l 1,3,-1
 500 800 l 1,4,-1
 500 700 l 1,5,-1
 700 700 l 1,6,-1
 700 500 l 1,7,-1
 900 500 l 1,8,-1
 900 300 l 1,9,-1
 700 300 l 1,10,-1
 700 100 l 1,11,-1
 600 100 l 1,12,-1
 600 0 l 1,13,-1
 200 0 l 1,14,-1
 200 200 l 1,15,-1
 500 200 l 1,16,-1
 500 300 l 1,17,-1
 0 300 l 1,18,-1
 0 500 l 1,19,-1
 500 500 l 1,20,-1
 500 600 l 1,21,-1
 300 600 l 1,22,-1
 300 1000 l 1,23,-1
 200 1000 l 1,24,-1
 200 700 l 1,25,-1
 0 700 l 1,26,-1
 0 1100 l 1,27,-1
 900 1100 l 1,0,-1
500 1000 m 1,28,-1
 500 900 l 1,29,-1
 700 900 l 1,30,-1
 700 1000 l 1,31,-1
 500 1000 l 1,28,-1
EndSplineSet
EndChar

StartChar: uni51AC
Encoding: 20908 20908 234
Width: 1000
GlyphClass: 1
Flags: W
LayerCount: 2
Fore
SplineSet
900 900 m 1,0,-1
 800 900 l 1,1,-1
 800 800 l 1,2,-1
 700 800 l 1,3,-1
 700 700 l 1,4,-1
 900 700 l 1,5,-1
 900 500 l 1,6,-1
 700 500 l 1,7,-1
 700 300 l 1,8,-1
 500 300 l 1,9,-1
 500 200 l 1,10,-1
 800 200 l 1,11,-1
 800 0 l 1,12,-1
 400 0 l 1,13,-1
 400 100 l 1,14,-1
 100 100 l 1,15,-1
 100 300 l 1,16,-1
 300 300 l 1,17,-1
 300 500 l 1,18,-1
 600 500 l 1,19,-1
 600 600 l 1,20,-1
 300 600 l 1,21,-1
 300 500 l 1,22,-1
 0 500 l 1,23,-1
 0 700 l 1,24,-1
 200 700 l 1,25,-1
 200 800 l 1,26,-1
 0 800 l 1,27,-1
 0 1000 l 1,28,-1
 200 1000 l 1,29,-1
 200 1100 l 1,30,-1
 900 1100 l 1,31,-1
 900 900 l 1,0,-1
300 900 m 1,32,-1
 300 800 l 1,33,-1
 400 800 l 1,34,-1
 400 700 l 1,35,-1
 500 700 l 1,36,-1
 500 800 l 1,37,-1
 600 800 l 1,38,-1
 600 900 l 1,39,-1
 300 900 l 1,32,-1
EndSplineSet
EndChar

StartChar: uni51B7
Encoding: 20919 20919 235
Width: 1000
GlyphClass: 1
Flags: W
LayerCount: 2
Fore
SplineSet
100 500 m 1,0,-1
 100 600 l 1,1,-1
 300 600 l 1,2,-1
 300 400 l 1,3,-1
 200 400 l 1,4,-1
 200 0 l 1,5,-1
 0 0 l 1,6,-1
 0 500 l 1,7,-1
 100 500 l 1,0,-1
200 1100 m 1,8,-1
 200 1000 l 1,9,-1
 300 1000 l 1,10,-1
 300 900 l 1,11,-1
 400 900 l 1,12,-1
 400 1000 l 1,13,-1
 500 1000 l 1,14,-1
 500 1100 l 1,15,-1
 800 1100 l 1,16,-1
 800 1000 l 1,17,-1
 900 1000 l 1,18,-1
 900 800 l 1,19,-1
 700 800 l 1,20,-1
 700 900 l 1,21,-1
 600 900 l 1,22,-1
 600 800 l 1,23,-1
 500 800 l 1,24,-1
 500 700 l 1,25,-1
 300 700 l 1,26,-1
 300 800 l 1,27,-1
 100 800 l 1,28,-1
 100 900 l 1,29,-1
 0 900 l 1,30,-1
 0 1100 l 1,31,-1
 200 1100 l 1,8,-1
900 100 m 1,32,-1
 800 100 l 1,33,-1
 800 300 l 1,34,-1
 700 300 l 1,35,-1
 700 0 l 1,36,-1
 500 0 l 1,37,-1
 500 300 l 1,38,-1
 400 300 l 1,39,-1
 400 500 l 1,40,-1
 900 500 l 1,41,-1
 900 100 l 1,32,-1
900 700 m 1,42,-1
 900 600 l 1,43,-1
 500 600 l 1,44,-1
 500 700 l 1,45,-1
 900 700 l 1,42,-1
EndSplineSet
EndChar

StartChar: uni51FA
Encoding: 20986 20986 236
Width: 1000
GlyphClass: 1
Flags: W
LayerCount: 2
Fore
SplineSet
500 800 m 1,0,-1
 700 800 l 1,1,-1
 700 1000 l 1,2,-1
 900 1000 l 1,3,-1
 900 600 l 1,4,-1
 500 600 l 1,5,-1
 500 200 l 1,6,-1
 700 200 l 1,7,-1
 700 500 l 1,8,-1
 900 500 l 1,9,-1
 900 0 l 1,10,-1
 0 0 l 1,11,-1
 0 500 l 1,12,-1
 200 500 l 1,13,-1
 200 200 l 1,14,-1
 300 200 l 1,15,-1
 300 600 l 1,16,-1
 0 600 l 1,17,-1
 0 1000 l 1,18,-1
 200 1000 l 1,19,-1
 200 800 l 1,20,-1
 300 800 l 1,21,-1
 300 1100 l 1,22,-1
 500 1100 l 1,23,-1
 500 800 l 1,0,-1
EndSplineSet
EndChar

StartChar: uni5200
Encoding: 20992 20992 237
Width: 1000
GlyphClass: 1
Flags: W
LayerCount: 2
Fore
SplineSet
900 1100 m 1,0,-1
 900 100 l 1,1,-1
 800 100 l 1,2,-1
 800 0 l 1,3,-1
 400 0 l 1,4,-1
 400 200 l 1,5,-1
 700 200 l 1,6,-1
 700 900 l 1,7,-1
 400 900 l 1,8,-1
 400 300 l 1,9,-1
 300 300 l 1,10,-1
 300 100 l 1,11,-1
 200 100 l 1,12,-1
 200 0 l 1,13,-1
 0 0 l 1,14,-1
 0 200 l 1,15,-1
 100 200 l 1,16,-1
 100 400 l 1,17,-1
 200 400 l 1,18,-1
 200 900 l 1,19,-1
 0 900 l 1,20,-1
 0 1100 l 1,21,-1
 900 1100 l 1,0,-1
EndSplineSet
EndChar

StartChar: uni5206
Encoding: 20998 20998 238
Width: 1000
GlyphClass: 1
Flags: W
LayerCount: 2
Fore
SplineSet
400 1100 m 1,0,-1
 400 800 l 1,1,-1
 300 800 l 1,2,-1
 300 700 l 1,3,-1
 200 700 l 1,4,-1
 200 600 l 1,5,-1
 700 600 l 1,6,-1
 700 700 l 1,7,-1
 600 700 l 1,8,-1
 600 800 l 1,9,-1
 500 800 l 1,10,-1
 500 1100 l 1,11,-1
 700 1100 l 1,12,-1
 700 900 l 1,13,-1
 800 900 l 1,14,-1
 800 800 l 1,15,-1
 900 800 l 1,16,-1
 900 600 l 1,17,-1
 800 600 l 1,18,-1
 800 100 l 1,19,-1
 700 100 l 1,20,-1
 700 0 l 1,21,-1
 500 0 l 1,22,-1
 500 200 l 1,23,-1
 600 200 l 1,24,-1
 600 400 l 1,25,-1
 400 400 l 1,26,-1
 400 200 l 1,27,-1
 300 200 l 1,28,-1
 300 100 l 1,29,-1
 200 100 l 1,30,-1
 200 0 l 1,31,-1
 0 0 l 1,32,-1
 0 200 l 1,33,-1
 100 200 l 1,34,-1
 100 300 l 1,35,-1
 200 300 l 1,36,-1
 200 400 l 1,37,-1
 100 400 l 1,38,-1
 100 600 l 1,39,-1
 0 600 l 1,40,-1
 0 800 l 1,41,-1
 100 800 l 1,42,-1
 100 900 l 1,43,-1
 200 900 l 1,44,-1
 200 1100 l 1,45,-1
 400 1100 l 1,0,-1
EndSplineSet
EndChar

StartChar: uni5207
Encoding: 20999 20999 239
Width: 1000
GlyphClass: 1
Flags: W
LayerCount: 2
Fore
SplineSet
900 1100 m 1,0,-1
 900 100 l 1,1,-1
 800 100 l 1,2,-1
 800 0 l 1,3,-1
 600 0 l 1,4,-1
 600 200 l 1,5,-1
 700 200 l 1,6,-1
 700 900 l 1,7,-1
 600 900 l 1,8,-1
 600 200 l 1,9,-1
 500 200 l 1,10,-1
 500 100 l 1,11,-1
 400 100 l 1,12,-1
 400 0 l 1,13,-1
 100 0 l 1,14,-1
 100 200 l 1,15,-1
 300 200 l 1,16,-1
 300 300 l 1,17,-1
 400 300 l 1,18,-1
 400 900 l 1,19,-1
 300 900 l 1,20,-1
 300 1100 l 1,21,-1
 900 1100 l 1,0,-1
0 300 m 1,22,-1
 0 1100 l 1,23,-1
 200 1100 l 1,24,-1
 200 900 l 1,25,-1
 300 900 l 1,26,-1
 300 700 l 1,27,-1
 200 700 l 1,28,-1
 200 500 l 1,29,-1
 300 500 l 1,30,-1
 300 300 l 1,31,-1
 0 300 l 1,22,-1
EndSplineSet
EndChar

StartChar: uni5217
Encoding: 21015 21015 240
Width: 1000
GlyphClass: 1
Flags: W
LayerCount: 2
Fore
SplineSet
500 1100 m 1,0,-1
 500 1000 l 1,1,-1
 600 1000 l 1,2,-1
 600 400 l 1,3,-1
 500 400 l 1,4,-1
 500 200 l 1,5,-1
 400 200 l 1,6,-1
 400 100 l 1,7,-1
 300 100 l 1,8,-1
 300 0 l 1,9,-1
 0 0 l 1,10,-1
 0 200 l 1,11,-1
 200 200 l 1,12,-1
 200 300 l 1,13,-1
 300 300 l 1,14,-1
 300 400 l 1,15,-1
 200 400 l 1,16,-1
 200 300 l 1,17,-1
 0 300 l 1,18,-1
 0 700 l 1,19,-1
 100 700 l 1,20,-1
 100 900 l 1,21,-1
 0 900 l 1,22,-1
 0 1100 l 1,23,-1
 500 1100 l 1,0,-1
900 100 m 1,24,-1
 800 100 l 1,25,-1
 800 0 l 1,26,-1
 500 0 l 1,27,-1
 500 200 l 1,28,-1
 700 200 l 1,29,-1
 700 1100 l 1,30,-1
 900 1100 l 1,31,-1
 900 100 l 1,24,-1
500 800 m 1,32,-1
 500 900 l 1,33,-1
 300 900 l 1,34,-1
 300 800 l 1,35,-1
 500 800 l 1,32,-1
300 600 m 1,36,-1
 200 600 l 1,37,-1
 200 500 l 1,38,-1
 300 500 l 1,39,-1
 300 600 l 1,36,-1
EndSplineSet
EndChar

StartChar: uni521D
Encoding: 21021 21021 241
Width: 1000
GlyphClass: 1
Flags: W
LayerCount: 2
Fore
SplineSet
300 1100 m 1,0,-1
 300 1000 l 1,1,-1
 900 1000 l 1,2,-1
 900 100 l 1,3,-1
 800 100 l 1,4,-1
 800 0 l 1,5,-1
 600 0 l 1,6,-1
 600 200 l 1,7,-1
 700 200 l 1,8,-1
 700 800 l 1,9,-1
 600 800 l 1,10,-1
 600 200 l 1,11,-1
 500 200 l 1,12,-1
 500 100 l 1,13,-1
 300 100 l 1,14,-1
 300 0 l 1,15,-1
 100 0 l 1,16,-1
 100 300 l 1,17,-1
 0 300 l 1,18,-1
 0 500 l 1,19,-1
 100 500 l 1,20,-1
 100 600 l 1,21,-1
 200 600 l 1,22,-1
 200 700 l 1,23,-1
 0 700 l 1,24,-1
 0 900 l 1,25,-1
 100 900 l 1,26,-1
 100 1100 l 1,27,-1
 300 1100 l 1,0,-1
400 400 m 1,28,-1
 300 400 l 1,29,-1
 300 300 l 1,30,-1
 400 300 l 1,31,-1
 400 400 l 1,28,-1
400 800 m 1,32,-1
 300 800 l 1,33,-1
 300 600 l 1,34,-1
 400 600 l 1,35,-1
 400 800 l 1,32,-1
EndSplineSet
EndChar

StartChar: uni5225
Encoding: 21029 21029 242
Width: 1000
GlyphClass: 1
Flags: W
LayerCount: 2
Fore
SplineSet
900 100 m 1,0,-1
 800 100 l 1,1,-1
 800 0 l 1,2,-1
 500 0 l 1,3,-1
 500 200 l 1,4,-1
 700 200 l 1,5,-1
 700 1100 l 1,6,-1
 900 1100 l 1,7,-1
 900 100 l 1,0,-1
600 1000 m 1,8,-1
 600 400 l 1,9,-1
 500 400 l 1,10,-1
 500 1000 l 1,11,-1
 600 1000 l 1,8,-1
400 1100 m 1,12,-1
 400 700 l 1,13,-1
 300 700 l 1,14,-1
 300 600 l 1,15,-1
 400 600 l 1,16,-1
 400 100 l 1,17,-1
 300 100 l 1,18,-1
 300 0 l 1,19,-1
 0 0 l 1,20,-1
 0 200 l 1,21,-1
 300 200 l 1,22,-1
 300 400 l 1,23,-1
 200 400 l 1,24,-1
 200 300 l 1,25,-1
 0 300 l 1,26,-1
 0 500 l 1,27,-1
 100 500 l 1,28,-1
 100 600 l 1,29,-1
 0 600 l 1,30,-1
 0 1100 l 1,31,-1
 400 1100 l 1,12,-1
100 900 m 1,32,-1
 100 800 l 1,33,-1
 300 800 l 1,34,-1
 300 900 l 1,35,-1
 100 900 l 1,32,-1
EndSplineSet
EndChar

StartChar: uni5229
Encoding: 21033 21033 243
Width: 1000
GlyphClass: 1
Flags: W
LayerCount: 2
Fore
SplineSet
900 1100 m 1,0,-1
 900 100 l 1,1,-1
 800 100 l 1,2,-1
 800 0 l 1,3,-1
 500 0 l 1,4,-1
 500 200 l 1,5,-1
 700 200 l 1,6,-1
 700 1100 l 1,7,-1
 900 1100 l 1,0,-1
600 1000 m 1,8,-1
 600 400 l 1,9,-1
 500 400 l 1,10,-1
 500 1000 l 1,11,-1
 600 1000 l 1,8,-1
400 900 m 1,12,-1
 300 900 l 1,13,-1
 300 700 l 1,14,-1
 400 700 l 1,15,-1
 400 500 l 1,16,-1
 300 500 l 1,17,-1
 300 400 l 1,18,-1
 400 400 l 1,19,-1
 400 200 l 1,20,-1
 300 200 l 1,21,-1
 300 0 l 1,22,-1
 100 0 l 1,23,-1
 100 100 l 1,24,-1
 0 100 l 1,25,-1
 0 400 l 1,26,-1
 100 400 l 1,27,-1
 100 500 l 1,28,-1
 0 500 l 1,29,-1
 0 700 l 1,30,-1
 100 700 l 1,31,-1
 100 800 l 1,32,-1
 0 800 l 1,33,-1
 0 1000 l 1,34,-1
 200 1000 l 1,35,-1
 200 1100 l 1,36,-1
 400 1100 l 1,37,-1
 400 900 l 1,12,-1
EndSplineSet
EndChar

StartChar: uni5237
Encoding: 21047 21047 244
Width: 1000
GlyphClass: 1
Flags: W
LayerCount: 2
Fore
SplineSet
700 1100 m 1,0,-1
 900 1100 l 1,1,-1
 900 100 l 1,2,-1
 800 100 l 1,3,-1
 800 0 l 1,4,-1
 500 0 l 1,5,-1
 500 200 l 1,6,-1
 700 200 l 1,7,-1
 700 1100 l 1,0,-1
400 1100 m 1,8,-1
 400 600 l 1,9,-1
 300 600 l 1,10,-1
 300 500 l 1,11,-1
 400 500 l 1,12,-1
 400 100 l 1,13,-1
 300 100 l 1,14,-1
 300 0 l 1,15,-1
 200 0 l 1,16,-1
 200 100 l 1,17,-1
 100 100 l 1,18,-1
 100 0 l 1,19,-1
 0 0 l 1,20,-1
 0 1100 l 1,21,-1
 400 1100 l 1,8,-1
300 800 m 1,22,-1
 300 900 l 1,23,-1
 100 900 l 1,24,-1
 100 800 l 1,25,-1
 300 800 l 1,22,-1
200 500 m 1,26,-1
 200 600 l 1,27,-1
 100 600 l 1,28,-1
 100 500 l 1,29,-1
 200 500 l 1,26,-1
600 1000 m 1,30,-1
 600 400 l 1,31,-1
 500 400 l 1,32,-1
 500 1000 l 1,33,-1
 600 1000 l 1,30,-1
EndSplineSet
EndChar

StartChar: uni524D
Encoding: 21069 21069 245
Width: 1000
GlyphClass: 1
Flags: W
LayerCount: 2
Fore
SplineSet
400 1100 m 1,0,-1
 400 1000 l 1,1,-1
 500 1000 l 1,2,-1
 500 1100 l 1,3,-1
 700 1100 l 1,4,-1
 700 1000 l 1,5,-1
 900 1000 l 1,6,-1
 900 800 l 1,7,-1
 0 800 l 1,8,-1
 0 1000 l 1,9,-1
 200 1000 l 1,10,-1
 200 1100 l 1,11,-1
 400 1100 l 1,0,-1
400 700 m 1,12,-1
 400 0 l 1,13,-1
 200 0 l 1,14,-1
 200 200 l 1,15,-1
 100 200 l 1,16,-1
 100 0 l 1,17,-1
 0 0 l 1,18,-1
 0 700 l 1,19,-1
 400 700 l 1,12,-1
200 300 m 1,20,-1
 200 400 l 1,21,-1
 100 400 l 1,22,-1
 100 300 l 1,23,-1
 200 300 l 1,20,-1
200 500 m 1,24,-1
 200 600 l 1,25,-1
 100 600 l 1,26,-1
 100 500 l 1,27,-1
 200 500 l 1,24,-1
900 100 m 1,28,-1
 800 100 l 1,29,-1
 800 0 l 1,30,-1
 500 0 l 1,31,-1
 500 200 l 1,32,-1
 700 200 l 1,33,-1
 700 700 l 1,34,-1
 900 700 l 1,35,-1
 900 100 l 1,28,-1
600 700 m 1,36,-1
 600 300 l 1,37,-1
 500 300 l 1,38,-1
 500 700 l 1,39,-1
 600 700 l 1,36,-1
EndSplineSet
EndChar

StartChar: uni526F
Encoding: 21103 21103 246
Width: 1000
GlyphClass: 1
Flags: W
LayerCount: 2
Fore
SplineSet
700 200 m 1,0,-1
 700 1100 l 1,1,-1
 900 1100 l 1,2,-1
 900 100 l 1,3,-1
 800 100 l 1,4,-1
 800 0 l 1,5,-1
 600 0 l 1,6,-1
 600 200 l 1,7,-1
 700 200 l 1,0,-1
400 900 m 1,8,-1
 400 700 l 1,9,-1
 0 700 l 1,10,-1
 0 1100 l 1,11,-1
 500 1100 l 1,12,-1
 500 1000 l 1,13,-1
 600 1000 l 1,14,-1
 600 400 l 1,15,-1
 500 400 l 1,16,-1
 500 0 l 1,17,-1
 0 0 l 1,18,-1
 0 600 l 1,19,-1
 500 600 l 1,20,-1
 500 900 l 1,21,-1
 400 900 l 1,8,-1
100 500 m 1,22,-1
 100 400 l 1,23,-1
 200 400 l 1,24,-1
 200 500 l 1,25,-1
 100 500 l 1,22,-1
100 300 m 1,26,-1
 100 200 l 1,27,-1
 200 200 l 1,28,-1
 200 300 l 1,29,-1
 100 300 l 1,26,-1
300 500 m 1,30,-1
 300 400 l 1,31,-1
 400 400 l 1,32,-1
 400 500 l 1,33,-1
 300 500 l 1,30,-1
300 300 m 1,34,-1
 300 200 l 1,35,-1
 400 200 l 1,36,-1
 400 300 l 1,37,-1
 300 300 l 1,34,-1
300 900 m 1,38,-1
 100 900 l 1,39,-1
 100 800 l 1,40,-1
 300 800 l 1,41,-1
 300 900 l 1,38,-1
EndSplineSet
EndChar

StartChar: uni529B
Encoding: 21147 21147 247
Width: 1000
GlyphClass: 1
Flags: W
LayerCount: 2
Fore
SplineSet
300 1100 m 1,0,-1
 500 1100 l 1,1,-1
 500 900 l 1,2,-1
 900 900 l 1,3,-1
 900 100 l 1,4,-1
 800 100 l 1,5,-1
 800 0 l 1,6,-1
 400 0 l 1,7,-1
 400 200 l 1,8,-1
 700 200 l 1,9,-1
 700 700 l 1,10,-1
 400 700 l 1,11,-1
 400 400 l 1,12,-1
 300 400 l 1,13,-1
 300 200 l 1,14,-1
 200 200 l 1,15,-1
 200 0 l 1,16,-1
 0 0 l 1,17,-1
 0 300 l 1,18,-1
 100 300 l 1,19,-1
 100 500 l 1,20,-1
 200 500 l 1,21,-1
 200 700 l 1,22,-1
 0 700 l 1,23,-1
 0 900 l 1,24,-1
 300 900 l 1,25,-1
 300 1100 l 1,0,-1
EndSplineSet
EndChar

StartChar: uni529F
Encoding: 21151 21151 248
Width: 1000
GlyphClass: 1
Flags: W
LayerCount: 2
Fore
SplineSet
400 900 m 1,0,-1
 500 900 l 1,1,-1
 500 1100 l 1,2,-1
 700 1100 l 1,3,-1
 700 900 l 1,4,-1
 900 900 l 1,5,-1
 900 100 l 1,6,-1
 800 100 l 1,7,-1
 800 0 l 1,8,-1
 600 0 l 1,9,-1
 600 200 l 1,10,-1
 700 200 l 1,11,-1
 700 700 l 1,12,-1
 600 700 l 1,13,-1
 600 200 l 1,14,-1
 500 200 l 1,15,-1
 500 100 l 1,16,-1
 400 100 l 1,17,-1
 400 0 l 1,18,-1
 200 0 l 1,19,-1
 200 200 l 1,20,-1
 300 200 l 1,21,-1
 300 300 l 1,22,-1
 200 300 l 1,23,-1
 200 200 l 1,24,-1
 0 200 l 1,25,-1
 0 400 l 1,26,-1
 100 400 l 1,27,-1
 100 800 l 1,28,-1
 0 800 l 1,29,-1
 0 1000 l 1,30,-1
 400 1000 l 1,31,-1
 400 900 l 1,0,-1
300 700 m 1,32,-1
 300 500 l 1,33,-1
 400 500 l 1,34,-1
 400 700 l 1,35,-1
 300 700 l 1,32,-1
EndSplineSet
EndChar

StartChar: uni52A0
Encoding: 21152 21152 249
Width: 1000
GlyphClass: 1
Flags: W
LayerCount: 2
Fore
SplineSet
100 900 m 1,0,-1
 100 1100 l 1,1,-1
 300 1100 l 1,2,-1
 300 900 l 1,3,-1
 400 900 l 1,4,-1
 400 1000 l 1,5,-1
 900 1000 l 1,6,-1
 900 0 l 1,7,-1
 300 0 l 1,8,-1
 300 100 l 1,9,-1
 200 100 l 1,10,-1
 200 0 l 1,11,-1
 0 0 l 1,12,-1
 0 200 l 1,13,-1
 100 200 l 1,14,-1
 100 700 l 1,15,-1
 0 700 l 1,16,-1
 0 900 l 1,17,-1
 100 900 l 1,0,-1
300 700 m 1,18,-1
 300 200 l 1,19,-1
 400 200 l 1,20,-1
 400 700 l 1,21,-1
 300 700 l 1,18,-1
600 800 m 1,22,-1
 600 200 l 1,23,-1
 700 200 l 1,24,-1
 700 800 l 1,25,-1
 600 800 l 1,22,-1
EndSplineSet
EndChar

StartChar: uni52A9
Encoding: 21161 21161 250
Width: 1000
GlyphClass: 1
Flags: W
LayerCount: 2
Fore
SplineSet
500 1100 m 1,0,-1
 700 1100 l 1,1,-1
 700 1000 l 1,2,-1
 900 1000 l 1,3,-1
 900 100 l 1,4,-1
 800 100 l 1,5,-1
 800 0 l 1,6,-1
 600 0 l 1,7,-1
 600 200 l 1,8,-1
 700 200 l 1,9,-1
 700 800 l 1,10,-1
 600 800 l 1,11,-1
 600 200 l 1,12,-1
 500 200 l 1,13,-1
 500 800 l 1,14,-1
 400 800 l 1,15,-1
 400 200 l 1,16,-1
 500 200 l 1,17,-1
 500 0 l 1,18,-1
 0 0 l 1,19,-1
 0 1100 l 1,20,-1
 400 1100 l 1,21,-1
 400 1000 l 1,22,-1
 500 1000 l 1,23,-1
 500 1100 l 1,0,-1
300 300 m 1,24,-1
 100 300 l 1,25,-1
 100 200 l 1,26,-1
 300 200 l 1,27,-1
 300 300 l 1,24,-1
100 900 m 1,28,-1
 100 800 l 1,29,-1
 300 800 l 1,30,-1
 300 900 l 1,31,-1
 100 900 l 1,28,-1
100 600 m 1,32,-1
 100 500 l 1,33,-1
 300 500 l 1,34,-1
 300 600 l 1,35,-1
 100 600 l 1,32,-1
EndSplineSet
EndChar

StartChar: uni52AA
Encoding: 21162 21162 251
Width: 1000
GlyphClass: 1
Flags: W
LayerCount: 2
Fore
SplineSet
300 400 m 1,0,-1
 300 500 l 1,1,-1
 500 500 l 1,2,-1
 500 400 l 1,3,-1
 900 400 l 1,4,-1
 900 100 l 1,5,-1
 800 100 l 1,6,-1
 800 0 l 1,7,-1
 500 0 l 1,8,-1
 500 200 l 1,9,-1
 700 200 l 1,10,-1
 700 300 l 1,11,-1
 500 300 l 1,12,-1
 500 200 l 1,13,-1
 400 200 l 1,14,-1
 400 100 l 1,15,-1
 300 100 l 1,16,-1
 300 0 l 1,17,-1
 0 0 l 1,18,-1
 0 200 l 1,19,-1
 200 200 l 1,20,-1
 200 300 l 1,21,-1
 0 300 l 1,22,-1
 0 400 l 1,23,-1
 300 400 l 1,0,-1
0 500 m 1,24,-1
 0 600 l 1,25,-1
 100 600 l 1,26,-1
 100 700 l 1,27,-1
 300 700 l 1,28,-1
 300 800 l 1,29,-1
 100 800 l 1,30,-1
 100 700 l 1,31,-1
 0 700 l 1,32,-1
 0 1000 l 1,33,-1
 100 1000 l 1,34,-1
 100 1100 l 1,35,-1
 300 1100 l 1,36,-1
 300 1000 l 1,37,-1
 400 1000 l 1,38,-1
 400 600 l 1,39,-1
 300 600 l 1,40,-1
 300 500 l 1,41,-1
 0 500 l 1,24,-1
900 1100 m 1,42,-1
 900 800 l 1,43,-1
 800 800 l 1,44,-1
 800 700 l 1,45,-1
 900 700 l 1,46,-1
 900 500 l 1,47,-1
 700 500 l 1,48,-1
 700 600 l 1,49,-1
 600 600 l 1,50,-1
 600 500 l 1,51,-1
 500 500 l 1,52,-1
 500 800 l 1,53,-1
 700 800 l 1,54,-1
 700 900 l 1,55,-1
 500 900 l 1,56,-1
 500 1100 l 1,57,-1
 900 1100 l 1,42,-1
EndSplineSet
EndChar

StartChar: uni52B4
Encoding: 21172 21172 252
Width: 1000
GlyphClass: 1
Flags: W
LayerCount: 2
Fore
SplineSet
300 1100 m 1,0,-1
 300 1000 l 1,1,-1
 400 1000 l 1,2,-1
 400 1100 l 1,3,-1
 600 1100 l 1,4,-1
 600 1000 l 1,5,-1
 700 1000 l 1,6,-1
 700 1100 l 1,7,-1
 900 1100 l 1,8,-1
 900 700 l 1,9,-1
 700 700 l 1,10,-1
 700 800 l 1,11,-1
 200 800 l 1,12,-1
 200 700 l 1,13,-1
 0 700 l 1,14,-1
 0 1000 l 1,15,-1
 100 1000 l 1,16,-1
 100 1100 l 1,17,-1
 300 1100 l 1,0,-1
300 600 m 1,18,-1
 300 700 l 1,19,-1
 500 700 l 1,20,-1
 500 600 l 1,21,-1
 900 600 l 1,22,-1
 900 100 l 1,23,-1
 800 100 l 1,24,-1
 800 0 l 1,25,-1
 500 0 l 1,26,-1
 500 200 l 1,27,-1
 700 200 l 1,28,-1
 700 400 l 1,29,-1
 500 400 l 1,30,-1
 500 200 l 1,31,-1
 400 200 l 1,32,-1
 400 100 l 1,33,-1
 300 100 l 1,34,-1
 300 0 l 1,35,-1
 0 0 l 1,36,-1
 0 200 l 1,37,-1
 200 200 l 1,38,-1
 200 300 l 1,39,-1
 300 300 l 1,40,-1
 300 400 l 1,41,-1
 0 400 l 1,42,-1
 0 600 l 1,43,-1
 300 600 l 1,18,-1
EndSplineSet
EndChar

StartChar: uni52C7
Encoding: 21191 21191 253
Width: 1000
GlyphClass: 1
Flags: W
LayerCount: 2
Fore
SplineSet
800 1100 m 1,0,-1
 800 900 l 1,1,-1
 700 900 l 1,2,-1
 700 800 l 1,3,-1
 800 800 l 1,4,-1
 800 400 l 1,5,-1
 900 400 l 1,6,-1
 900 100 l 1,7,-1
 800 100 l 1,8,-1
 800 0 l 1,9,-1
 500 0 l 1,10,-1
 500 200 l 1,11,-1
 700 200 l 1,12,-1
 700 300 l 1,13,-1
 400 300 l 1,14,-1
 400 100 l 1,15,-1
 300 100 l 1,16,-1
 300 0 l 1,17,-1
 0 0 l 1,18,-1
 0 200 l 1,19,-1
 200 200 l 1,20,-1
 200 300 l 1,21,-1
 0 300 l 1,22,-1
 0 400 l 1,23,-1
 100 400 l 1,24,-1
 100 800 l 1,25,-1
 200 800 l 1,26,-1
 200 900 l 1,27,-1
 400 900 l 1,28,-1
 400 800 l 1,29,-1
 500 800 l 1,30,-1
 500 900 l 1,31,-1
 600 900 l 1,32,-1
 600 1000 l 1,33,-1
 100 1000 l 1,34,-1
 100 1100 l 1,35,-1
 800 1100 l 1,0,-1
500 700 m 1,36,-1
 500 600 l 1,37,-1
 600 600 l 1,38,-1
 600 700 l 1,39,-1
 500 700 l 1,36,-1
300 700 m 1,40,-1
 300 600 l 1,41,-1
 400 600 l 1,42,-1
 400 700 l 1,43,-1
 300 700 l 1,40,-1
400 400 m 1,44,-1
 400 500 l 1,45,-1
 300 500 l 1,46,-1
 300 400 l 1,47,-1
 400 400 l 1,44,-1
600 400 m 1,48,-1
 600 500 l 1,49,-1
 500 500 l 1,50,-1
 500 400 l 1,51,-1
 600 400 l 1,48,-1
EndSplineSet
EndChar

StartChar: uni52C9
Encoding: 21193 21193 254
Width: 1000
GlyphClass: 1
Flags: W
LayerCount: 2
Fore
SplineSet
600 1000 m 1,0,-1
 600 1100 l 1,1,-1
 800 1100 l 1,2,-1
 800 1000 l 1,3,-1
 900 1000 l 1,4,-1
 900 300 l 1,5,-1
 700 300 l 1,6,-1
 700 500 l 1,7,-1
 800 500 l 1,8,-1
 800 800 l 1,9,-1
 700 800 l 1,10,-1
 700 500 l 1,11,-1
 600 500 l 1,12,-1
 600 800 l 1,13,-1
 500 800 l 1,14,-1
 500 1000 l 1,15,-1
 600 1000 l 1,0,-1
900 0 m 1,16,-1
 400 0 l 1,17,-1
 400 100 l 1,18,-1
 300 100 l 1,19,-1
 300 300 l 1,20,-1
 200 300 l 1,21,-1
 200 0 l 1,22,-1
 0 0 l 1,23,-1
 0 200 l 1,24,-1
 100 200 l 1,25,-1
 100 300 l 1,26,-1
 0 300 l 1,27,-1
 0 800 l 1,28,-1
 100 800 l 1,29,-1
 100 900 l 1,30,-1
 200 900 l 1,31,-1
 200 1000 l 1,32,-1
 100 1000 l 1,33,-1
 100 1100 l 1,34,-1
 400 1100 l 1,35,-1
 400 900 l 1,36,-1
 300 900 l 1,37,-1
 300 800 l 1,38,-1
 500 800 l 1,39,-1
 500 500 l 1,40,-1
 600 500 l 1,41,-1
 600 300 l 1,42,-1
 400 300 l 1,43,-1
 400 200 l 1,44,-1
 900 200 l 1,45,-1
 900 0 l 1,16,-1
300 600 m 1,46,-1
 300 500 l 1,47,-1
 400 500 l 1,48,-1
 400 600 l 1,49,-1
 300 600 l 1,46,-1
100 1000 m 1,50,-1
 100 900 l 1,51,-1
 0 900 l 1,52,-1
 0 1000 l 1,53,-1
 100 1000 l 1,50,-1
100 600 m 1,54,-1
 100 500 l 1,55,-1
 200 500 l 1,56,-1
 200 600 l 1,57,-1
 100 600 l 1,54,-1
EndSplineSet
EndChar

StartChar: uni52D5
Encoding: 21205 21205 255
Width: 1000
GlyphClass: 1
Flags: W
LayerCount: 2
Fore
SplineSet
600 1000 m 1,0,-1
 600 1100 l 1,1,-1
 700 1100 l 1,2,-1
 700 1000 l 1,3,-1
 900 1000 l 1,4,-1
 900 0 l 1,5,-1
 700 0 l 1,6,-1
 700 100 l 1,7,-1
 600 100 l 1,8,-1
 600 0 l 1,9,-1
 0 0 l 1,10,-1
 0 100 l 1,11,-1
 100 100 l 1,12,-1
 100 200 l 1,13,-1
 0 200 l 1,14,-1
 0 300 l 1,15,-1
 100 300 l 1,16,-1
 100 400 l 1,17,-1
 0 400 l 1,18,-1
 0 900 l 1,19,-1
 100 900 l 1,20,-1
 100 1000 l 1,21,-1
 0 1000 l 1,22,-1
 0 1100 l 1,23,-1
 500 1100 l 1,24,-1
 500 1000 l 1,25,-1
 600 1000 l 1,0,-1
300 1000 m 1,26,-1
 300 900 l 1,27,-1
 500 900 l 1,28,-1
 500 1000 l 1,29,-1
 300 1000 l 1,26,-1
700 800 m 1,30,-1
 700 200 l 1,31,-1
 800 200 l 1,32,-1
 800 800 l 1,33,-1
 700 800 l 1,30,-1
500 800 m 1,34,-1
 500 400 l 1,35,-1
 300 400 l 1,36,-1
 300 300 l 1,37,-1
 500 300 l 1,38,-1
 500 200 l 1,39,-1
 300 200 l 1,40,-1
 300 100 l 1,41,-1
 500 100 l 1,42,-1
 500 200 l 1,43,-1
 600 200 l 1,44,-1
 600 800 l 1,45,-1
 500 800 l 1,34,-1
100 800 m 1,46,-1
 100 700 l 1,47,-1
 200 700 l 1,48,-1
 200 800 l 1,49,-1
 100 800 l 1,46,-1
300 800 m 1,50,-1
 300 700 l 1,51,-1
 400 700 l 1,52,-1
 400 800 l 1,53,-1
 300 800 l 1,50,-1
300 600 m 1,54,-1
 300 500 l 1,55,-1
 400 500 l 1,56,-1
 400 600 l 1,57,-1
 300 600 l 1,54,-1
100 600 m 1,58,-1
 100 500 l 1,59,-1
 200 500 l 1,60,-1
 200 600 l 1,61,-1
 100 600 l 1,58,-1
EndSplineSet
EndChar

StartChar: uni52DD
Encoding: 21213 21213 256
Width: 1000
GlyphClass: 1
Flags: W
LayerCount: 2
Fore
SplineSet
400 1100 m 1,0,-1
 400 1000 l 1,1,-1
 300 1000 l 1,2,-1
 300 900 l 1,3,-1
 500 900 l 1,4,-1
 500 1100 l 1,5,-1
 700 1100 l 1,6,-1
 700 900 l 1,7,-1
 900 900 l 1,8,-1
 900 800 l 1,9,-1
 800 800 l 1,10,-1
 800 700 l 1,11,-1
 900 700 l 1,12,-1
 900 600 l 1,13,-1
 800 600 l 1,14,-1
 800 500 l 1,15,-1
 700 500 l 1,16,-1
 700 600 l 1,17,-1
 500 600 l 1,18,-1
 500 500 l 1,19,-1
 400 500 l 1,20,-1
 400 600 l 1,21,-1
 300 600 l 1,22,-1
 300 500 l 1,23,-1
 400 500 l 1,24,-1
 400 400 l 1,25,-1
 300 400 l 1,26,-1
 300 100 l 1,27,-1
 400 100 l 1,28,-1
 400 200 l 1,29,-1
 500 200 l 1,30,-1
 500 300 l 1,31,-1
 400 300 l 1,32,-1
 400 400 l 1,33,-1
 500 400 l 1,34,-1
 500 500 l 1,35,-1
 700 500 l 1,36,-1
 700 400 l 1,37,-1
 800 400 l 1,38,-1
 800 500 l 1,39,-1
 900 500 l 1,40,-1
 900 100 l 1,41,-1
 800 100 l 1,42,-1
 800 0 l 1,43,-1
 600 0 l 1,44,-1
 600 100 l 1,45,-1
 700 100 l 1,46,-1
 700 300 l 1,47,-1
 600 300 l 1,48,-1
 600 100 l 1,49,-1
 500 100 l 1,50,-1
 500 0 l 1,51,-1
 200 0 l 1,52,-1
 200 300 l 1,53,-1
 100 300 l 1,54,-1
 100 0 l 1,55,-1
 0 0 l 1,56,-1
 0 1100 l 1,57,-1
 400 1100 l 1,0,-1
100 900 m 1,58,-1
 100 800 l 1,59,-1
 200 800 l 1,60,-1
 200 900 l 1,61,-1
 100 900 l 1,58,-1
200 600 m 1,62,-1
 100 600 l 1,63,-1
 100 500 l 1,64,-1
 200 500 l 1,65,-1
 200 600 l 1,62,-1
900 1100 m 1,66,-1
 900 1000 l 1,67,-1
 800 1000 l 1,68,-1
 800 1100 l 1,69,-1
 900 1100 l 1,66,-1
400 800 m 1,70,-1
 300 800 l 1,71,-1
 300 700 l 1,72,-1
 400 700 l 1,73,-1
 400 800 l 1,70,-1
700 700 m 1,74,-1
 700 800 l 1,75,-1
 600 800 l 1,76,-1
 600 700 l 1,77,-1
 700 700 l 1,74,-1
EndSplineSet
EndChar

StartChar: uni5305
Encoding: 21253 21253 257
Width: 1000
GlyphClass: 1
Flags: W
LayerCount: 2
Fore
SplineSet
300 1100 m 1,0,-1
 300 1000 l 1,1,-1
 900 1000 l 1,2,-1
 900 400 l 1,3,-1
 700 400 l 1,4,-1
 700 800 l 1,5,-1
 200 800 l 1,6,-1
 200 700 l 1,7,-1
 0 700 l 1,8,-1
 0 900 l 1,9,-1
 100 900 l 1,10,-1
 100 1100 l 1,11,-1
 300 1100 l 1,0,-1
600 300 m 1,12,-1
 300 300 l 1,13,-1
 300 200 l 1,14,-1
 700 200 l 1,15,-1
 700 300 l 1,16,-1
 900 300 l 1,17,-1
 900 100 l 1,18,-1
 800 100 l 1,19,-1
 800 0 l 1,20,-1
 100 0 l 1,21,-1
 100 400 l 1,22,-1
 400 400 l 1,23,-1
 400 500 l 1,24,-1
 200 500 l 1,25,-1
 200 700 l 1,26,-1
 600 700 l 1,27,-1
 600 300 l 1,12,-1
EndSplineSet
EndChar

StartChar: uni5316
Encoding: 21270 21270 258
Width: 1000
GlyphClass: 1
Flags: W
LayerCount: 2
Fore
SplineSet
300 1100 m 1,0,-1
 300 0 l 1,1,-1
 100 0 l 1,2,-1
 100 600 l 1,3,-1
 0 600 l 1,4,-1
 0 800 l 1,5,-1
 100 800 l 1,6,-1
 100 1100 l 1,7,-1
 300 1100 l 1,0,-1
600 1100 m 1,8,-1
 600 900 l 1,9,-1
 700 900 l 1,10,-1
 700 1000 l 1,11,-1
 900 1000 l 1,12,-1
 900 800 l 1,13,-1
 800 800 l 1,14,-1
 800 700 l 1,15,-1
 700 700 l 1,16,-1
 700 600 l 1,17,-1
 600 600 l 1,18,-1
 600 200 l 1,19,-1
 700 200 l 1,20,-1
 700 400 l 1,21,-1
 900 400 l 1,22,-1
 900 100 l 1,23,-1
 800 100 l 1,24,-1
 800 0 l 1,25,-1
 400 0 l 1,26,-1
 400 1100 l 1,27,-1
 600 1100 l 1,8,-1
EndSplineSet
EndChar

StartChar: uni5317
Encoding: 21271 21271 259
Width: 1000
GlyphClass: 1
Flags: W
LayerCount: 2
Fore
SplineSet
300 0 m 1,0,-1
 100 0 l 1,1,-1
 100 200 l 1,2,-1
 0 200 l 1,3,-1
 0 400 l 1,4,-1
 100 400 l 1,5,-1
 100 700 l 1,6,-1
 0 700 l 1,7,-1
 0 900 l 1,8,-1
 100 900 l 1,9,-1
 100 1100 l 1,10,-1
 300 1100 l 1,11,-1
 300 0 l 1,0,-1
600 900 m 1,12,-1
 700 900 l 1,13,-1
 700 1000 l 1,14,-1
 900 1000 l 1,15,-1
 900 800 l 1,16,-1
 800 800 l 1,17,-1
 800 700 l 1,18,-1
 700 700 l 1,19,-1
 700 600 l 1,20,-1
 600 600 l 1,21,-1
 600 200 l 1,22,-1
 700 200 l 1,23,-1
 700 500 l 1,24,-1
 900 500 l 1,25,-1
 900 100 l 1,26,-1
 800 100 l 1,27,-1
 800 0 l 1,28,-1
 400 0 l 1,29,-1
 400 1100 l 1,30,-1
 600 1100 l 1,31,-1
 600 900 l 1,12,-1
EndSplineSet
EndChar

StartChar: uni533A
Encoding: 21306 21306 260
Width: 1000
GlyphClass: 1
Flags: W
LayerCount: 2
Fore
SplineSet
900 1100 m 1,0,-1
 900 900 l 1,1,-1
 200 900 l 1,2,-1
 200 200 l 1,3,-1
 900 200 l 1,4,-1
 900 0 l 1,5,-1
 0 0 l 1,6,-1
 0 1100 l 1,7,-1
 900 1100 l 1,0,-1
900 600 m 1,8,-1
 800 600 l 1,9,-1
 800 500 l 1,10,-1
 900 500 l 1,11,-1
 900 300 l 1,12,-1
 700 300 l 1,13,-1
 700 400 l 1,14,-1
 500 400 l 1,15,-1
 500 300 l 1,16,-1
 300 300 l 1,17,-1
 300 500 l 1,18,-1
 400 500 l 1,19,-1
 400 600 l 1,20,-1
 300 600 l 1,21,-1
 300 800 l 1,22,-1
 500 800 l 1,23,-1
 500 700 l 1,24,-1
 700 700 l 1,25,-1
 700 800 l 1,26,-1
 900 800 l 1,27,-1
 900 600 l 1,8,-1
EndSplineSet
EndChar

StartChar: uni533B
Encoding: 21307 21307 261
Width: 1000
GlyphClass: 1
Flags: W
LayerCount: 2
Fore
SplineSet
900 0 m 1,0,-1
 0 0 l 1,1,-1
 0 1100 l 1,2,-1
 900 1100 l 1,3,-1
 900 900 l 1,4,-1
 500 900 l 1,5,-1
 500 800 l 1,6,-1
 900 800 l 1,7,-1
 900 700 l 1,8,-1
 700 700 l 1,9,-1
 700 600 l 1,10,-1
 900 600 l 1,11,-1
 900 500 l 1,12,-1
 800 500 l 1,13,-1
 800 400 l 1,14,-1
 900 400 l 1,15,-1
 900 300 l 1,16,-1
 700 300 l 1,17,-1
 700 400 l 1,18,-1
 500 400 l 1,19,-1
 500 300 l 1,20,-1
 300 300 l 1,21,-1
 300 400 l 1,22,-1
 400 400 l 1,23,-1
 400 500 l 1,24,-1
 300 500 l 1,25,-1
 300 600 l 1,26,-1
 200 600 l 1,27,-1
 200 200 l 1,28,-1
 900 200 l 1,29,-1
 900 0 l 1,0,-1
200 900 m 1,30,-1
 200 700 l 1,31,-1
 300 700 l 1,32,-1
 300 900 l 1,33,-1
 200 900 l 1,30,-1
500 700 m 1,34,-1
 400 700 l 1,35,-1
 400 600 l 1,36,-1
 500 600 l 1,37,-1
 500 700 l 1,34,-1
EndSplineSet
EndChar

StartChar: uni5341
Encoding: 21313 21313 262
Width: 1000
GlyphClass: 1
Flags: W
LayerCount: 2
Fore
SplineSet
500 700 m 1,0,-1
 900 700 l 1,1,-1
 900 500 l 1,2,-1
 500 500 l 1,3,-1
 500 0 l 1,4,-1
 300 0 l 1,5,-1
 300 500 l 1,6,-1
 0 500 l 1,7,-1
 0 700 l 1,8,-1
 300 700 l 1,9,-1
 300 1100 l 1,10,-1
 500 1100 l 1,11,-1
 500 700 l 1,0,-1
EndSplineSet
EndChar

StartChar: uni5343
Encoding: 21315 21315 263
Width: 1000
GlyphClass: 1
Flags: W
LayerCount: 2
Fore
SplineSet
400 600 m 1,0,-1
 400 800 l 1,1,-1
 100 800 l 1,2,-1
 100 1000 l 1,3,-1
 500 1000 l 1,4,-1
 500 1100 l 1,5,-1
 900 1100 l 1,6,-1
 900 900 l 1,7,-1
 600 900 l 1,8,-1
 600 600 l 1,9,-1
 900 600 l 1,10,-1
 900 400 l 1,11,-1
 600 400 l 1,12,-1
 600 0 l 1,13,-1
 400 0 l 1,14,-1
 400 400 l 1,15,-1
 0 400 l 1,16,-1
 0 600 l 1,17,-1
 400 600 l 1,0,-1
EndSplineSet
EndChar

StartChar: uni5348
Encoding: 21320 21320 264
Width: 1000
GlyphClass: 1
Flags: W
LayerCount: 2
Fore
SplineSet
900 800 m 1,0,-1
 600 800 l 1,1,-1
 600 600 l 1,2,-1
 900 600 l 1,3,-1
 900 400 l 1,4,-1
 600 400 l 1,5,-1
 600 0 l 1,6,-1
 400 0 l 1,7,-1
 400 400 l 1,8,-1
 0 400 l 1,9,-1
 0 600 l 1,10,-1
 400 600 l 1,11,-1
 400 800 l 1,12,-1
 200 800 l 1,13,-1
 200 700 l 1,14,-1
 0 700 l 1,15,-1
 0 900 l 1,16,-1
 100 900 l 1,17,-1
 100 1100 l 1,18,-1
 300 1100 l 1,19,-1
 300 1000 l 1,20,-1
 900 1000 l 1,21,-1
 900 800 l 1,0,-1
EndSplineSet
EndChar

StartChar: uni534A
Encoding: 21322 21322 265
Width: 1000
GlyphClass: 1
Flags: W
LayerCount: 2
Fore
SplineSet
500 700 m 1,0,-1
 800 700 l 1,1,-1
 800 500 l 1,2,-1
 500 500 l 1,3,-1
 500 400 l 1,4,-1
 900 400 l 1,5,-1
 900 200 l 1,6,-1
 500 200 l 1,7,-1
 500 0 l 1,8,-1
 300 0 l 1,9,-1
 300 200 l 1,10,-1
 0 200 l 1,11,-1
 0 400 l 1,12,-1
 300 400 l 1,13,-1
 300 500 l 1,14,-1
 0 500 l 1,15,-1
 0 700 l 1,16,-1
 300 700 l 1,17,-1
 300 1100 l 1,18,-1
 500 1100 l 1,19,-1
 500 700 l 1,0,-1
200 1100 m 1,20,-1
 200 800 l 1,21,-1
 0 800 l 1,22,-1
 0 1100 l 1,23,-1
 200 1100 l 1,20,-1
700 1000 m 1,24,-1
 700 1100 l 1,25,-1
 900 1100 l 1,26,-1
 900 900 l 1,27,-1
 800 900 l 1,28,-1
 800 800 l 1,29,-1
 600 800 l 1,30,-1
 600 1000 l 1,31,-1
 700 1000 l 1,24,-1
EndSplineSet
EndChar

StartChar: uni5352
Encoding: 21330 21330 266
Width: 1000
GlyphClass: 1
Flags: W
LayerCount: 2
Fore
SplineSet
600 1000 m 1,0,-1
 900 1000 l 1,1,-1
 900 800 l 1,2,-1
 800 800 l 1,3,-1
 800 700 l 1,4,-1
 900 700 l 1,5,-1
 900 500 l 1,6,-1
 700 500 l 1,7,-1
 700 600 l 1,8,-1
 600 600 l 1,9,-1
 600 500 l 1,10,-1
 500 500 l 1,11,-1
 500 700 l 1,12,-1
 600 700 l 1,13,-1
 600 800 l 1,14,-1
 300 800 l 1,15,-1
 300 700 l 1,16,-1
 400 700 l 1,17,-1
 400 500 l 1,18,-1
 500 500 l 1,19,-1
 500 400 l 1,20,-1
 900 400 l 1,21,-1
 900 200 l 1,22,-1
 500 200 l 1,23,-1
 500 0 l 1,24,-1
 300 0 l 1,25,-1
 300 200 l 1,26,-1
 0 200 l 1,27,-1
 0 400 l 1,28,-1
 300 400 l 1,29,-1
 300 500 l 1,30,-1
 200 500 l 1,31,-1
 200 600 l 1,32,-1
 100 600 l 1,33,-1
 100 500 l 1,34,-1
 0 500 l 1,35,-1
 0 700 l 1,36,-1
 100 700 l 1,37,-1
 100 800 l 1,38,-1
 0 800 l 1,39,-1
 0 1000 l 1,40,-1
 300 1000 l 1,41,-1
 300 1100 l 1,42,-1
 600 1100 l 1,43,-1
 600 1000 l 1,0,-1
EndSplineSet
EndChar

StartChar: uni5354
Encoding: 21332 21332 267
Width: 1000
GlyphClass: 1
Flags: W
LayerCount: 2
Fore
SplineSet
100 800 m 1,0,-1
 100 1100 l 1,1,-1
 300 1100 l 1,2,-1
 300 800 l 1,3,-1
 400 800 l 1,4,-1
 400 600 l 1,5,-1
 300 600 l 1,6,-1
 300 500 l 1,7,-1
 500 500 l 1,8,-1
 500 400 l 1,9,-1
 600 400 l 1,10,-1
 600 500 l 1,11,-1
 800 500 l 1,12,-1
 800 400 l 1,13,-1
 900 400 l 1,14,-1
 900 0 l 1,15,-1
 700 0 l 1,16,-1
 700 300 l 1,17,-1
 600 300 l 1,18,-1
 600 0 l 1,19,-1
 400 0 l 1,20,-1
 400 300 l 1,21,-1
 300 300 l 1,22,-1
 300 0 l 1,23,-1
 100 0 l 1,24,-1
 100 600 l 1,25,-1
 0 600 l 1,26,-1
 0 800 l 1,27,-1
 100 800 l 1,0,-1
500 1000 m 1,28,-1
 500 1100 l 1,29,-1
 700 1100 l 1,30,-1
 700 1000 l 1,31,-1
 900 1000 l 1,32,-1
 900 600 l 1,33,-1
 700 600 l 1,34,-1
 700 800 l 1,35,-1
 600 800 l 1,36,-1
 600 600 l 1,37,-1
 500 600 l 1,38,-1
 500 800 l 1,39,-1
 400 800 l 1,40,-1
 400 1000 l 1,41,-1
 500 1000 l 1,28,-1
EndSplineSet
EndChar

StartChar: uni5357
Encoding: 21335 21335 268
Width: 1000
GlyphClass: 1
Flags: W
LayerCount: 2
Fore
SplineSet
300 1000 m 1,0,-1
 300 1100 l 1,1,-1
 500 1100 l 1,2,-1
 500 1000 l 1,3,-1
 900 1000 l 1,4,-1
 900 800 l 1,5,-1
 500 800 l 1,6,-1
 500 700 l 1,7,-1
 900 700 l 1,8,-1
 900 0 l 1,9,-1
 700 0 l 1,10,-1
 700 600 l 1,11,-1
 600 600 l 1,12,-1
 600 500 l 1,13,-1
 500 500 l 1,14,-1
 500 400 l 1,15,-1
 600 400 l 1,16,-1
 600 300 l 1,17,-1
 500 300 l 1,18,-1
 500 200 l 1,19,-1
 600 200 l 1,20,-1
 600 100 l 1,21,-1
 500 100 l 1,22,-1
 500 0 l 1,23,-1
 300 0 l 1,24,-1
 300 100 l 1,25,-1
 200 100 l 1,26,-1
 200 0 l 1,27,-1
 0 0 l 1,28,-1
 0 700 l 1,29,-1
 300 700 l 1,30,-1
 300 800 l 1,31,-1
 0 800 l 1,32,-1
 0 1000 l 1,33,-1
 300 1000 l 1,0,-1
300 400 m 1,34,-1
 300 500 l 1,35,-1
 200 500 l 1,36,-1
 200 400 l 1,37,-1
 300 400 l 1,34,-1
300 200 m 1,38,-1
 300 300 l 1,39,-1
 200 300 l 1,40,-1
 200 200 l 1,41,-1
 300 200 l 1,38,-1
EndSplineSet
EndChar

StartChar: uni5358
Encoding: 21336 21336 269
Width: 1000
GlyphClass: 1
Flags: W
LayerCount: 2
Fore
SplineSet
800 900 m 1,0,-1
 800 400 l 1,1,-1
 500 400 l 1,2,-1
 500 300 l 1,3,-1
 900 300 l 1,4,-1
 900 100 l 1,5,-1
 500 100 l 1,6,-1
 500 0 l 1,7,-1
 300 0 l 1,8,-1
 300 100 l 1,9,-1
 0 100 l 1,10,-1
 0 300 l 1,11,-1
 300 300 l 1,12,-1
 300 400 l 1,13,-1
 0 400 l 1,14,-1
 0 900 l 1,15,-1
 500 900 l 1,16,-1
 500 1000 l 1,17,-1
 600 1000 l 1,18,-1
 600 1100 l 1,19,-1
 800 1100 l 1,20,-1
 800 1000 l 1,21,-1
 700 1000 l 1,22,-1
 700 900 l 1,23,-1
 800 900 l 1,0,-1
200 700 m 1,24,-1
 300 700 l 1,25,-1
 300 800 l 1,26,-1
 200 800 l 1,27,-1
 200 700 l 1,24,-1
500 700 m 1,28,-1
 600 700 l 1,29,-1
 600 800 l 1,30,-1
 500 800 l 1,31,-1
 500 700 l 1,28,-1
200 500 m 1,32,-1
 300 500 l 1,33,-1
 300 600 l 1,34,-1
 200 600 l 1,35,-1
 200 500 l 1,32,-1
500 500 m 1,36,-1
 600 500 l 1,37,-1
 600 600 l 1,38,-1
 500 600 l 1,39,-1
 500 500 l 1,36,-1
200 1000 m 1,40,-1
 0 1000 l 1,41,-1
 0 1100 l 1,42,-1
 200 1100 l 1,43,-1
 200 1000 l 1,40,-1
500 1100 m 1,44,-1
 500 1000 l 1,45,-1
 300 1000 l 1,46,-1
 300 1100 l 1,47,-1
 500 1100 l 1,44,-1
EndSplineSet
EndChar

StartChar: uni535A
Encoding: 21338 21338 270
Width: 1000
GlyphClass: 1
Flags: W
LayerCount: 2
Fore
SplineSet
0 700 m 1,0,-1
 0 900 l 1,1,-1
 100 900 l 1,2,-1
 100 1100 l 1,3,-1
 300 1100 l 1,4,-1
 300 900 l 1,5,-1
 400 900 l 1,6,-1
 400 1000 l 1,7,-1
 500 1000 l 1,8,-1
 500 1100 l 1,9,-1
 700 1100 l 1,10,-1
 700 1000 l 1,11,-1
 800 1000 l 1,12,-1
 800 1100 l 1,13,-1
 900 1100 l 1,14,-1
 900 100 l 1,15,-1
 800 100 l 1,16,-1
 800 0 l 1,17,-1
 600 0 l 1,18,-1
 600 200 l 1,19,-1
 700 200 l 1,20,-1
 700 300 l 1,21,-1
 300 300 l 1,22,-1
 300 0 l 1,23,-1
 100 0 l 1,24,-1
 100 700 l 1,25,-1
 0 700 l 1,0,-1
500 800 m 1,26,-1
 500 700 l 1,27,-1
 600 700 l 1,28,-1
 600 800 l 1,29,-1
 500 800 l 1,26,-1
300 700 m 1,30,-1
 300 500 l 1,31,-1
 400 500 l 1,32,-1
 400 700 l 1,33,-1
 300 700 l 1,30,-1
800 700 m 1,34,-1
 800 800 l 1,35,-1
 700 800 l 1,36,-1
 700 700 l 1,37,-1
 800 700 l 1,34,-1
600 500 m 1,38,-1
 600 600 l 1,39,-1
 500 600 l 1,40,-1
 500 500 l 1,41,-1
 600 500 l 1,38,-1
800 500 m 1,42,-1
 800 600 l 1,43,-1
 700 600 l 1,44,-1
 700 500 l 1,45,-1
 800 500 l 1,42,-1
500 200 m 1,46,-1
 500 100 l 1,47,-1
 400 100 l 1,48,-1
 400 200 l 1,49,-1
 500 200 l 1,46,-1
EndSplineSet
EndChar

StartChar: uni5370
Encoding: 21360 21360 271
Width: 1000
GlyphClass: 1
Flags: W
LayerCount: 2
Fore
SplineSet
100 1100 m 1,0,-1
 300 1100 l 1,1,-1
 300 900 l 1,2,-1
 200 900 l 1,3,-1
 200 700 l 1,4,-1
 300 700 l 1,5,-1
 300 500 l 1,6,-1
 200 500 l 1,7,-1
 200 300 l 1,8,-1
 300 300 l 1,9,-1
 300 100 l 1,10,-1
 0 100 l 1,11,-1
 0 1000 l 1,12,-1
 100 1000 l 1,13,-1
 100 1100 l 1,0,-1
900 300 m 1,14,-1
 800 300 l 1,15,-1
 800 200 l 1,16,-1
 600 200 l 1,17,-1
 600 0 l 1,18,-1
 400 0 l 1,19,-1
 400 1100 l 1,20,-1
 900 1100 l 1,21,-1
 900 300 l 1,14,-1
600 900 m 1,22,-1
 600 400 l 1,23,-1
 700 400 l 1,24,-1
 700 900 l 1,25,-1
 600 900 l 1,22,-1
EndSplineSet
EndChar

StartChar: uni539F
Encoding: 21407 21407 272
Width: 1000
GlyphClass: 1
Flags: W
LayerCount: 2
Fore
SplineSet
900 1100 m 1,0,-1
 900 900 l 1,1,-1
 700 900 l 1,2,-1
 700 800 l 1,3,-1
 900 800 l 1,4,-1
 900 300 l 1,5,-1
 700 300 l 1,6,-1
 700 0 l 1,7,-1
 500 0 l 1,8,-1
 500 300 l 1,9,-1
 300 300 l 1,10,-1
 300 800 l 1,11,-1
 500 800 l 1,12,-1
 500 900 l 1,13,-1
 200 900 l 1,14,-1
 200 0 l 1,15,-1
 0 0 l 1,16,-1
 0 1100 l 1,17,-1
 900 1100 l 1,0,-1
500 700 m 1,18,-1
 500 600 l 1,19,-1
 700 600 l 1,20,-1
 700 700 l 1,21,-1
 500 700 l 1,18,-1
700 500 m 1,22,-1
 500 500 l 1,23,-1
 500 400 l 1,24,-1
 700 400 l 1,25,-1
 700 500 l 1,22,-1
400 200 m 1,26,-1
 400 0 l 1,27,-1
 300 0 l 1,28,-1
 300 200 l 1,29,-1
 400 200 l 1,26,-1
900 200 m 1,30,-1
 900 0 l 1,31,-1
 800 0 l 1,32,-1
 800 200 l 1,33,-1
 900 200 l 1,30,-1
EndSplineSet
EndChar

StartChar: uni53BB
Encoding: 21435 21435 273
Width: 1000
GlyphClass: 1
Flags: W
LayerCount: 2
Fore
SplineSet
300 1100 m 1,0,-1
 500 1100 l 1,1,-1
 500 1000 l 1,2,-1
 800 1000 l 1,3,-1
 800 800 l 1,4,-1
 500 800 l 1,5,-1
 500 700 l 1,6,-1
 900 700 l 1,7,-1
 900 500 l 1,8,-1
 500 500 l 1,9,-1
 500 400 l 1,10,-1
 400 400 l 1,11,-1
 400 300 l 1,12,-1
 300 300 l 1,13,-1
 300 200 l 1,14,-1
 500 200 l 1,15,-1
 500 300 l 1,16,-1
 600 300 l 1,17,-1
 600 400 l 1,18,-1
 800 400 l 1,19,-1
 800 200 l 1,20,-1
 900 200 l 1,21,-1
 900 0 l 1,22,-1
 700 0 l 1,23,-1
 700 100 l 1,24,-1
 600 100 l 1,25,-1
 600 0 l 1,26,-1
 0 0 l 1,27,-1
 0 300 l 1,28,-1
 100 300 l 1,29,-1
 100 400 l 1,30,-1
 200 400 l 1,31,-1
 200 500 l 1,32,-1
 0 500 l 1,33,-1
 0 700 l 1,34,-1
 300 700 l 1,35,-1
 300 800 l 1,36,-1
 0 800 l 1,37,-1
 0 1000 l 1,38,-1
 300 1000 l 1,39,-1
 300 1100 l 1,0,-1
EndSplineSet
EndChar

StartChar: uni53C2
Encoding: 21442 21442 274
Width: 1000
GlyphClass: 1
Flags: W
LayerCount: 2
Fore
SplineSet
500 1000 m 1,0,-1
 400 1000 l 1,1,-1
 400 900 l 1,2,-1
 600 900 l 1,3,-1
 600 1000 l 1,4,-1
 800 1000 l 1,5,-1
 800 900 l 1,6,-1
 900 900 l 1,7,-1
 900 800 l 1,8,-1
 500 800 l 1,9,-1
 500 700 l 1,10,-1
 900 700 l 1,11,-1
 900 600 l 1,12,-1
 800 600 l 1,13,-1
 800 500 l 1,14,-1
 900 500 l 1,15,-1
 900 400 l 1,16,-1
 700 400 l 1,17,-1
 700 500 l 1,18,-1
 600 500 l 1,19,-1
 600 600 l 1,20,-1
 300 600 l 1,21,-1
 300 500 l 1,22,-1
 200 500 l 1,23,-1
 200 400 l 1,24,-1
 0 400 l 1,25,-1
 0 500 l 1,26,-1
 100 500 l 1,27,-1
 100 600 l 1,28,-1
 0 600 l 1,29,-1
 0 700 l 1,30,-1
 300 700 l 1,31,-1
 300 800 l 1,32,-1
 0 800 l 1,33,-1
 0 900 l 1,34,-1
 100 900 l 1,35,-1
 100 1000 l 1,36,-1
 200 1000 l 1,37,-1
 200 1100 l 1,38,-1
 500 1100 l 1,39,-1
 500 1000 l 1,0,-1
300 400 m 1,40,-1
 300 500 l 1,41,-1
 500 500 l 1,42,-1
 500 400 l 1,43,-1
 300 400 l 1,40,-1
700 400 m 1,44,-1
 700 300 l 1,45,-1
 600 300 l 1,46,-1
 600 200 l 1,47,-1
 200 200 l 1,48,-1
 200 300 l 1,49,-1
 500 300 l 1,50,-1
 500 400 l 1,51,-1
 700 400 l 1,44,-1
700 200 m 1,52,-1
 700 300 l 1,53,-1
 900 300 l 1,54,-1
 900 200 l 1,55,-1
 800 200 l 1,56,-1
 800 100 l 1,57,-1
 700 100 l 1,58,-1
 700 0 l 1,59,-1
 100 0 l 1,60,-1
 100 100 l 1,61,-1
 600 100 l 1,62,-1
 600 200 l 1,63,-1
 700 200 l 1,52,-1
EndSplineSet
EndChar

StartChar: uni53CB
Encoding: 21451 21451 275
Width: 1000
GlyphClass: 1
Flags: W
LayerCount: 2
Fore
SplineSet
300 1000 m 1,0,-1
 300 1100 l 1,1,-1
 500 1100 l 1,2,-1
 500 1000 l 1,3,-1
 900 1000 l 1,4,-1
 900 800 l 1,5,-1
 400 800 l 1,6,-1
 400 700 l 1,7,-1
 900 700 l 1,8,-1
 900 300 l 1,9,-1
 800 300 l 1,10,-1
 800 200 l 1,11,-1
 900 200 l 1,12,-1
 900 0 l 1,13,-1
 700 0 l 1,14,-1
 700 100 l 1,15,-1
 400 100 l 1,16,-1
 400 0 l 1,17,-1
 100 0 l 1,18,-1
 100 200 l 1,19,-1
 300 200 l 1,20,-1
 300 400 l 1,21,-1
 200 400 l 1,22,-1
 200 300 l 1,23,-1
 0 300 l 1,24,-1
 0 500 l 1,25,-1
 100 500 l 1,26,-1
 100 600 l 1,27,-1
 200 600 l 1,28,-1
 200 800 l 1,29,-1
 0 800 l 1,30,-1
 0 1000 l 1,31,-1
 300 1000 l 1,0,-1
400 500 m 1,32,-1
 400 400 l 1,33,-1
 500 400 l 1,34,-1
 500 300 l 1,35,-1
 600 300 l 1,36,-1
 600 400 l 1,37,-1
 700 400 l 1,38,-1
 700 500 l 1,39,-1
 400 500 l 1,32,-1
EndSplineSet
EndChar

StartChar: uni53CD
Encoding: 21453 21453 276
Width: 1000
GlyphClass: 1
Flags: W
LayerCount: 2
Fore
SplineSet
900 1100 m 1,0,-1
 900 900 l 1,1,-1
 200 900 l 1,2,-1
 200 800 l 1,3,-1
 900 800 l 1,4,-1
 900 300 l 1,5,-1
 800 300 l 1,6,-1
 800 200 l 1,7,-1
 900 200 l 1,8,-1
 900 0 l 1,9,-1
 700 0 l 1,10,-1
 700 100 l 1,11,-1
 500 100 l 1,12,-1
 500 0 l 1,13,-1
 300 0 l 1,14,-1
 300 200 l 1,15,-1
 400 200 l 1,16,-1
 400 300 l 1,17,-1
 300 300 l 1,18,-1
 300 500 l 1,19,-1
 500 500 l 1,20,-1
 500 400 l 1,21,-1
 700 400 l 1,22,-1
 700 600 l 1,23,-1
 200 600 l 1,24,-1
 200 0 l 1,25,-1
 0 0 l 1,26,-1
 0 1100 l 1,27,-1
 900 1100 l 1,0,-1
EndSplineSet
EndChar

StartChar: uni53D6
Encoding: 21462 21462 277
Width: 1000
GlyphClass: 1
Flags: W
LayerCount: 2
Fore
SplineSet
500 1100 m 1,0,-1
 500 1000 l 1,1,-1
 900 1000 l 1,2,-1
 900 400 l 1,3,-1
 800 400 l 1,4,-1
 800 300 l 1,5,-1
 900 300 l 1,6,-1
 900 0 l 1,7,-1
 700 0 l 1,8,-1
 700 100 l 1,9,-1
 600 100 l 1,10,-1
 600 0 l 1,11,-1
 200 0 l 1,12,-1
 200 200 l 1,13,-1
 0 200 l 1,14,-1
 0 400 l 1,15,-1
 100 400 l 1,16,-1
 100 900 l 1,17,-1
 0 900 l 1,18,-1
 0 1100 l 1,19,-1
 500 1100 l 1,0,-1
200 900 m 1,20,-1
 200 800 l 1,21,-1
 300 800 l 1,22,-1
 300 900 l 1,23,-1
 200 900 l 1,20,-1
200 700 m 1,24,-1
 200 600 l 1,25,-1
 300 600 l 1,26,-1
 300 700 l 1,27,-1
 200 700 l 1,24,-1
200 500 m 1,28,-1
 200 400 l 1,29,-1
 300 400 l 1,30,-1
 300 500 l 1,31,-1
 200 500 l 1,28,-1
700 800 m 1,32,-1
 400 800 l 1,33,-1
 400 700 l 1,34,-1
 600 700 l 1,35,-1
 600 600 l 1,36,-1
 700 600 l 1,37,-1
 700 800 l 1,32,-1
500 400 m 1,38,-1
 500 500 l 1,39,-1
 400 500 l 1,40,-1
 400 200 l 1,41,-1
 500 200 l 1,42,-1
 500 300 l 1,43,-1
 600 300 l 1,44,-1
 600 400 l 1,45,-1
 500 400 l 1,38,-1
EndSplineSet
EndChar

StartChar: uni53D7
Encoding: 21463 21463 278
Width: 1000
GlyphClass: 1
Flags: W
LayerCount: 2
Fore
SplineSet
900 900 m 1,0,-1
 800 900 l 1,1,-1
 800 800 l 1,2,-1
 900 800 l 1,3,-1
 900 500 l 1,4,-1
 800 500 l 1,5,-1
 800 300 l 1,6,-1
 700 300 l 1,7,-1
 700 200 l 1,8,-1
 900 200 l 1,9,-1
 900 0 l 1,10,-1
 600 0 l 1,11,-1
 600 100 l 1,12,-1
 300 100 l 1,13,-1
 300 0 l 1,14,-1
 0 0 l 1,15,-1
 0 200 l 1,16,-1
 200 200 l 1,17,-1
 200 300 l 1,18,-1
 100 300 l 1,19,-1
 100 400 l 1,20,-1
 400 400 l 1,21,-1
 400 300 l 1,22,-1
 500 300 l 1,23,-1
 500 400 l 1,24,-1
 600 400 l 1,25,-1
 600 500 l 1,26,-1
 0 500 l 1,27,-1
 0 800 l 1,28,-1
 100 800 l 1,29,-1
 100 900 l 1,30,-1
 0 900 l 1,31,-1
 0 1100 l 1,32,-1
 900 1100 l 1,33,-1
 900 900 l 1,0,-1
300 900 m 1,34,-1
 300 800 l 1,35,-1
 400 800 l 1,36,-1
 400 900 l 1,37,-1
 300 900 l 1,34,-1
600 800 m 1,38,-1
 600 900 l 1,39,-1
 500 900 l 1,40,-1
 500 800 l 1,41,-1
 600 800 l 1,38,-1
200 700 m 1,42,-1
 200 600 l 1,43,-1
 700 600 l 1,44,-1
 700 700 l 1,45,-1
 200 700 l 1,42,-1
EndSplineSet
EndChar

StartChar: uni53E3
Encoding: 21475 21475 279
Width: 1000
GlyphClass: 1
Flags: W
LayerCount: 2
Fore
SplineSet
900 1100 m 1,0,-1
 900 0 l 1,1,-1
 0 0 l 1,2,-1
 0 1100 l 1,3,-1
 900 1100 l 1,0,-1
700 900 m 1,4,-1
 200 900 l 1,5,-1
 200 200 l 1,6,-1
 700 200 l 1,7,-1
 700 900 l 1,4,-1
EndSplineSet
EndChar

StartChar: uni53E4
Encoding: 21476 21476 280
Width: 1000
GlyphClass: 1
Flags: W
LayerCount: 2
Fore
SplineSet
300 1000 m 1,0,-1
 300 1100 l 1,1,-1
 500 1100 l 1,2,-1
 500 1000 l 1,3,-1
 900 1000 l 1,4,-1
 900 800 l 1,5,-1
 500 800 l 1,6,-1
 500 700 l 1,7,-1
 800 700 l 1,8,-1
 800 0 l 1,9,-1
 0 0 l 1,10,-1
 0 700 l 1,11,-1
 300 700 l 1,12,-1
 300 800 l 1,13,-1
 0 800 l 1,14,-1
 0 1000 l 1,15,-1
 300 1000 l 1,0,-1
200 500 m 1,16,-1
 200 200 l 1,17,-1
 600 200 l 1,18,-1
 600 500 l 1,19,-1
 200 500 l 1,16,-1
EndSplineSet
EndChar

StartChar: uni53F0
Encoding: 21488 21488 281
Width: 1000
GlyphClass: 1
Flags: W
LayerCount: 2
Fore
SplineSet
800 500 m 1,0,-1
 800 0 l 1,1,-1
 100 0 l 1,2,-1
 100 500 l 1,3,-1
 800 500 l 1,0,-1
600 300 m 1,4,-1
 300 300 l 1,5,-1
 300 200 l 1,6,-1
 600 200 l 1,7,-1
 600 300 l 1,4,-1
500 1100 m 1,8,-1
 500 900 l 1,9,-1
 400 900 l 1,10,-1
 400 800 l 1,11,-1
 600 800 l 1,12,-1
 600 900 l 1,13,-1
 800 900 l 1,14,-1
 800 800 l 1,15,-1
 900 800 l 1,16,-1
 900 600 l 1,17,-1
 700 600 l 1,18,-1
 700 700 l 1,19,-1
 600 700 l 1,20,-1
 600 600 l 1,21,-1
 0 600 l 1,22,-1
 0 800 l 1,23,-1
 100 800 l 1,24,-1
 100 900 l 1,25,-1
 200 900 l 1,26,-1
 200 1000 l 1,27,-1
 300 1000 l 1,28,-1
 300 1100 l 1,29,-1
 500 1100 l 1,8,-1
EndSplineSet
EndChar

StartChar: uni53F2
Encoding: 21490 21490 282
Width: 1000
GlyphClass: 1
Flags: W
LayerCount: 2
Fore
SplineSet
300 1000 m 1,0,-1
 300 1100 l 1,1,-1
 500 1100 l 1,2,-1
 500 1000 l 1,3,-1
 900 1000 l 1,4,-1
 900 500 l 1,5,-1
 500 500 l 1,6,-1
 500 300 l 1,7,-1
 600 300 l 1,8,-1
 600 200 l 1,9,-1
 900 200 l 1,10,-1
 900 0 l 1,11,-1
 500 0 l 1,12,-1
 500 100 l 1,13,-1
 300 100 l 1,14,-1
 300 0 l 1,15,-1
 0 0 l 1,16,-1
 0 200 l 1,17,-1
 200 200 l 1,18,-1
 200 300 l 1,19,-1
 100 300 l 1,20,-1
 100 400 l 1,21,-1
 300 400 l 1,22,-1
 300 500 l 1,23,-1
 0 500 l 1,24,-1
 0 1000 l 1,25,-1
 300 1000 l 1,0,-1
500 800 m 1,26,-1
 500 700 l 1,27,-1
 700 700 l 1,28,-1
 700 800 l 1,29,-1
 500 800 l 1,26,-1
300 800 m 1,30,-1
 200 800 l 1,31,-1
 200 700 l 1,32,-1
 300 700 l 1,33,-1
 300 800 l 1,30,-1
EndSplineSet
EndChar

StartChar: uni53F3
Encoding: 21491 21491 283
Width: 1000
GlyphClass: 1
Flags: W
LayerCount: 2
Fore
SplineSet
400 900 m 1,0,-1
 400 1100 l 1,1,-1
 600 1100 l 1,2,-1
 600 900 l 1,3,-1
 900 900 l 1,4,-1
 900 700 l 1,5,-1
 500 700 l 1,6,-1
 500 600 l 1,7,-1
 900 600 l 1,8,-1
 900 0 l 1,9,-1
 200 0 l 1,10,-1
 200 200 l 1,11,-1
 0 200 l 1,12,-1
 0 400 l 1,13,-1
 100 400 l 1,14,-1
 100 500 l 1,15,-1
 200 500 l 1,16,-1
 200 600 l 1,17,-1
 300 600 l 1,18,-1
 300 700 l 1,19,-1
 0 700 l 1,20,-1
 0 900 l 1,21,-1
 400 900 l 1,0,-1
700 400 m 1,22,-1
 400 400 l 1,23,-1
 400 200 l 1,24,-1
 700 200 l 1,25,-1
 700 400 l 1,22,-1
EndSplineSet
EndChar

